{
.appVersion = "1289";
DisplayStrings = (
o,
"/f_f_i",
"/f_f_l",
"S/Sdotaccent"
);
copyright = "Copyright (c) 2011, Sorkin Type Co (www.sorkintype.com)\012with Reserved Font Name \"Doppio\"";
customParameters = (
{
name = licenseURL;
value = "http://scripts.sil.org/OFL";
},
{
name = description;
value = "Doppio is a robust low contrast sans serif type with a contemporary feeling. Doppio will work from small sizes to large display sizes.";
},
{
name = trademark;
value = "Doppio is a trademark of Sorkin Type Co.";
},
{
name = license;
value = "This Font Software is licensed under the SIL Open Font License, Version 1.1.";
},
{
name = openTypeOS2VendorID;
value = STC;
}
);
date = "2020-02-04 17:36:21 +0000";
designer = "Szymon Celej";
designerURL = www.hypnotype.com;
familyName = Doppio;
fontMaster = (
{
ascender = 2060;
capHeight = 1427;
descender = -500;
id = UUID0;
weightValue = 400;
xHeight = 1055;
}
);
glyphs = (
{
glyphname = A;
lastChange = "2020-02-04 19:26:43 +0000";
layers = (
{
anchors = (
{
name = bottom;
position = "{638, 0}";
},
{
name = ogonek;
position = "{1148, 10}";
},
{
name = top;
position = "{638, 1427}";
}
);
layerId = UUID0;
paths = (
{
closed = 1;
nodes = (
"276 0 LINE",
"391 387 LINE",
"877 387 LINE",
"997 0 LINE",
"1262 0 LINE",
"795 1427 LINE",
"477 1427 LINE",
"14 0 LINE"
);
},
{
closed = 1;
nodes = (
"631 1206 LINE",
"635 1206 LINE",
"811 602 LINE",
"455 602 LINE"
);
}
);
width = 1276;
}
);
unicode = 0041;
},
{
glyphname = Amacron;
lastChange = "2020-02-04 15:55:05 +0000";
layers = (
{
components = (
{
name = A;
}
);
layerId = UUID0;
paths = (
{
closed = 1;
nodes = (
"284 1753 LINE",
"989 1753 LINE",
"989 1557 LINE",
"284 1557 LINE"
);
}
);
width = 1276;
}
);
unicode = 0100;
},
{
glyphname = Aogonek;
lastChange = "2020-02-04 15:55:05 +0000";
layers = (
{
layerId = UUID0;
paths = (
{
closed = 1;
nodes = (
"1255 -311 LINE",
"1255 -479 LINE",
"1198 -500 LINE",
"1063 -500 LINE",
"971 -472 LINE",
"937 -444 LINE",
"864 -385 LINE",
"864 -279 LINE",
"864 -133 LINE",
"997 0 LINE",
"877 387 LINE",
"391 387 LINE",
"276 0 LINE",
"14 0 LINE",
"477 1427 LINE",
"795 1427 LINE",
"1262 0 LINE",
"1168 -56 LINE",
"1085 -174 LINE",
"1085 -267 LINE",
"1135 -317 LINE",
"1225 -317 LINE"
);
},
{
closed = 1;
nodes = (
"455 602 LINE",
"811 602 LINE",
"635 1206 LINE",
"631 1206 LINE"
);
}
);
width = 1276;
}
);
unicode = 0104;
},
{
glyphname = AE;
lastChange = "2020-02-04 17:31:28 +0000";
layers = (
{
layerId = UUID0;
paths = (
{
closed = 1;
nodes = (
"272 0 LINE",
"387 387 LINE",
"873 387 LINE",
"993 0 LINE",
"1643 0 LINE",
"1643 223 LINE",
"1184 223 LINE",
"1057 610 LINE",
"1583 610 LINE",
"1583 829 LINE",
"985 829 LINE",
"862 1204 LINE",
"1567 1204 LINE",
"1567 1427 LINE",
"473 1427 LINE",
"10 0 LINE"
);
},
{
closed = 1;
nodes = (
"629 1204 LINE",
"635 1204 LINE",
"807 602 LINE",
"451 602 LINE"
);
}
);
width = 1713;
}
);
unicode = 00C6;
},
{
glyphname = B;
lastChange = "2020-02-04 17:31:28 +0000";
layers = (
{
layerId = UUID0;
paths = (
{
closed = 1;
nodes = (
"770 0 LINE",
"1001 0 LINE",
"1092 81 LINE",
"1144 128 LINE",
"1196 294 LINE",
"1196 492 LINE",
"1183 542 LINE",
"1134 728 LINE",
"954 748 LINE",
"954 750 LINE",
"1032 767 LINE",
"1072 814 LINE",
"1098 845 LINE",
"1133 951 LINE",
"1133 1136 LINE",
"1111 1210 LINE",
"1046 1427 LINE",
"741 1427 LINE",
"182 1427 LINE",
"182 0 LINE"
);
},
{
closed = 1;
nodes = (
"422 621 LINE",
"729 621 LINE",
"850 621 LINE",
"892 587 LINE",
"944 546 LINE",
"944 422 LINE",
"944 357 LINE",
"915 278 LINE",
"844 219 LINE",
"741 219 LINE",
"422 219 LINE"
);
},
{
closed = 1;
nodes = (
"422 1208 LINE",
"700 1208 LINE",
"798 1208 LINE",
"844 1169 LINE",
"869 1148 LINE",
"895 1077 LINE",
"895 960 LINE",
"873 882 LINE",
"808 825 LINE",
"694 825 LINE",
"422 825 LINE"
);
}
);
width = 1312;
}
);
unicode = 0042;
},
{
glyphname = C;
lastChange = "2020-02-04 17:31:28 +0000";
layers = (
{
layerId = UUID0;
paths = (
{
closed = 1;
nodes = (
"672 -25 LINE",
"927 -25 LINE",
"1079 37 LINE",
"1079 209 LINE",
"935 197 LINE",
"735 197 LINE",
"684 202 LINE",
"574 211 LINE",
"499 275 LINE",
"365 389 LINE",
"365 727 LINE",
"365 949 LINE",
"428 1066 LINE",
"457 1122 LINE",
"537 1186 LINE",
"630 1219 LINE",
"731 1227 LINE",
"891 1227 LINE",
"1069 1214 LINE",
"1069 1386 LINE",
"923 1450 LINE",
"672 1450 LINE",
"535 1450 LINE",
"423 1394 LINE",
"283 1324 LINE",
"207 1177 LINE",
"115 1000 LINE",
"115 725 LINE",
"115 -25 LINE"
);
}
);
width = 1179;
}
);
unicode = 0043;
},
{
glyphname = Ccedilla;
lastChange = "2020-02-04 17:31:28 +0000";
layers = (
{
layerId = UUID0;
paths = (
{
closed = 1;
nodes = (
"640 -485 LINE",
"775 -485 LINE",
"839 -442 LINE",
"873 -419 LINE",
"914 -346 LINE",
"930 -266 LINE",
"930 -220 LINE",
"926 -201 LINE",
"906 -123 LINE",
"838 -101 LINE",
"806 -91 LINE",
"768 -91 LINE",
"759 -92 LINE",
"779 -21 LINE",
"963 -9 LINE",
"1079 37 LINE",
"1079 209 LINE",
"935 197 LINE",
"735 197 LINE",
"684 202 LINE",
"574 211 LINE",
"499 275 LINE",
"365 389 LINE",
"365 727 LINE",
"365 949 LINE",
"428 1066 LINE",
"457 1122 LINE",
"537 1186 LINE",
"630 1219 LINE",
"731 1227 LINE",
"891 1227 LINE",
"1069 1214 LINE",
"1069 1386 LINE",
"923 1450 LINE",
"672 1450 LINE",
"535 1450 LINE",
"423 1394 LINE",
"283 1324 LINE",
"207 1177 LINE",
"115 1000 LINE",
"115 725 LINE",
"115 41 LINE",
"576 -19 LINE",
"527 -205 LINE",
"546 -203 LINE",
"608 -195 LINE",
"636 -195 LINE",
"737 -195 LINE",
"737 -256 LINE",
"737 -300 LINE",
"702 -316 LINE",
"675 -328 LINE",
"536 -328 LINE",
"476 -313 LINE",
"441 -446 LINE",
"547 -485 LINE"
);
}
);
width = 1179;
}
);
unicode = 00C7;
},
{
glyphname = D;
lastChange = "2020-02-04 19:26:43 +0000";
layers = (
{
anchors = (
{
name = bottom;
position = "{685, 0}";
},
{
name = center;
position = "{685, 714}";
},
{
name = top;
position = "{685, 1427}";
}
);
layerId = UUID0;
paths = (
{
closed = 1;
nodes = (
"694 0 LINE",
"779 0 LINE",
"854 11 LINE",
"1008 34 LINE",
"1102 132 LINE",
"1255 293 LINE",
"1255 725 LINE",
"1255 1140 LINE",
"1093 1299 LINE",
"962 1427 LINE",
"694 1427 LINE",
"182 1427 LINE",
"182 0 LINE"
);
},
{
closed = 1;
nodes = (
"422 1204 LINE",
"629 1204 LINE",
"682 1204 LINE",
"730 1201 LINE",
"834 1195 LINE",
"896 1140 LINE",
"1004 1045 LINE",
"1004 727 LINE",
"1004 493 LINE",
"952 375 LINE",
"928 319 LINE",
"859 258 LINE",
"762 223 LINE",
"629 223 LINE",
"422 223 LINE"
);
}
);
width = 1370;
}
);
unicode = 0044;
},
{
glyphname = Eth;
lastChange = "2020-02-04 17:31:28 +0000";
layers = (
{
layerId = UUID0;
paths = (
{
closed = 1;
nodes = (
"743 0 LINE",
"828 0 LINE",
"902 11 LINE",
"1057 34 LINE",
"1151 132 LINE",
"1304 293 LINE",
"1304 725 LINE",
"1304 1140 LINE",
"1142 1299 LINE",
"1011 1427 LINE",
"743 1427 LINE",
"231 1427 LINE",
"231 823 LINE",
"60 823 LINE",
"60 605 LINE",
"231 605 LINE",
"231 0 LINE"
);
},
{
closed = 1;
nodes = (
"471 605 LINE",
"795 605 LINE",
"795 823 LINE",
"471 823 LINE",
"471 1204 LINE",
"678 1204 LINE",
"731 1204 LINE",
"780 1201 LINE",
"883 1195 LINE",
"946 1140 LINE",
"1053 1045 LINE",
"1053 727 LINE",
"1053 493 LINE",
"1002 375 LINE",
"977 319 LINE",
"908 258 LINE",
"811 223 LINE",
"678 223 LINE",
"471 223 LINE"
);
}
);
width = 1419;
}
);
unicode = 00D0;
},
{
glyphname = E;
lastChange = "2020-02-04 19:26:43 +0000";
layers = (
{
anchors = (
{
name = bottom;
position = "{575, 0}";
},
{
name = ogonek;
position = "{1034, 10}";
},
{
name = top;
position = "{575, 1427}";
},
{
name = topleft;
position = "{20, 1427}";
}
);
layerId = UUID0;
paths = (
{
closed = 1;
nodes = (
"1057 0 LINE",
"1057 223 LINE",
"422 223 LINE",
"422 610 LINE",
"940 610 LINE",
"940 829 LINE",
"422 829 LINE",
"422 1204 LINE",
"1040 1204 LINE",
"1040 1427 LINE",
"182 1427 LINE",
"182 0 LINE"
);
}
);
width = 1149;
}
);
unicode = 0045;
},
{
glyphname = Emacron;
lastChange = "2020-02-04 15:55:05 +0000";
layers = (
{
components = (
{
name = E;
}
);
layerId = UUID0;
paths = (
{
closed = 1;
nodes = (
"276 1757 LINE",
"981 1757 LINE",
"981 1561 LINE",
"276 1561 LINE"
);
}
);
width = 1149;
}
);
unicode = 0112;
},
{
glyphname = Eogonek;
lastChange = "2020-02-04 15:55:05 +0000";
layers = (
{
layerId = UUID0;
paths = (
{
closed = 1;
nodes = (
"663 -279 LINE",
"663 -138 LINE",
"795 0 LINE",
"182 0 LINE",
"182 1427 LINE",
"1040 1427 LINE",
"1040 1204 LINE",
"422 1204 LINE",
"422 829 LINE",
"940 829 LINE",
"940 610 LINE",
"422 610 LINE",
"422 223 LINE",
"1057 223 LINE",
"1057 0 LINE",
"885 -110 LINE",
"885 -225 LINE",
"885 -267 LINE",
"934 -317 LINE",
"1025 -317 LINE",
"1055 -311 LINE",
"1055 -479 LINE",
"995 -500 LINE",
"862 -500 LINE",
"770 -472 LINE",
"736 -444 LINE",
"663 -385 LINE"
);
}
);
width = 1149;
}
);
unicode = 0118;
},
{
glyphname = F;
lastChange = "2020-02-04 19:26:43 +0000";
layers = (
{
anchors = (
{
name = bottom;
position = "{555, 0}";
},
{
name = top;
position = "{555, 1427}";
}
);
layerId = UUID0;
paths = (
{
closed = 1;
nodes = (
"422 0 LINE",
"422 551 LINE",
"963 551 LINE",
"963 774 LINE",
"422 774 LINE",
"422 1204 LINE",
"1040 1204 LINE",
"1040 1427 LINE",
"182 1427 LINE",
"182 0 LINE"
);
}
);
width = 1110;
}
);
unicode = 0046;
},
{
glyphname = G;
lastChange = "2020-02-04 19:26:43 +0000";
layers = (
{
anchors = (
{
name = bottom;
position = "{675, 0}";
},
{
name = top;
position = "{675, 1427}";
}
);
layerId = UUID0;
paths = (
{
closed = 1;
nodes = (
"770 -31 LINE",
"1008 -31 LINE",
"1217 68 LINE",
"1217 799 LINE",
"719 799 LINE",
"719 580 LINE",
"979 580 LINE",
"979 213 LINE",
"897 190 LINE",
"764 190 LINE",
"541 190 LINE",
"450 316 LINE",
"362 438 LINE",
"362 727 LINE",
"362 1011 LINE",
"449 1120 LINE",
"497 1180 LINE",
"661 1233 LINE",
"974 1233 LINE",
"1163 1212 LINE",
"1163 1393 LINE",
"978 1456 LINE",
"601 1456 LINE",
"485 1419 LINE",
"115 1301 LINE",
"115 727 LINE",
"115 305 LINE",
"288 126 LINE",
"440 -31 LINE"
);
}
);
width = 1350;
}
);
unicode = 0047;
},
{
glyphname = H;
lastChange = "2020-02-04 19:26:43 +0000";
layers = (
{
anchors = (
{
name = bottom;
position = "{728, 0}";
},
{
name = center;
position = "{728, 714}";
},
{
name = top;
position = "{728, 1427}";
},
{
name = topleft;
position = "{20, 1427}";
}
);
layerId = UUID0;
paths = (
{
closed = 1;
nodes = (
"422 0 LINE",
"422 612 LINE",
"1034 612 LINE",
"1034 0 LINE",
"1274 0 LINE",
"1274 1427 LINE",
"1034 1427 LINE",
"1034 836 LINE",
"422 836 LINE",
"422 1427 LINE",
"182 1427 LINE",
"182 0 LINE"
);
}
);
width = 1456;
}
);
unicode = 0048;
},
{
glyphname = Hbar;
lastChange = "2020-02-04 15:55:05 +0000";
layers = (
{
layerId = UUID0;
paths = (
{
closed = 1;
nodes = (
"1067 612 LINE",
"455 612 LINE",
"455 0 LINE",
"215 0 LINE",
"215 1016 LINE",
"0 1016 LINE",
"0 1182 LINE",
"215 1182 LINE",
"215 1427 LINE",
"455 1427 LINE",
"455 1182 LINE",
"1067 1182 LINE",
"1067 1427 LINE",
"1307 1427 LINE",
"1307 1182 LINE",
"1491 1182 LINE",
"1491 1016 LINE",
"1307 1016 LINE",
"1307 0 LINE",
"1067 0 LINE"
);
},
{
closed = 1;
nodes = (
"1067 836 LINE",
"1067 1016 LINE",
"455 1016 LINE",
"455 836 LINE"
);
}
);
width = 1491;
}
);
unicode = 0126;
},
{
glyphname = I;
lastChange = "2020-02-04 19:26:43 +0000";
layers = (
{
anchors = (
{
name = bottom;
position = "{302, 0}";
},
{
name = ogonek;
position = "{544, 10}";
},
{
name = top;
position = "{302, 1427}";
},
{
name = topleft;
position = "{20, 1427}";
}
);
layerId = UUID0;
paths = (
{
closed = 1;
nodes = (
"422 0 LINE",
"422 1427 LINE",
"182 1427 LINE",
"182 0 LINE"
);
}
);
width = 604;
}
);
unicode = 0049;
},
{
glyphname = Imacron;
lastChange = "2020-02-04 15:55:05 +0000";
layers = (
{
components = (
{
name = I;
transform = "{1, 0, 0, 1, 5, 0}";
}
);
layerId = UUID0;
paths = (
{
closed = 1;
nodes = (
"-44 1767 LINE",
"661 1767 LINE",
"661 1571 LINE",
"-44 1571 LINE"
);
}
);
width = 615;
}
);
unicode = 012A;
},
{
glyphname = Iogonek;
lastChange = "2020-02-04 15:55:05 +0000";
layers = (
{
layerId = UUID0;
paths = (
{
closed = 1;
nodes = (
"457 -311 LINE",
"457 -479 LINE",
"397 -500 LINE",
"264 -500 LINE",
"172 -472 LINE",
"138 -444 LINE",
"65 -385 LINE",
"65 -279 LINE",
"65 -121 LINE",
"219 21 LINE",
"219 1427 LINE",
"459 1427 LINE",
"459 0 LINE",
"287 -110 LINE",
"287 -225 LINE",
"287 -267 LINE",
"336 -317 LINE",
"427 -317 LINE"
);
}
);
width = 641;
}
);
unicode = 012E;
},
{
glyphname = J;
lastChange = "2020-02-04 17:31:28 +0000";
layers = (
{
layerId = UUID0;
paths = (
{
closed = 1;
nodes = (
"320 -25 LINE",
"371 -12 LINE",
"526 25 LINE",
"526 238 LINE",
"525 1427 LINE",
"284 1427 LINE",
"284 311 LINE",
"284 223 LINE",
"252 197 LINE",
"236 184 LINE",
"187 178 LINE",
"106 178 LINE",
"14 182 LINE",
"14 10 LINE",
"130 -25 LINE"
);
}
);
width = 706;
}
);
unicode = 004A;
},
{
glyphname = K;
lastChange = "2020-02-04 19:26:43 +0000";
layers = (
{
anchors = (
{
name = bottom;
position = "{657, 0}";
},
{
name = top;
position = "{657, 1427}";
}
);
layerId = UUID0;
paths = (
{
closed = 1;
nodes = (
"422 0 LINE",
"422 621 LINE",
"642 621 LINE",
"994 0 LINE",
"1275 0 LINE",
"854 737 LINE",
"1252 1427 LINE",
"975 1427 LINE",
"642 844 LINE",
"422 844 LINE",
"422 1427 LINE",
"182 1427 LINE",
"182 0 LINE"
);
}
);
width = 1313;
}
);
unicode = 004B;
},
{
glyphname = L;
lastChange = "2020-02-04 19:26:43 +0000";
layers = (
{
anchors = (
{
name = bottom;
position = "{528, 0}";
},
{
name = center;
position = "{528, 714}";
},
{
name = top;
position = "{528, 1427}";
},
{
name = topright;
position = "{1036, 1427}";
}
);
layerId = UUID0;
paths = (
{
closed = 1;
nodes = (
"1012 0 LINE",
"1012 223 LINE",
"422 223 LINE",
"422 1427 LINE",
"182 1427 LINE",
"182 0 LINE"
);
}
);
width = 1056;
}
);
unicode = 004C;
},
{
glyphname = Lcaron;
lastChange = "2020-02-04 15:55:05 +0000";
layers = (
{
layerId = UUID0;
paths = (
{
closed = 1;
nodes = (
"598 1481 LINE",
"785 1462 LINE",
"803 1400 LINE",
"815 1361 LINE",
"754 1234 LINE",
"744 1213 LINE",
"721 1164 LINE",
"708 1137 LINE",
"657 1032 LINE",
"621 958 LINE",
"473 1007 LINE"
);
},
{
closed = 1;
nodes = (
"1012 0 LINE",
"182 0 LINE",
"182 1427 LINE",
"422 1427 LINE",
"422 223 LINE",
"1012 223 LINE"
);
}
);
width = 1062;
}
);
unicode = 013D;
},
{
glyphname = Lslash;
lastChange = "2020-02-04 17:31:28 +0000";
layers = (
{
layerId = UUID0;
paths = (
{
closed = 1;
nodes = (
"1112 0 LINE",
"1112 229 LINE",
"520 229 LINE",
"520 578 LINE",
"850 793 LINE",
"850 1047 LINE",
"520 829 LINE",
"520 1427 LINE",
"283 1427 LINE",
"283 702 LINE",
"123 602 LINE",
"123 352 LINE",
"283 453 LINE",
"283 0 LINE"
);
}
);
width = 1182;
}
);
unicode = 0141;
},
{
glyphname = M;
lastChange = "2020-02-04 19:26:43 +0000";
layers = (
{
anchors = (
{
name = bottom;
position = "{867, 0}";
},
{
name = top;
position = "{867, 1427}";
}
);
layerId = UUID0;
paths = (
{
closed = 1;
nodes = (
"422 0 LINE",
"422 1204 LINE",
"428 1204 LINE",
"442 1158 LINE",
"474 1050 LINE",
"502 967 LINE",
"690 387 LINE",
"1049 387 LINE",
"1233 963 LINE",
"1258 1038 LINE",
"1280 1114 LINE",
"1307 1204 LINE",
"1313 1204 LINE",
"1313 0 LINE",
"1552 0 LINE",
"1552 1427 LINE",
"1143 1427 LINE",
"870 567 LINE",
"862 567 LINE",
"598 1427 LINE",
"182 1427 LINE",
"182 0 LINE"
);
}
);
width = 1734;
}
);
unicode = 004D;
},
{
glyphname = N;
lastChange = "2020-02-04 19:26:43 +0000";
layers = (
{
anchors = (
{
name = bottom;
position = "{761, 0}";
},
{
name = top;
position = "{761, 1427}";
}
);
layerId = UUID0;
paths = (
{
closed = 1;
nodes = (
"420 0 LINE",
"420 1204 LINE",
"424 1204 LINE",
"448 1144 LINE",
"476 1082 LINE",
"492 1046 LINE",
"510 1004 LINE",
"950 0 LINE",
"1339 0 LINE",
"1339 1427 LINE",
"1102 1427 LINE",
"1102 366 LINE",
"1102 331 LINE",
"1105 223 LINE",
"1100 223 LINE",
"580 1427 LINE",
"182 1427 LINE",
"182 0 LINE"
);
}
);
width = 1521;
}
);
unicode = 004E;
},
{
glyphname = Eng;
lastChange = "2020-02-04 15:55:05 +0000";
layers = (
{
layerId = UUID0;
paths = (
{
closed = 1;
nodes = (
"828 -293 LINE",
"920 -297 LINE",
"1001 -297 LINE",
"1050 -291 LINE",
"1066 -278 LINE",
"1098 -252 LINE",
"1098 -164 LINE",
"1098 77 LINE",
"1339 77 LINE",
"1340 -237 LINE",
"1340 -450 LINE",
"1185 -488 LINE",
"1134 -500 LINE",
"944 -500 LINE",
"828 -465 LINE"
);
},
{
closed = 1;
nodes = (
"1105 223 LINE",
"1102 331 LINE",
"1102 366 LINE",
"1102 1427 LINE",
"1339 1427 LINE",
"1339 0 LINE",
"950 0 LINE",
"510 1004 LINE",
"492 1046 LINE",
"476 1082 LINE",
"448 1144 LINE",
"424 1204 LINE",
"420 1204 LINE",
"420 0 LINE",
"182 0 LINE",
"182 1427 LINE",
"580 1427 LINE",
"1100 223 LINE"
);
}
);
width = 1521;
}
);
unicode = 014A;
},
{
glyphname = O;
lastChange = "2020-02-04 19:26:43 +0000";
layers = (
{
anchors = (
{
name = bottom;
position = "{701, 0}";
},
{
name = center;
position = "{701, 714}";
},
{
name = ogonek;
position = "{1261, 10}";
},
{
name = top;
position = "{701, 1427}";
},
{
name = topleft;
position = "{20, 1427}";
},
{
name = topright;
position = "{1381, 1427}";
}
);
layerId = UUID0;
paths = (
{
closed = 1;
nodes = (
"702 -31 LINE",
"998 -31 LINE",
"1131 114 LINE",
"1286 283 LINE",
"1286 709 LINE",
"1286 998 LINE",
"1216 1168 LINE",
"1181 1251 LINE",
"1081 1362 LINE",
"951 1428 LINE",
"793 1456 LINE",
"565 1456 LINE",
"347 1391 LINE",
"195 1224 LINE",
"115 934 LINE",
"115 559 LINE",
"133 446 LINE",
"183 129 LINE",
"387 28 LINE",
"504 -31 LINE"
);
},
{
closed = 1;
nodes = (
"474 236 LINE",
"398 353 LINE",
"367 554 LINE",
"367 865 LINE",
"398 1067 LINE",
"474 1186 LINE",
"604 1233 LINE",
"702 1233 LINE",
"800 1233 LINE",
"929 1186 LINE",
"967 1126 LINE",
"1036 1018 LINE",
"1036 709 LINE",
"1036 401 LINE",
"967 294 LINE",
"929 236 LINE",
"800 190 LINE",
"702 190 LINE",
"604 190 LINE"
);
}
);
width = 1401;
}
);
unicode = 004F;
},
{
glyphname = Omacron;
lastChange = "2020-02-04 15:55:05 +0000";
layers = (
{
components = (
{
name = O;
}
);
layerId = UUID0;
paths = (
{
closed = 1;
nodes = (
"333 1771 LINE",
"1038 1771 LINE",
"1038 1575 LINE",
"333 1575 LINE"
);
}
);
width = 1401;
}
);
unicode = 014C;
},
{
glyphname = Oslash;
lastChange = "2020-02-04 17:31:28 +0000";
layers = (
{
layerId = UUID0;
paths = (
{
closed = 1;
nodes = (
"429 -172 LINE",
"504 -6 LINE",
"593 -31 LINE",
"727 -31 LINE",
"1023 -31 LINE",
"1156 114 LINE",
"1311 283 LINE",
"1311 709 LINE",
"1311 1179 LINE",
"1117 1344 LINE",
"1231 1595 LINE",
"1012 1595 LINE",
"938 1433 LINE",
"846 1456 LINE",
"590 1456 LINE",
"372 1391 LINE",
"296 1308 LINE",
"140 1136 LINE",
"140 709 LINE",
"140 246 LINE",
"326 85 LINE",
"209 -172 LINE"
);
},
{
closed = 1;
nodes = (
"392 443 LINE",
"392 1018 LINE",
"461 1126 LINE",
"499 1186 LINE",
"629 1233 LINE",
"794 1233 LINE",
"843 1223 LINE",
"439 335 LINE"
);
},
{
closed = 1;
nodes = (
"599 202 LINE",
"1006 1100 LINE",
"1061 988 LINE",
"1061 709 LINE",
"1061 401 LINE",
"992 294 LINE",
"954 236 LINE",
"825 190 LINE",
"645 190 LINE"
);
}
);
width = 1451;
}
);
unicode = 00D8;
},
{
glyphname = OE;
lastChange = "2020-02-04 17:31:28 +0000";
layers = (
{
layerId = UUID0;
paths = (
{
closed = 1;
nodes = (
"785 -16 LINE",
"1001 0 LINE",
"1876 0 LINE",
"1876 223 LINE",
"1241 223 LINE",
"1241 610 LINE",
"1759 610 LINE",
"1759 829 LINE",
"1241 829 LINE",
"1241 1204 LINE",
"1860 1204 LINE",
"1860 1427 LINE",
"1008 1427 LINE",
"795 1446 LINE",
"527 1446 LINE",
"417 1391 LINE",
"115 1240 LINE",
"115 725 LINE",
"115 437 LINE",
"200 260 LINE",
"240 178 LINE",
"347 71 LINE",
"471 8 LINE",
"606 -16 LINE"
);
},
{
closed = 1;
nodes = (
"684 209 LINE",
"573 218 LINE",
"499 279 LINE",
"365 390 LINE",
"365 727 LINE",
"365 948 LINE",
"428 1065 LINE",
"457 1120 LINE",
"537 1183 LINE",
"630 1214 LINE",
"731 1221 LINE",
"945 1221 LINE",
"1001 1217 LINE",
"1001 205 LINE",
"786 205 LINE",
"735 205 LINE"
);
}
);
width = 1968;
}
);
unicode = 0152;
},
{
glyphname = P;
lastChange = "2020-02-04 19:26:43 +0000";
layers = (
{
anchors = (
{
name = bottom;
position = "{608, 0}";
},
{
name = top;
position = "{608, 1427}";
}
);
layerId = UUID0;
paths = (
{
closed = 1;
nodes = (
"422 0 LINE",
"422 502 LINE",
"739 502 LINE",
"846 502 LINE",
"921 534 LINE",
"1135 623 LINE",
"1135 961 LINE",
"1135 1148 LINE",
"1076 1256 LINE",
"1048 1308 LINE",
"974 1374 LINE",
"857 1427 LINE",
"748 1427 LINE",
"182 1427 LINE",
"182 0 LINE"
);
},
{
closed = 1;
nodes = (
"422 1204 LINE",
"711 1204 LINE",
"809 1204 LINE",
"852 1132 LINE",
"871 1098 LINE",
"885 1010 LINE",
"885 911 LINE",
"878 868 LINE",
"855 725 LINE",
"711 725 LINE",
"422 725 LINE"
);
}
);
width = 1215;
}
);
unicode = 0050;
},
{
glyphname = Thorn;
lastChange = "2020-02-04 17:31:28 +0000";
layers = (
{
layerId = UUID0;
paths = (
{
closed = 1;
nodes = (
"422 0 LINE",
"422 266 LINE",
"578 214 LINE",
"820 214 LINE",
"904 235 LINE",
"1178 304 LINE",
"1178 711 LINE",
"1178 987 LINE",
"1048 1106 LINE",
"987 1162 LINE",
"824 1205 LINE",
"584 1205 LINE",
"422 1154 LINE",
"422 1427 LINE",
"182 1427 LINE",
"182 0 LINE"
);
},
{
closed = 1;
nodes = (
"422 442 LINE",
"422 982 LINE",
"534 996 LINE",
"809 996 LINE",
"867 943 LINE",
"934 882 LINE",
"934 713 LINE",
"934 545 LINE",
"856 480 LINE",
"817 449 LINE",
"707 425 LINE",
"507 425 LINE"
);
}
);
width = 1228;
}
);
unicode = 00DE;
},
{
glyphname = Q;
lastChange = "2020-02-04 17:31:28 +0000";
layers = (
{
layerId = UUID0;
paths = (
{
closed = 1;
nodes = (
"1252 -115 LINE",
"1106 90 LINE",
"1286 257 LINE",
"1286 709 LINE",
"1286 998 LINE",
"1216 1168 LINE",
"1181 1251 LINE",
"1081 1362 LINE",
"951 1428 LINE",
"793 1456 LINE",
"565 1456 LINE",
"347 1391 LINE",
"195 1224 LINE",
"115 934 LINE",
"115 418 LINE",
"186 250 LINE",
"221 168 LINE",
"322 60 LINE",
"452 -5 LINE",
"610 -31 LINE",
"844 -31 LINE",
"951 2 LINE",
"1034 -115 LINE"
);
},
{
closed = 1;
nodes = (
"474 236 LINE",
"436 294 LINE",
"367 401 LINE",
"367 709 LINE",
"367 1018 LINE",
"436 1126 LINE",
"474 1186 LINE",
"604 1233 LINE",
"702 1233 LINE",
"800 1233 LINE",
"929 1186 LINE",
"967 1126 LINE",
"1036 1018 LINE",
"1036 709 LINE",
"1036 390 LINE",
"961 286 LINE",
"862 430 LINE",
"647 430 LINE",
"809 198 LINE",
"763 190 LINE",
"668 190 LINE",
"604 190 LINE"
);
}
);
width = 1403;
}
);
unicode = 0051;
},
{
glyphname = R;
lastChange = "2020-02-04 19:26:43 +0000";
layers = (
{
anchors = (
{
name = bottom;
position = "{643, 0}";
},
{
name = top;
position = "{643, 1427}";
}
);
layerId = UUID0;
paths = (
{
closed = 1;
nodes = (
"422 0 LINE",
"422 524 LINE",
"659 524 LINE",
"926 0 LINE",
"1200 0 LINE",
"899 578 LINE",
"899 580 LINE",
"968 599 LINE",
"1023 647 LINE",
"1147 760 LINE",
"1147 969 LINE",
"1147 1152 LINE",
"1086 1258 LINE",
"988 1427 LINE",
"713 1427 LINE",
"182 1427 LINE",
"182 0 LINE"
);
},
{
closed = 1;
nodes = (
"422 1204 LINE",
"705 1204 LINE",
"749 1204 LINE",
"785 1192 LINE",
"899 1156 LINE",
"899 983 LINE",
"899 750 LINE",
"711 750 LINE",
"422 750 LINE"
);
}
);
width = 1285;
}
);
unicode = 0052;
},
{
glyphname = S;
lastChange = "2020-02-04 19:26:43 +0000";
layers = (
{
anchors = (
{
name = bottom;
position = "{555, 0}";
},
{
name = top;
position = "{555, 1427}";
}
);
layerId = UUID0;
paths = (
{
closed = 1;
nodes = (
"812 -31 LINE",
"917 70 LINE",
"971 121 LINE",
"1010 284 LINE",
"1010 545 LINE",
"985 624 LINE",
"972 666 LINE",
"929 726 LINE",
"848 787 LINE",
"736 819 LINE",
"465 897 LINE",
"389 920 LINE",
"362 961 LINE",
"346 986 LINE",
"346 1057 LINE",
"346 1170 LINE",
"405 1204 LINE",
"438 1223 LINE",
"552 1235 LINE",
"770 1235 LINE",
"943 1212 LINE",
"943 1397 LINE",
"762 1456 LINE",
"557 1456 LINE",
"455 1456 LINE",
"372 1432 LINE",
"108 1356 LINE",
"108 1047 LINE",
"108 867 LINE",
"221 687 LINE",
"359 651 LINE",
"650 575 LINE",
"726 555 LINE",
"756 499 LINE",
"773 468 LINE",
"773 383 LINE",
"773 278 LINE",
"726 240 LINE",
"696 215 LINE",
"582 190 LINE",
"288 190 LINE",
"120 213 LINE",
"120 37 LINE",
"235 -31 LINE"
);
}
);
width = 1110;
}
);
unicode = 0053;
},
{
glyphname = Scedilla;
lastChange = "2020-02-04 15:55:05 +0000";
layers = (
{
layerId = UUID0;
paths = (
{
closed = 1;
nodes = (
"943 1212 LINE",
"770 1235 LINE",
"552 1235 LINE",
"438 1223 LINE",
"405 1204 LINE",
"346 1170 LINE",
"346 1057 LINE",
"346 986 LINE",
"362 961 LINE",
"389 920 LINE",
"465 897 LINE",
"736 819 LINE",
"848 787 LINE",
"929 726 LINE",
"972 666 LINE",
"985 624 LINE",
"1010 545 LINE",
"1010 299 LINE",
"981 151 LINE",
"942 99 LINE",
"867 -3 LINE",
"667 -24 LINE",
"647 -92 LINE",
"656 -91 LINE",
"694 -91 LINE",
"726 -101 LINE",
"794 -123 LINE",
"814 -201 LINE",
"818 -220 LINE",
"818 -266 LINE",
"802 -346 LINE",
"761 -419 LINE",
"727 -442 LINE",
"663 -485 LINE",
"528 -485 LINE",
"435 -485 LINE",
"329 -446 LINE",
"364 -313 LINE",
"424 -328 LINE",
"563 -328 LINE",
"590 -316 LINE",
"625 -300 LINE",
"625 -256 LINE",
"625 -195 LINE",
"524 -195 LINE",
"496 -195 LINE",
"434 -203 LINE",
"415 -205 LINE",
"461 -30 LINE",
"221 -23 LINE",
"120 37 LINE",
"120 213 LINE",
"288 190 LINE",
"582 190 LINE",
"696 215 LINE",
"726 240 LINE",
"773 278 LINE",
"773 383 LINE",
"773 468 LINE",
"756 499 LINE",
"726 555 LINE",
"650 575 LINE",
"359 651 LINE",
"221 687 LINE",
"108 867 LINE",
"108 1047 LINE",
"108 1356 LINE",
"372 1432 LINE",
"455 1456 LINE",
"557 1456 LINE",
"762 1456 LINE",
"943 1397 LINE"
);
}
);
width = 1110;
}
);
unicode = 015E;
},
{
glyphname = T;
lastChange = "2020-02-04 17:31:28 +0000";
layers = (
{
layerId = UUID0;
paths = (
{
closed = 1;
nodes = (
"678 0 LINE",
"678 1206 LINE",
"1110 1206 LINE",
"1110 1427 LINE",
"12 1427 LINE",
"12 1206 LINE",
"440 1206 LINE",
"440 0 LINE"
);
}
);
width = 1122;
}
);
unicode = 0054;
},
{
glyphname = Tbar;
lastChange = "2020-02-04 15:55:05 +0000";
layers = (
{
layerId = UUID0;
paths = (
{
closed = 1;
nodes = (
"185 797 LINE",
"469 797 LINE",
"469 1206 LINE",
"41 1206 LINE",
"41 1427 LINE",
"1139 1427 LINE",
"1139 1206 LINE",
"707 1206 LINE",
"707 797 LINE",
"996 797 LINE",
"996 603 LINE",
"707 603 LINE",
"707 0 LINE",
"469 0 LINE",
"469 603 LINE",
"185 603 LINE"
);
}
);
width = 1180;
}
);
unicode = 0166;
},
{
glyphname = U;
lastChange = "2020-02-04 19:26:43 +0000";
layers = (
{
anchors = (
{
name = bottom;
position = "{703, 0}";
},
{
name = ogonek;
position = "{1265, 10}";
},
{
name = top;
position = "{703, 1427}";
},
{
name = topright;
position = "{1385, 1427}";
}
);
layerId = UUID0;
paths = (
{
closed = 1;
nodes = (
"704 -31 LINE",
"983 -31 LINE",
"1108 90 LINE",
"1228 205 LINE",
"1228 459 LINE",
"1228 1427 LINE",
"990 1427 LINE",
"990 473 LINE",
"990 309 LINE",
"919 246 LINE",
"854 190 LINE",
"704 190 LINE",
"541 190 LINE",
"480 246 LINE",
"415 305 LINE",
"415 473 LINE",
"415 1427 LINE",
"177 1427 LINE",
"177 455 LINE",
"177 203 LINE",
"298 88 LINE",
"424 -31 LINE"
);
}
);
width = 1405;
}
);
unicode = 0055;
},
{
glyphname = Umacron;
lastChange = "2020-02-04 15:55:05 +0000";
layers = (
{
components = (
{
name = U;
}
);
layerId = UUID0;
paths = (
{
closed = 1;
nodes = (
"349 1788 LINE",
"1054 1788 LINE",
"1054 1592 LINE",
"349 1592 LINE"
);
}
);
width = 1405;
}
);
unicode = 016A;
},
{
glyphname = Uogonek;
lastChange = "2020-02-04 15:55:05 +0000";
layers = (
{
layerId = UUID0;
paths = (
{
closed = 1;
nodes = (
"946 -311 LINE",
"946 -479 LINE",
"886 -500 LINE",
"753 -500 LINE",
"661 -472 LINE",
"627 -444 LINE",
"554 -385 LINE",
"554 -156 LINE",
"659 -30 LINE",
"283 -18 LINE",
"204 247 LINE",
"177 336 LINE",
"177 455 LINE",
"177 1427 LINE",
"415 1427 LINE",
"415 473 LINE",
"415 305 LINE",
"480 246 LINE",
"541 190 LINE",
"704 190 LINE",
"854 190 LINE",
"919 246 LINE",
"990 309 LINE",
"990 473 LINE",
"990 1427 LINE",
"1228 1427 LINE",
"1228 459 LINE",
"1228 273 LINE",
"1096 45 LINE",
"947 0 LINE",
"776 -110 LINE",
"776 -225 LINE",
"776 -267 LINE",
"825 -317 LINE",
"916 -317 LINE"
);
}
);
width = 1405;
}
);
unicode = 0172;
},
{
glyphname = V;
lastChange = "2020-02-04 17:31:28 +0000";
layers = (
{
layerId = UUID0;
paths = (
{
closed = 1;
nodes = (
"860 0 LINE",
"1343 1427 LINE",
"1069 1427 LINE",
"680 223 LINE",
"664 223 LINE",
"274 1427 LINE",
"0 1427 LINE",
"483 0 LINE"
);
}
);
width = 1343;
}
);
unicode = 0056;
},
{
glyphname = W;
lastChange = "2020-02-04 19:26:43 +0000";
layers = (
{
anchors = (
{
name = bottom;
position = "{971, 0}";
},
{
name = top;
position = "{971, 1427}";
}
);
layerId = UUID0;
paths = (
{
closed = 1;
nodes = (
"736 0 LINE",
"973 1225 LINE",
"976 1225 LINE",
"1229 0 LINE",
"1604 0 LINE",
"1907 1427 LINE",
"1664 1427 LINE",
"1430 223 LINE",
"1426 223 LINE",
"1176 1427 LINE",
"777 1427 LINE",
"541 223 LINE",
"537 223 LINE",
"289 1427 LINE",
"35 1427 LINE",
"357 0 LINE"
);
}
);
width = 1942;
}
);
unicode = 0057;
},
{
glyphname = X;
lastChange = "2020-02-04 17:31:28 +0000";
layers = (
{
layerId = UUID0;
paths = (
{
closed = 1;
nodes = (
"296 0 LINE",
"625 518 LINE",
"961 0 LINE",
"1250 0 LINE",
"773 739 LINE",
"1211 1427 LINE",
"930 1427 LINE",
"636 951 LINE",
"330 1427 LINE",
"38 1427 LINE",
"486 734 LINE",
"15 0 LINE"
);
}
);
width = 1265;
}
);
unicode = 0058;
},
{
glyphname = Y;
lastChange = "2020-02-04 19:26:43 +0000";
layers = (
{
anchors = (
{
name = bottom;
position = "{611, 0}";
},
{
name = top;
position = "{611, 1427}";
},
{
name = topleft;
position = "{20, 1427}";
}
);
layerId = UUID0;
paths = (
{
closed = 1;
nodes = (
"729 0 LINE",
"729 551 LINE",
"1221 1427 LINE",
"940 1427 LINE",
"612 805 LINE",
"608 805 LINE",
"281 1427 LINE",
"0 1427 LINE",
"492 551 LINE",
"492 0 LINE"
);
}
);
width = 1221;
}
);
unicode = 0059;
},
{
glyphname = Z;
lastChange = "2020-02-04 19:26:43 +0000";
layers = (
{
anchors = (
{
name = bottom;
position = "{638, 0}";
},
{
name = center;
position = "{638, 714}";
},
{
name = top;
position = "{638, 1427}";
}
);
layerId = UUID0;
paths = (
{
closed = 1;
nodes = (
"1196 0 LINE",
"1196 223 LINE",
"446 223 LINE",
"446 225 LINE",
"1188 1268 LINE",
"1188 1427 LINE",
"131 1427 LINE",
"131 1204 LINE",
"834 1204 LINE",
"834 1202 LINE",
"90 156 LINE",
"90 0 LINE"
);
}
);
width = 1276;
}
);
unicode = 005A;
},
{
glyphname = a;
lastChange = "2020-02-04 19:27:45 +0000";
layers = (
{
anchors = (
{
name = bottom;
position = "{597, 0}";
},
{
name = ogonek;
position = "{1074, 10}";
},
{
name = top;
position = "{597, 1055}";
}
);
layerId = UUID0;
paths = (
{
closed = 1;
nodes = (
"463 -31 LINE",
"648 -31 LINE",
"803 78 LINE",
"821 0 LINE",
"1022 0 LINE",
"1022 639 LINE",
"1022 777 LINE",
"1006 846 LINE",
"969 1008 LINE",
"802 1060 LINE",
"743 1079 LINE",
"602 1079 LINE",
"348 1079 LINE",
"200 1020 LINE",
"200 854 LINE",
"369 877 LINE",
"589 877 LINE",
"723 853 LINE",
"758 809 LINE",
"786 775 LINE",
"786 670 LINE",
"786 572 LINE",
"640 623 LINE",
"312 623 LINE",
"226 551 LINE",
"127 469 LINE",
"127 299 LINE",
"127 119 LINE",
"204 44 LINE",
"282 -31 LINE"
);
},
{
closed = 1;
nodes = (
"413 190 LINE",
"370 217 LINE",
"370 299 LINE",
"370 382 LINE",
"415 410 LINE",
"438 425 LINE",
"509 434 LINE",
"663 434 LINE",
"786 411 LINE",
"786 228 LINE",
"662 168 LINE",
"446 168 LINE"
);
}
);
width = 1193;
}
);
unicode = 0061;
},
{
glyphname = amacron;
lastChange = "2020-02-04 15:55:05 +0000";
layers = (
{
components = (
{
name = a;
}
);
layerId = UUID0;
paths = (
{
closed = 1;
nodes = (
"217 1377 LINE",
"922 1377 LINE",
"922 1200 LINE",
"217 1200 LINE"
);
}
);
width = 1180;
}
);
unicode = 0101;
},
{
glyphname = aogonek;
lastChange = "2020-02-04 15:55:05 +0000";
layers = (
{
layerId = UUID0;
paths = (
{
closed = 1;
nodes = (
"200 1020 LINE",
"348 1079 LINE",
"602 1079 LINE",
"743 1079 LINE",
"802 1060 LINE",
"969 1008 LINE",
"1006 846 LINE",
"1022 777 LINE",
"1022 639 LINE",
"1022 0 LINE",
"850 -110 LINE",
"850 -225 LINE",
"850 -267 LINE",
"899 -317 LINE",
"990 -317 LINE",
"1020 -311 LINE",
"1020 -479 LINE",
"963 -500 LINE",
"810 -500 LINE",
"725 -473 LINE",
"694 -446 LINE",
"628 -389 LINE",
"628 -289 LINE",
"628 -124 LINE",
"818 11 LINE",
"803 78 LINE",
"648 -31 LINE",
"463 -31 LINE",
"282 -31 LINE",
"204 44 LINE",
"127 119 LINE",
"127 299 LINE",
"127 469 LINE",
"226 551 LINE",
"312 623 LINE",
"640 623 LINE",
"786 572 LINE",
"786 670 LINE",
"786 775 LINE",
"758 809 LINE",
"723 853 LINE",
"589 877 LINE",
"369 877 LINE",
"200 854 LINE"
);
},
{
closed = 1;
nodes = (
"786 228 LINE",
"786 411 LINE",
"663 434 LINE",
"509 434 LINE",
"438 425 LINE",
"415 410 LINE",
"370 382 LINE",
"370 299 LINE",
"370 217 LINE",
"413 190 LINE",
"446 168 LINE",
"662 168 LINE"
);
}
);
width = 1180;
}
);
unicode = 0105;
},
{
glyphname = ae;
lastChange = "2020-02-04 17:31:28 +0000";
layers = (
{
layerId = UUID0;
paths = (
{
closed = 1;
nodes = (
"510 -31 LINE",
"739 -31 LINE",
"877 125 LINE",
"917 78 LINE",
"999 18 LINE",
"1133 -31 LINE",
"1286 -31 LINE",
"1478 -31 LINE",
"1661 37 LINE",
"1661 207 LINE",
"1520 182 LINE",
"1155 182 LINE",
"1093 244 LINE",
"1038 299 LINE",
"1034 444 LINE",
"1695 440 LINE",
"1708 560 LINE",
"1708 800 LINE",
"1660 902 LINE",
"1576 1085 LINE",
"1296 1085 LINE",
"1025 1085 LINE",
"931 938 LINE",
"845 1085 LINE",
"579 1085 LINE",
"402 1085 LINE",
"211 1020 LINE",
"211 854 LINE",
"360 877 LINE",
"589 877 LINE",
"733 853 LINE",
"768 809 LINE",
"796 775 LINE",
"796 670 LINE",
"796 635 LINE",
"524 635 LINE",
"127 635 LINE",
"127 301 LINE",
"127 225 LINE",
"146 164 LINE",
"206 -31 LINE"
);
},
{
closed = 1;
nodes = (
"421 178 LINE",
"380 208 LINE",
"360 264 LINE",
"360 345 LINE",
"371 370 LINE",
"403 444 LINE",
"567 444 LINE",
"794 444 LINE",
"796 393 LINE",
"800 320 LINE",
"813 267 LINE",
"764 225 LINE",
"620 168 LINE",
"485 168 LINE"
);
},
{
closed = 1;
nodes = (
"1034 759 LINE",
"1075 814 LINE",
"1100 847 LINE",
"1194 885 LINE",
"1348 885 LINE",
"1435 854 LINE",
"1479 791 LINE",
"1489 704 LINE",
"1489 645 LINE",
"1489 635 LINE",
"1034 635 LINE"
);
}
);
width = 1781;
}
);
unicode = 00E6;
},
{
glyphname = b;
lastChange = "2020-02-04 19:27:45 +0000";
layers = (
{
anchors = (
{
name = bottom;
position = "{614, 0}";
},
{
name = top;
position = "{614, 2060}";
}
);
layerId = UUID0;
paths = (
{
closed = 1;
nodes = (
"745 -31 LINE",
"833 -31 LINE",
"902 -2 LINE",
"1116 89 LINE",
"1116 532 LINE",
"1116 809 LINE",
"1042 938 LINE",
"958 1085 LINE",
"756 1085 LINE",
"579 1085 LINE",
"403 1010 LINE",
"403 1554 LINE",
"166 1554 LINE",
"166 0 LINE",
"371 0 LINE",
"385 84 LINE",
"554 -31 LINE"
);
},
{
closed = 1;
nodes = (
"403 238 LINE",
"403 836 LINE",
"544 874 LINE",
"720 874 LINE",
"807 843 LINE",
"852 763 LINE",
"866 626 LINE",
"866 327 LINE",
"828 256 LINE",
"787 182 LINE",
"670 182 LINE",
"515 182 LINE"
);
}
);
width = 1228;
}
);
unicode = 0062;
},
{
glyphname = c;
lastChange = "2020-02-04 19:27:45 +0000";
layers = (
{
anchors = (
{
name = bottom;
position = "{483, 0}";
},
{
name = top;
position = "{483, 1055}";
}
);
layerId = UUID0;
paths = (
{
closed = 1;
nodes = (
"563 -27 LINE",
"763 -27 LINE",
"877 37 LINE",
"877 203 LINE",
"785 184 LINE",
"482 184 LINE",
"419 246 LINE",
"344 321 LINE",
"344 530 LINE",
"344 737 LINE",
"410 808 LINE",
"444 844 LINE",
"552 870 LINE",
"709 870 LINE",
"868 856 LINE",
"868 1020 LINE",
"739 1079 LINE",
"349 1079 LINE",
"230 954 LINE",
"94 811 LINE",
"94 528 LINE",
"94 229 LINE",
"232 90 LINE",
"348 -27 LINE"
);
}
);
width = 965;
}
);
unicode = 0063;
},
{
glyphname = ccedilla;
lastChange = "2020-02-04 17:31:28 +0000";
layers = (
{
layerId = UUID0;
paths = (
{
closed = 1;
nodes = (
"543 -485 LINE",
"678 -485 LINE",
"742 -442 LINE",
"776 -419 LINE",
"817 -346 LINE",
"833 -266 LINE",
"833 -220 LINE",
"828 -201 LINE",
"809 -123 LINE",
"741 -101 LINE",
"710 -91 LINE",
"671 -91 LINE",
"662 -92 LINE",
"683 -19 LINE",
"797 -5 LINE",
"877 37 LINE",
"877 203 LINE",
"785 184 LINE",
"571 184 LINE",
"457 209 LINE",
"419 246 LINE",
"344 321 LINE",
"344 530 LINE",
"344 737 LINE",
"410 808 LINE",
"444 844 LINE",
"552 870 LINE",
"709 870 LINE",
"868 856 LINE",
"868 1020 LINE",
"739 1079 LINE",
"349 1079 LINE",
"230 954 LINE",
"94 811 LINE",
"94 528 LINE",
"94 25 LINE",
"478 -22 LINE",
"430 -205 LINE",
"449 -203 LINE",
"510 -195 LINE",
"539 -195 LINE",
"640 -195 LINE",
"640 -256 LINE",
"640 -300 LINE",
"604 -316 LINE",
"578 -328 LINE",
"439 -328 LINE",
"379 -313 LINE",
"344 -446 LINE",
"450 -485 LINE"
);
}
);
width = 965;
}
);
unicode = 00E7;
},
{
glyphname = d;
lastChange = "2020-02-04 19:27:45 +0000";
layers = (
{
anchors = (
{
name = bottom;
position = "{609, 0}";
},
{
name = center;
position = "{609, 528}";
},
{
name = top;
position = "{609, 2060}";
},
{
name = topright;
position = "{1198, 1055}";
}
);
layerId = UUID0;
paths = (
{
closed = 1;
nodes = (
"466 -31 LINE",
"671 -31 LINE",
"833 84 LINE",
"847 0 LINE",
"1052 0 LINE",
"1052 1554 LINE",
"814 1554 LINE",
"814 1010 LINE",
"656 1085 LINE",
"464 1085 LINE",
"104 1085 LINE",
"104 546 LINE",
"104 228 LINE",
"197 92 LINE",
"282 -31 LINE"
);
},
{
closed = 1;
nodes = (
"410 217 LINE",
"354 321 LINE",
"354 508 LINE",
"354 719 LINE",
"389 794 LINE",
"409 837 LINE",
"479 874 LINE",
"658 874 LINE",
"814 836 LINE",
"814 233 LINE",
"688 182 LINE",
"550 182 LINE",
"487 182 LINE"
);
}
);
width = 1218;
}
);
unicode = 0064;
},
{
glyphname = eth;
lastChange = "2020-02-04 17:31:28 +0000";
layers = (
{
layerId = UUID0;
paths = (
{
closed = 1;
nodes = (
"584 -31 LINE",
"1038 -31 LINE",
"1038 414 LINE",
"1038 764 LINE",
"1038 1123 LINE",
"821 1344 LINE",
"974 1479 LINE",
"877 1622 LINE",
"681 1451 LINE",
"513 1551 LINE",
"274 1564 LINE",
"250 1391 LINE",
"391 1380 LINE",
"516 1306 LINE",
"358 1168 LINE",
"457 1023 LINE",
"655 1197 LINE",
"801 1044 LINE",
"801 845 LINE",
"633 925 LINE",
"455 925 LINE",
"378 925 LINE",
"314 905 LINE",
"111 841 LINE",
"111 476 LINE",
"111 211 LINE",
"222 91 LINE",
"336 -31 LINE"
);
},
{
closed = 1;
nodes = (
"404 268 LINE",
"358 335 LINE",
"358 485 LINE",
"358 632 LINE",
"409 675 LINE",
"436 698 LINE",
"522 710 LINE",
"690 710 LINE",
"801 671 LINE",
"801 453 LINE",
"801 311 LINE",
"760 256 LINE",
"715 195 LINE",
"584 195 LINE",
"456 195 LINE"
);
}
);
width = 1173;
}
);
unicode = 00F0;
},
{
glyphname = dcaron;
lastChange = "2020-02-04 15:55:05 +0000";
layers = (
{
layerId = UUID0;
paths = (
{
closed = 1;
nodes = (
"1205 1559 LINE",
"1392 1540 LINE",
"1410 1478 LINE",
"1412 1470 LINE",
"1412 1458 LINE",
"1412 1420 LINE",
"1351 1291 LINE",
"1328 1242 LINE",
"1315 1215 LINE",
"1264 1110 LINE",
"1228 1036 LINE",
"1080 1085 LINE"
);
},
{
closed = 1;
nodes = (
"833 84 LINE",
"671 -31 LINE",
"466 -31 LINE",
"282 -31 LINE",
"197 92 LINE",
"104 228 LINE",
"104 546 LINE",
"104 1085 LINE",
"464 1085 LINE",
"656 1085 LINE",
"814 1010 LINE",
"814 1554 LINE",
"1052 1554 LINE",
"1052 0 LINE",
"847 0 LINE"
);
},
{
closed = 1;
nodes = (
"814 836 LINE",
"658 874 LINE",
"479 874 LINE",
"409 837 LINE",
"389 794 LINE",
"354 719 LINE",
"354 508 LINE",
"354 321 LINE",
"410 217 LINE",
"487 182 LINE",
"550 182 LINE",
"688 182 LINE",
"814 233 LINE"
);
}
);
width = 1333;
}
);
unicode = 010F;
},
{
glyphname = dcroat;
lastChange = "2020-02-04 15:55:05 +0000";
layers = (
{
layerId = UUID0;
paths = (
{
closed = 1;
nodes = (
"464 1085 LINE",
"656 1085 LINE",
"814 1010 LINE",
"814 1204 LINE",
"529 1204 LINE",
"529 1384 LINE",
"814 1384 LINE",
"814 1554 LINE",
"1052 1554 LINE",
"1052 1384 LINE",
"1197 1384 LINE",
"1197 1204 LINE",
"1052 1204 LINE",
"1052 0 LINE",
"847 0 LINE",
"833 84 LINE",
"671 -31 LINE",
"466 -31 LINE",
"282 -31 LINE",
"197 92 LINE",
"104 228 LINE",
"104 546 LINE",
"104 1085 LINE"
);
},
{
closed = 1;
nodes = (
"814 836 LINE",
"658 874 LINE",
"479 874 LINE",
"409 837 LINE",
"389 794 LINE",
"354 719 LINE",
"354 508 LINE",
"354 321 LINE",
"410 217 LINE",
"487 182 LINE",
"550 182 LINE",
"688 182 LINE",
"814 233 LINE"
);
}
);
width = 1197;
}
);
unicode = 0111;
},
{
glyphname = e;
lastChange = "2020-02-04 19:27:45 +0000";
layers = (
{
anchors = (
{
name = bottom;
position = "{543, 0}";
},
{
name = ogonek;
position = "{977, 10}";
},
{
name = top;
position = "{543, 1055}";
}
);
layerId = UUID0;
paths = (
{
closed = 1;
nodes = (
"590 -31 LINE",
"782 -31 LINE",
"965 37 LINE",
"965 203 LINE",
"828 178 LINE",
"465 178 LINE",
"402 236 LINE",
"340 291 LINE",
"338 434 LINE",
"999 434 LINE",
"1012 554 LINE",
"1012 794 LINE",
"964 898 LINE",
"880 1085 LINE",
"600 1085 LINE",
"377 1085 LINE",
"251 977 LINE",
"94 842 LINE",
"94 539 LINE",
"94 234 LINE",
"224 96 LINE",
"344 -31 LINE"
);
},
{
closed = 1;
nodes = (
"336 756 LINE",
"382 816 LINE",
"435 885 LINE",
"578 885 LINE",
"718 885 LINE",
"762 818 LINE",
"784 785 LINE",
"793 691 LINE",
"793 624 LINE",
"793 612 LINE",
"336 612 LINE"
);
}
);
width = 1085;
}
);
unicode = 0065;
},
{
glyphname = emacron;
lastChange = "2020-02-04 15:55:05 +0000";
layers = (
{
components = (
{
name = e;
}
);
layerId = UUID0;
paths = (
{
closed = 1;
nodes = (
"239 1396 LINE",
"944 1396 LINE",
"944 1200 LINE",
"239 1200 LINE"
);
}
);
width = 1085;
}
);
unicode = 0113;
},
{
glyphname = eogonek;
lastChange = "2020-02-04 15:55:05 +0000";
layers = (
{
layerId = UUID0;
paths = (
{
closed = 1;
nodes = (
"594 -31 LINE",
"590 -31 LINE",
"344 -31 LINE",
"224 96 LINE",
"94 234 LINE",
"94 539 LINE",
"94 842 LINE",
"251 977 LINE",
"377 1085 LINE",
"600 1085 LINE",
"880 1085 LINE",
"964 898 LINE",
"1012 794 LINE",
"1012 554 LINE",
"999 434 LINE",
"338 434 LINE",
"340 291 LINE",
"402 236 LINE",
"465 178 LINE",
"828 178 LINE",
"965 203 LINE",
"965 37 LINE",
"761 -53 LINE",
"715 -165 LINE",
"702 -197 LINE",
"702 -267 LINE",
"752 -317 LINE",
"842 -317 LINE",
"872 -311 LINE",
"872 -479 LINE",
"815 -500 LINE",
"680 -500 LINE",
"588 -472 LINE",
"554 -444 LINE",
"481 -385 LINE",
"481 -149 LINE"
);
},
{
closed = 1;
nodes = (
"578 885 LINE",
"435 885 LINE",
"382 816 LINE",
"336 756 LINE",
"336 612 LINE",
"793 612 LINE",
"793 624 LINE",
"793 691 LINE",
"784 785 LINE",
"762 818 LINE",
"718 885 LINE"
);
}
);
width = 1085;
}
);
unicode = 0119;
},
{
glyphname = schwa;
lastChange = "2020-02-04 19:18:31 +0000";
layers = (
{
layerId = UUID0;
paths = (
{
closed = 1;
nodes = (
"141 1017 LINE",
"324 1085 LINE",
"516 1085 LINE",
"762 1085 LINE",
"882 958 LINE",
"1012 820 LINE",
"1012 515 LINE",
"1012 212 LINE",
"855 77 LINE",
"729 -31 LINE",
"506 -31 LINE",
"226 -31 LINE",
"142 156 LINE",
"94 260 LINE",
"94 500 LINE",
"107 620 LINE",
"768 620 LINE",
"766 763 LINE",
"704 818 LINE",
"641 876 LINE",
"278 876 LINE",
"141 851 LINE"
);
},
{
closed = 1;
nodes = (
"528 169 LINE",
"671 169 LINE",
"724 238 LINE",
"770 298 LINE",
"770 442 LINE",
"313 442 LINE",
"313 430 LINE",
"313 363 LINE",
"322 269 LINE",
"344 236 LINE",
"388 169 LINE"
);
}
);
width = 1085;
}
);
unicode = 0259;
},
{
glyphname = f;
lastChange = "2020-02-04 17:31:28 +0000";
layers = (
{
layerId = UUID0;
paths = (
{
closed = 1;
nodes = (
"475 0 LINE",
"475 858 LINE",
"745 858 LINE",
"745 1055 LINE",
"475 1055 LINE",
"475 1241 LINE",
"475 1309 LINE",
"504 1334 LINE",
"521 1349 LINE",
"577 1362 LINE",
"701 1362 LINE",
"809 1354 LINE",
"809 1530 LINE",
"680 1569 LINE",
"376 1569 LINE",
"304 1481 LINE",
"238 1400 LINE",
"238 1231 LINE",
"238 1055 LINE",
"90 1055 LINE",
"90 858 LINE",
"238 858 LINE",
"238 0 LINE"
);
}
);
width = 775;
}
);
unicode = 0066;
},
{
glyphname = g;
lastChange = "2020-02-04 19:27:45 +0000";
layers = (
{
anchors = (
{
name = bottom;
position = "{614, -500}";
},
{
name = top;
position = "{614, 1055}";
}
);
layerId = UUID0;
paths = (
{
closed = 1;
nodes = (
"848 -500 LINE",
"952 -424 LINE",
"1062 -344 LINE",
"1062 -158 LINE",
"1062 1055 LINE",
"882 1055 LINE",
"855 977 LINE",
"691 1079 LINE",
"497 1079 LINE",
"404 1079 LINE",
"332 1042 LINE",
"114 927 LINE",
"114 532 LINE",
"114 225 LINE",
"208 96 LINE",
"257 30 LINE",
"408 -27 LINE",
"663 -27 LINE",
"824 41 LINE",
"824 -143 LINE",
"824 -231 LINE",
"772 -260 LINE",
"743 -276 LINE",
"638 -289 LINE",
"362 -289 LINE",
"249 -264 LINE",
"249 -438 LINE",
"435 -500 LINE"
);
},
{
closed = 1;
nodes = (
"422 223 LINE",
"364 325 LINE",
"364 522 LINE",
"364 717 LINE",
"405 792 LINE",
"446 866 LINE",
"552 866 LINE",
"682 866 LINE",
"824 815 LINE",
"824 211 LINE",
"718 186 LINE",
"516 186 LINE"
);
}
);
width = 1228;
}
);
unicode = 0067;
},
{
glyphname = h;
lastChange = "2020-02-04 19:27:45 +0000";
layers = (
{
anchors = (
{
name = bottom;
position = "{627, 0}";
},
{
name = center;
position = "{627, 1030}";
},
{
name = top;
position = "{627, 2060}";
}
);
layerId = UUID0;
paths = (
{
closed = 1;
nodes = (
"403 0 LINE",
"403 829 LINE",
"555 866 LINE",
"782 866 LINE",
"826 819 LINE",
"852 792 LINE",
"852 700 LINE",
"852 0 LINE",
"1090 0 LINE",
"1090 729 LINE",
"1090 926 LINE",
"1006 1008 LINE",
"933 1079 LINE",
"776 1079 LINE",
"602 1079 LINE",
"403 1004 LINE",
"403 1554 LINE",
"166 1554 LINE",
"166 0 LINE"
);
}
);
width = 1254;
}
);
unicode = 0068;
},
{
glyphname = hbar;
lastChange = "2020-02-04 15:55:05 +0000";
layers = (
{
layerId = UUID0;
paths = (
{
closed = 1;
nodes = (
"431 829 LINE",
"431 0 LINE",
"194 0 LINE",
"194 1219 LINE",
"60 1219 LINE",
"60 1376 LINE",
"194 1376 LINE",
"194 1554 LINE",
"431 1554 LINE",
"431 1376 LINE",
"712 1376 LINE",
"712 1219 LINE",
"431 1219 LINE",
"431 1004 LINE",
"630 1079 LINE",
"804 1079 LINE",
"961 1079 LINE",
"1034 1008 LINE",
"1118 926 LINE",
"1118 729 LINE",
"1118 0 LINE",
"880 0 LINE",
"880 700 LINE",
"880 792 LINE",
"829 846 LINE",
"756 866 LINE",
"583 866 LINE"
);
}
);
width = 1282;
}
);
unicode = 0127;
},
{
glyphname = i;
lastChange = "2020-02-04 17:31:28 +0000";
layers = (
{
layerId = UUID0;
paths = (
{
closed = 1;
nodes = (
"422 0 LINE",
"422 1055 LINE",
"184 1055 LINE",
"184 0 LINE"
);
},
{
closed = 1;
nodes = (
"303 1234 LINE",
"384 1234 LINE",
"419 1267 LINE",
"441 1287 LINE",
"441 1369 LINE",
"441 1451 LINE",
"407 1485 LINE",
"385 1507 LINE",
"303 1507 LINE",
"262 1507 LINE",
"209 1495 LINE",
"163 1450 LINE",
"163 1369 LINE",
"163 1328 LINE",
"176 1276 LINE",
"222 1234 LINE"
);
}
);
width = 604;
}
);
unicode = 0069;
},
{
glyphname = idotless;
lastChange = "2020-02-04 19:27:45 +0000";
layers = (
{
anchors = (
{
name = bottom;
position = "{282, 0}";
},
{
name = ogonek;
position = "{508, 10}";
},
{
name = top;
position = "{282, 1055}";
}
);
layerId = UUID0;
paths = (
{
closed = 1;
nodes = (
"163 1055 LINE",
"401 1055 LINE",
"401 0 LINE",
"163 0 LINE"
);
}
);
width = 564;
}
);
unicode = 0131;
},
{
glyphname = iacute;
lastChange = "2020-02-04 17:31:28 +0000";
layers = (
{
layerId = UUID0;
paths = (
{
closed = 1;
nodes = (
"266 1187 LINE",
"364 1251 LINE",
"450 1307 LINE",
"500 1341 LINE",
"632 1431 LINE",
"632 1479 LINE",
"632 1508 LINE",
"576 1576 LINE",
"537 1623 LINE",
"493 1647 LINE",
"85 1264 LINE",
"188 1137 LINE"
);
},
{
closed = 1;
nodes = (
"432 0 LINE",
"432 1055 LINE",
"194 1055 LINE",
"194 0 LINE"
);
}
);
width = 633;
}
);
unicode = 00ED;
},
{
glyphname = ibreve;
lastChange = "2020-02-04 15:55:05 +0000";
layers = (
{
layerId = UUID0;
paths = (
{
closed = 1;
nodes = (
"179 1055 LINE",
"417 1055 LINE",
"417 0 LINE",
"179 0 LINE"
);
},
{
closed = 1;
nodes = (
"227 1343 LINE",
"260 1336 LINE",
"337 1336 LINE",
"401 1349 LINE",
"425 1368 LINE",
"477 1408 LINE",
"490 1510 LINE",
"608 1510 LINE",
"613 1474 LINE",
"613 1401 LINE",
"591 1300 LINE",
"552 1254 LINE",
"470 1156 LINE",
"299 1156 LINE",
"129 1156 LINE",
"45 1254 LINE",
"-19 1327 LINE",
"-19 1446 LINE",
"-19 1477 LINE",
"-14 1510 LINE",
"107 1510 LINE",
"123 1365 LINE"
);
}
);
width = 593;
}
);
unicode = 012D;
},
{
glyphname = icircumflex;
lastChange = "2020-02-04 17:31:28 +0000";
layers = (
{
layerId = UUID0;
paths = (
{
closed = 1;
nodes = (
"305 1416 LINE",
"518 1107 LINE",
"635 1164 LINE",
"535 1416 LINE",
"503 1496 LINE",
"436 1531 LINE",
"398 1551 LINE",
"305 1551 LINE",
"261 1551 LINE",
"226 1546 LINE",
"122 1529 LINE",
"76 1416 LINE",
"-25 1164 LINE",
"92 1107 LINE"
);
},
{
closed = 1;
nodes = (
"424 0 LINE",
"424 1055 LINE",
"186 1055 LINE",
"186 0 LINE"
);
}
);
width = 610;
}
);
unicode = 00EE;
},
{
glyphname = idieresis;
lastChange = "2020-02-04 17:31:28 +0000";
layers = (
{
layerId = UUID0;
paths = (
{
closed = 1;
nodes = (
"426 0 LINE",
"426 1055 LINE",
"188 1055 LINE",
"188 0 LINE"
);
},
{
closed = 1;
nodes = (
"169 1165 LINE",
"203 1198 LINE",
"225 1220 LINE",
"225 1303 LINE",
"225 1388 LINE",
"197 1414 LINE",
"181 1429 LINE",
"128 1440 LINE",
"4 1440 LINE",
"-28 1408 LINE",
"-50 1387 LINE",
"-50 1303 LINE",
"-50 1220 LINE",
"-22 1192 LINE",
"-7 1177 LINE",
"45 1165 LINE"
);
},
{
closed = 1;
nodes = (
"600 1165 LINE",
"634 1198 LINE",
"656 1220 LINE",
"656 1303 LINE",
"656 1388 LINE",
"628 1414 LINE",
"612 1429 LINE",
"559 1440 LINE",
"435 1440 LINE",
"402 1408 LINE",
"381 1387 LINE",
"381 1303 LINE",
"381 1220 LINE",
"408 1192 LINE",
"424 1177 LINE",
"476 1165 LINE"
);
}
);
width = 606;
}
);
unicode = 00EF;
},
{
glyphname = igrave;
lastChange = "2020-02-04 17:31:28 +0000";
layers = (
{
layerId = UUID0;
paths = (
{
closed = 1;
nodes = (
"531 1274 LINE",
"138 1642 LINE",
"109 1625 LINE",
"74 1592 LINE",
"1 1524 LINE",
"1 1481 LINE",
"1 1470 LINE",
"3 1462 LINE",
"19 1407 LINE",
"176 1308 LINE",
"203 1292 LINE",
"261 1256 LINE",
"355 1197 LINE",
"431 1151 LINE"
);
},
{
closed = 1;
nodes = (
"435 0 LINE",
"435 1055 LINE",
"197 1055 LINE",
"197 0 LINE"
);
}
);
width = 616;
}
);
unicode = 00EC;
},
{
glyphname = imacron;
lastChange = "2020-02-04 15:55:05 +0000";
layers = (
{
layerId = UUID0;
paths = (
{
closed = 1;
nodes = (
"189 1055 LINE",
"427 1055 LINE",
"427 0 LINE",
"189 0 LINE"
);
},
{
closed = 1;
nodes = (
"-5 1395 LINE",
"620 1395 LINE",
"620 1199 LINE",
"-5 1199 LINE"
);
}
);
width = 615;
}
);
unicode = 012B;
},
{
glyphname = iogonek;
lastChange = "2020-02-04 15:55:05 +0000";
layers = (
{
layerId = UUID0;
paths = (
{
closed = 1;
nodes = (
"432 -311 LINE",
"432 -479 LINE",
"372 -500 LINE",
"239 -500 LINE",
"147 -472 LINE",
"113 -444 LINE",
"40 -385 LINE",
"40 -279 LINE",
"40 -115 LINE",
"196 23 LINE",
"196 1055 LINE",
"434 1055 LINE",
"434 0 LINE",
"262 -110 LINE",
"262 -225 LINE",
"262 -267 LINE",
"311 -317 LINE",
"402 -317 LINE"
);
},
{
closed = 1;
nodes = (
"175 1369 LINE",
"175 1450 LINE",
"221 1495 LINE",
"274 1507 LINE",
"315 1507 LINE",
"397 1507 LINE",
"419 1485 LINE",
"453 1451 LINE",
"453 1369 LINE",
"453 1287 LINE",
"431 1267 LINE",
"396 1234 LINE",
"315 1234 LINE",
"234 1234 LINE",
"188 1276 LINE",
"175 1328 LINE"
);
}
);
width = 616;
}
);
unicode = 012F;
},
{
glyphname = itilde;
lastChange = "2020-02-04 15:55:05 +0000";
layers = (
{
layerId = UUID0;
paths = (
{
closed = 1;
nodes = (
"189 1055 LINE",
"427 1055 LINE",
"427 0 LINE",
"189 0 LINE"
);
},
{
closed = 1;
nodes = (
"-70 1231 LINE",
"-61 1304 LINE",
"4 1370 LINE",
"78 1446 LINE",
"179 1446 LINE",
"253 1446 LINE",
"332 1388 LINE",
"415 1329 LINE",
"451 1332 LINE",
"532 1338 LINE",
"577 1425 LINE",
"686 1356 LINE",
"677 1281 LINE",
"611 1216 LINE",
"534 1141 LINE",
"434 1141 LINE",
"367 1141 LINE",
"283 1197 LINE",
"250 1219 LINE",
"192 1253 LINE",
"159 1253 LINE",
"127 1251 LINE",
"104 1236 LINE",
"61 1208 LINE",
"39 1161 LINE"
);
}
);
width = 616;
}
);
unicode = 0129;
},
{
glyphname = j;
lastChange = "2020-02-04 17:31:28 +0000";
layers = (
{
layerId = UUID0;
paths = (
{
closed = 1;
nodes = (
"210 -498 LINE",
"255 -498 LINE",
"298 -488 LINE",
"448 -455 LINE",
"448 -266 LINE",
"448 1055 LINE",
"210 1055 LINE",
"210 -206 LINE",
"210 -257 LINE",
"181 -276 LINE",
"167 -286 LINE",
"129 -292 LINE",
"17 -292 LINE",
"-40 -286 LINE",
"-40 -451 LINE",
"61 -498 LINE"
);
},
{
closed = 1;
nodes = (
"408 1224 LINE",
"444 1257 LINE",
"467 1278 LINE",
"467 1359 LINE",
"467 1440 LINE",
"438 1469 LINE",
"421 1485 LINE",
"367 1497 LINE",
"245 1497 LINE",
"211 1463 LINE",
"189 1441 LINE",
"189 1359 LINE",
"189 1277 LINE",
"217 1251 LINE",
"233 1236 LINE",
"286 1224 LINE"
);
}
);
width = 630;
}
);
unicode = 006A;
},
{
glyphname = jdotless;
lastChange = "2020-02-04 19:27:45 +0000";
layers = (
{
anchors = (
{
name = bottom;
position = "{305, -500}";
},
{
name = top;
position = "{305, 1055}";
}
);
layerId = UUID0;
paths = (
{
closed = 1;
nodes = (
"-40 -283 LINE",
"20 -289 LINE",
"128 -289 LINE",
"167 -283 LINE",
"181 -274 LINE",
"210 -254 LINE",
"210 -203 LINE",
"210 1055 LINE",
"447 1055 LINE",
"447 -256 LINE",
"447 -388 LINE",
"374 -448 LINE",
"315 -498 LINE",
"59 -498 LINE",
"-40 -459 LINE"
);
}
);
width = 610;
}
);
unicode = 0237;
},
{
glyphname = k;
lastChange = "2020-02-04 19:27:45 +0000";
layers = (
{
anchors = (
{
name = bottom;
position = "{574, 0}";
},
{
name = top;
position = "{574, 2060}";
}
);
layerId = UUID0;
paths = (
{
closed = 1;
nodes = (
"403 0 LINE",
"403 473 LINE",
"531 473 LINE",
"836 0 LINE",
"1107 0 LINE",
"745 563 LINE",
"1105 1055 LINE",
"834 1055 LINE",
"559 670 LINE",
"403 670 LINE",
"403 1554 LINE",
"166 1554 LINE",
"166 0 LINE"
);
}
);
width = 1147;
}
);
unicode = 006B;
},
{
glyphname = kgreenlandic;
lastChange = "2020-02-04 15:55:05 +0000";
layers = (
{
layerId = UUID0;
paths = (
{
closed = 1;
nodes = (
"166 0 LINE",
"166 1055 LINE",
"403 1055 LINE",
"403 677 LINE",
"570 677 LINE",
"812 1055 LINE",
"1085 1055 LINE",
"759 554 LINE",
"1097 0 LINE",
"826 0 LINE",
"559 439 LINE",
"403 439 LINE",
"403 0 LINE"
);
}
);
width = 1147;
}
);
unicode = 0138;
},
{
glyphname = l;
lastChange = "2020-02-04 19:27:45 +0000";
layers = (
{
anchors = (
{
name = bottom;
position = "{285, 0}";
},
{
name = center;
position = "{285, 1030}";
},
{
name = top;
position = "{285, 2060}";
},
{
name = topright;
position = "{549, 2060}";
}
);
layerId = UUID0;
paths = (
{
closed = 1;
nodes = (
"403 0 LINE",
"403 1554 LINE",
"166 1554 LINE",
"166 0 LINE"
);
}
);
width = 569;
}
);
unicode = 006C;
},
{
glyphname = lacute;
lastChange = "2020-02-04 15:55:05 +0000";
layers = (
{
layerId = UUID0;
paths = (
{
closed = 1;
nodes = (
"515 2060 LINE",
"559 2036 LINE",
"598 1989 LINE",
"655 1921 LINE",
"655 1892 LINE",
"655 1864 LINE",
"602 1811 LINE",
"544 1770 LINE",
"505 1744 LINE",
"459 1716 LINE",
"410 1685 LINE",
"331 1638 LINE",
"269 1601 LINE",
"166 1728 LINE"
);
},
{
closed = 1;
nodes = (
"193 1531 LINE",
"430 1531 LINE",
"430 0 LINE",
"193 0 LINE"
);
}
);
width = 601;
}
);
unicode = 013A;
},
{
glyphname = lcaron;
lastChange = "2020-02-04 15:55:05 +0000";
layers = (
{
layerId = UUID0;
paths = (
{
closed = 1;
nodes = (
"602 1559 LINE",
"789 1540 LINE",
"807 1478 LINE",
"809 1470 LINE",
"809 1458 LINE",
"809 1420 LINE",
"748 1291 LINE",
"725 1242 LINE",
"712 1215 LINE",
"661 1110 LINE",
"625 1036 LINE",
"477 1085 LINE"
);
},
{
closed = 1;
nodes = (
"166 1554 LINE",
"403 1554 LINE",
"403 0 LINE",
"166 0 LINE"
);
}
);
width = 750;
}
);
unicode = 013E;
},
{
glyphname = lslash;
lastChange = "2020-02-04 17:31:28 +0000";
layers = (
{
layerId = UUID0;
paths = (
{
closed = 1;
nodes = (
"494 0 LINE",
"494 672 LINE",
"694 807 LINE",
"694 1055 LINE",
"494 922 LINE",
"494 1554 LINE",
"260 1554 LINE",
"260 784 LINE",
"90 676 LINE",
"90 432 LINE",
"260 537 LINE",
"260 0 LINE"
);
}
);
width = 745;
}
);
unicode = 0142;
},
{
glyphname = m;
lastChange = "2020-02-04 19:27:45 +0000";
layers = (
{
anchors = (
{
name = bottom;
position = "{912, 0}";
},
{
name = top;
position = "{912, 1055}";
}
);
layerId = UUID0;
paths = (
{
closed = 1;
nodes = (
"403 0 LINE",
"403 829 LINE",
"527 874 LINE",
"647 874 LINE",
"691 874 LINE",
"748 856 LINE",
"795 799 LINE",
"795 702 LINE",
"795 0 LINE",
"1032 0 LINE",
"1032 727 LINE",
"1032 786 LINE",
"1027 829 LINE",
"1087 849 LINE",
"1128 858 LINE",
"1159 865 LINE",
"1230 874 LINE",
"1316 874 LINE",
"1375 856 LINE",
"1421 801 LINE",
"1421 702 LINE",
"1421 0 LINE",
"1659 0 LINE",
"1659 748 LINE",
"1659 920 LINE",
"1524 1085 LINE",
"1378 1085 LINE",
"1187 1085 LINE",
"987 973 LINE",
"923 1085 LINE",
"571 1085 LINE",
"369 977 LINE",
"340 1055 LINE",
"166 1055 LINE",
"166 0 LINE"
);
}
);
width = 1823;
}
);
unicode = 006D;
},
{
glyphname = n;
lastChange = "2020-02-04 19:27:45 +0000";
layers = (
{
anchors = (
{
name = bottom;
position = "{622, 0}";
},
{
name = top;
position = "{622, 1055}";
}
);
layerId = UUID0;
paths = (
{
closed = 1;
nodes = (
"403 0 LINE",
"403 829 LINE",
"527 874 LINE",
"777 874 LINE",
"818 832 LINE",
"842 808 LINE",
"842 719 LINE",
"842 0 LINE",
"1079 0 LINE",
"1079 748 LINE",
"1079 922 LINE",
"930 1085 LINE",
"774 1085 LINE",
"567 1085 LINE",
"369 977 LINE",
"340 1055 LINE",
"166 1055 LINE",
"166 0 LINE"
);
}
);
width = 1243;
}
);
unicode = 006E;
},
{
glyphname = eng;
lastChange = "2020-02-04 15:55:05 +0000";
layers = (
{
layerId = UUID0;
paths = (
{
closed = 1;
nodes = (
"592 -283 LINE",
"652 -289 LINE",
"760 -289 LINE",
"799 -283 LINE",
"813 -274 LINE",
"842 -254 LINE",
"842 -203 LINE",
"842 719 LINE",
"842 808 LINE",
"818 832 LINE",
"777 874 LINE",
"527 874 LINE",
"403 829 LINE",
"403 0 LINE",
"166 0 LINE",
"166 1055 LINE",
"340 1055 LINE",
"369 977 LINE",
"567 1085 LINE",
"774 1085 LINE",
"930 1085 LINE",
"1079 922 LINE",
"1079 748 LINE",
"1079 -256 LINE",
"1079 -388 LINE",
"1006 -448 LINE",
"947 -498 LINE",
"691 -498 LINE",
"592 -459 LINE"
);
}
);
width = 1243;
}
);
unicode = 014B;
},
{
glyphname = o;
lastChange = "2020-02-04 19:27:45 +0000";
layers = (
{
anchors = (
{
name = bottom;
position = "{594, 0}";
},
{
name = center;
position = "{594, 528}";
},
{
name = ogonek;
position = "{1069, 10}";
},
{
name = top;
position = "{594, 1055}";
},
{
name = topright;
position = "{1168, 1055}";
}
);
layerId = UUID0;
paths = (
{
closed = 1;
nodes = (
"594 -31 LINE",
"1094 -31 LINE",
"1094 528 LINE",
"1094 1085 LINE",
"594 1085 LINE",
"94 1085 LINE",
"94 528 LINE",
"94 -31 LINE"
);
},
{
closed = 1;
nodes = (
"390 262 LINE",
"363 308 LINE",
"344 441 LINE",
"344 528 LINE",
"344 716 LINE",
"390 792 LINE",
"446 885 LINE",
"594 885 LINE",
"743 885 LINE",
"798 792 LINE",
"844 715 LINE",
"844 528 LINE",
"844 340 LINE",
"798 262 LINE",
"743 170 LINE",
"594 170 LINE",
"446 170 LINE"
);
}
);
width = 1188;
}
);
unicode = 006F;
},
{
glyphname = omacron;
lastChange = "2020-02-04 15:55:05 +0000";
layers = (
{
components = (
{
name = o;
}
);
layerId = UUID0;
paths = (
{
closed = 1;
nodes = (
"241 1415 LINE",
"946 1415 LINE",
"946 1219 LINE",
"241 1219 LINE"
);
}
);
width = 1188;
}
);
unicode = 014D;
},
{
glyphname = oslash;
lastChange = "2020-02-04 17:31:28 +0000";
layers = (
{
layerId = UUID0;
paths = (
{
closed = 1;
nodes = (
"323 -172 LINE",
"408 -7 LINE",
"489 -31 LINE",
"594 -31 LINE",
"1094 -31 LINE",
"1094 528 LINE",
"1094 859 LINE",
"920 992 LINE",
"1044 1233 LINE",
"885 1233 LINE",
"794 1057 LINE",
"708 1085 LINE",
"594 1085 LINE",
"94 1085 LINE",
"94 528 LINE",
"94 185 LINE",
"280 53 LINE",
"164 -172 LINE"
);
},
{
closed = 1;
nodes = (
"344 345 LINE",
"344 528 LINE",
"344 716 LINE",
"390 792 LINE",
"418 838 LINE",
"516 885 LINE",
"655 885 LINE",
"699 870 LINE",
"389 265 LINE"
);
},
{
closed = 1;
nodes = (
"504 180 LINE",
"808 773 LINE",
"844 696 LINE",
"844 340 LINE",
"798 262 LINE",
"771 217 LINE",
"673 170 LINE",
"541 170 LINE"
);
}
);
width = 1200;
}
);
unicode = 00F8;
},
{
glyphname = oe;
lastChange = "2020-02-04 17:31:28 +0000";
layers = (
{
layerId = UUID0;
paths = (
{
closed = 1;
nodes = (
"590 -31 LINE",
"831 -31 LINE",
"952 127 LINE",
"1066 -27 LINE",
"1339 -27 LINE",
"1533 -27 LINE",
"1714 37 LINE",
"1714 205 LINE",
"1576 180 LINE",
"1219 180 LINE",
"1152 244 LINE",
"1092 301 LINE",
"1090 434 LINE",
"1749 434 LINE",
"1762 554 LINE",
"1762 794 LINE",
"1714 898 LINE",
"1630 1085 LINE",
"1350 1085 LINE",
"1101 1085 LINE",
"971 922 LINE",
"863 1085 LINE",
"590 1085 LINE",
"459 1085 LINE",
"366 1048 LINE",
"94 941 LINE",
"94 528 LINE",
"94 394 LINE",
"122 290 LINE",
"210 -31 LINE"
);
},
{
closed = 1;
nodes = (
"386 262 LINE",
"358 308 LINE",
"338 441 LINE",
"338 528 LINE",
"338 714 LINE",
"386 792 LINE",
"441 885 LINE",
"590 885 LINE",
"740 885 LINE",
"797 792 LINE",
"846 713 LINE",
"846 528 LINE",
"846 342 LINE",
"797 262 LINE",
"740 170 LINE",
"590 170 LINE",
"441 170 LINE"
);
},
{
closed = 1;
nodes = (
"1087 758 LINE",
"1132 816 LINE",
"1185 885 LINE",
"1327 885 LINE",
"1469 885 LINE",
"1512 818 LINE",
"1533 785 LINE",
"1542 691 LINE",
"1542 624 LINE",
"1542 612 LINE",
"1087 612 LINE"
);
}
);
width = 1835;
}
);
unicode = 0153;
},
{
glyphname = p;
lastChange = "2020-02-04 19:27:45 +0000";
layers = (
{
anchors = (
{
name = bottom;
position = "{609, 0}";
},
{
name = top;
position = "{609, 1055}";
}
);
layerId = UUID0;
paths = (
{
closed = 1;
nodes = (
"403 -485 LINE",
"403 41 LINE",
"558 -31 LINE",
"725 -31 LINE",
"818 -31 LINE",
"889 -2 LINE",
"1106 85 LINE",
"1106 528 LINE",
"1106 820 LINE",
"1024 954 LINE",
"943 1085 LINE",
"774 1085 LINE",
"567 1085 LINE",
"369 977 LINE",
"340 1055 LINE",
"166 1055 LINE",
"166 -485 LINE"
);
},
{
closed = 1;
nodes = (
"403 211 LINE",
"403 829 LINE",
"546 874 LINE",
"782 874 LINE",
"820 798 LINE",
"856 727 LINE",
"856 535 LINE",
"856 314 LINE",
"812 245 LINE",
"787 207 LINE",
"702 182 LINE",
"496 182 LINE"
);
}
);
width = 1218;
}
);
unicode = 0070;
},
{
glyphname = thorn;
lastChange = "2020-02-04 17:31:28 +0000";
layers = (
{
layerId = UUID0;
paths = (
{
closed = 1;
nodes = (
"403 -485 LINE",
"403 72 LINE",
"458 36 LINE",
"530 10 LINE",
"575 -7 LINE",
"684 -31 LINE",
"833 -31 LINE",
"902 -2 LINE",
"1116 89 LINE",
"1116 532 LINE",
"1116 809 LINE",
"1042 938 LINE",
"958 1085 LINE",
"756 1085 LINE",
"579 1085 LINE",
"403 1010 LINE",
"403 1554 LINE",
"166 1554 LINE",
"166 -485 LINE"
);
},
{
closed = 1;
nodes = (
"403 238 LINE",
"403 836 LINE",
"544 874 LINE",
"720 874 LINE",
"807 843 LINE",
"852 763 LINE",
"866 626 LINE",
"866 327 LINE",
"828 256 LINE",
"787 182 LINE",
"670 182 LINE",
"515 182 LINE"
);
}
);
width = 1228;
}
);
unicode = 00FE;
},
{
glyphname = q;
lastChange = "2020-02-04 19:27:45 +0000";
layers = (
{
anchors = (
{
name = bottom;
position = "{610, 0}";
},
{
name = top;
position = "{610, 1055}";
}
);
layerId = UUID0;
paths = (
{
closed = 1;
nodes = (
"1054 -485 LINE",
"1054 1055 LINE",
"880 1055 LINE",
"853 977 LINE",
"677 1085 LINE",
"486 1085 LINE",
"393 1085 LINE",
"323 1052 LINE",
"114 953 LINE",
"114 528 LINE",
"114 223 LINE",
"212 92 LINE",
"302 -31 LINE",
"497 -31 LINE",
"661 -31 LINE",
"816 41 LINE",
"816 -485 LINE"
);
},
{
closed = 1;
nodes = (
"433 207 LINE",
"383 283 LINE",
"364 422 LINE",
"364 736 LINE",
"402 803 LINE",
"425 842 LINE",
"502 874 LINE",
"681 874 LINE",
"816 829 LINE",
"816 211 LINE",
"726 182 LINE",
"518 182 LINE"
);
}
);
width = 1220;
}
);
unicode = 0071;
},
{
glyphname = r;
lastChange = "2020-02-04 19:27:45 +0000";
layers = (
{
anchors = (
{
name = bottom;
position = "{408, 0}";
},
{
name = top;
position = "{408, 1055}";
}
);
layerId = UUID0;
paths = (
{
closed = 1;
nodes = (
"403 0 LINE",
"403 768 LINE",
"515 813 LINE",
"776 817 LINE",
"778 1063 LINE",
"556 1052 LINE",
"385 940 LINE",
"371 1055 LINE",
"166 1055 LINE",
"166 0 LINE"
);
}
);
width = 816;
}
);
unicode = 0072;
},
{
glyphname = s;
lastChange = "2020-02-04 19:27:45 +0000";
layers = (
{
anchors = (
{
name = bottom;
position = "{518, 0}";
},
{
name = top;
position = "{518, 1055}";
}
);
layerId = UUID0;
paths = (
{
closed = 1;
nodes = (
"638 -31 LINE",
"810 14 LINE",
"904 98 LINE",
"935 220 LINE",
"935 297 LINE",
"935 457 LINE",
"880 525 LINE",
"828 589 LINE",
"691 616 LINE",
"462 659 LINE",
"391 672 LINE",
"360 708 LINE",
"343 727 LINE",
"343 780 LINE",
"343 842 LINE",
"388 865 LINE",
"413 878 LINE",
"499 889 LINE",
"703 889 LINE",
"877 860 LINE",
"877 1030 LINE",
"719 1085 LINE",
"339 1085 LINE",
"118 922 LINE",
"118 603 LINE",
"176 536 LINE",
"235 468 LINE",
"388 442 LINE",
"609 401 LINE",
"667 392 LINE",
"686 364 LINE",
"696 350 LINE",
"701 317 LINE",
"701 259 LINE",
"687 209 LINE",
"638 180 LINE",
"542 168 LINE",
"270 168 LINE",
"116 203 LINE",
"116 37 LINE",
"302 -31 LINE"
);
}
);
width = 1035;
}
);
unicode = 0073;
},
{
glyphname = scedilla;
lastChange = "2020-02-04 15:55:05 +0000";
layers = (
{
layerId = UUID0;
paths = (
{
closed = 1;
nodes = (
"877 860 LINE",
"703 889 LINE",
"499 889 LINE",
"413 878 LINE",
"388 865 LINE",
"343 842 LINE",
"343 780 LINE",
"343 727 LINE",
"360 708 LINE",
"391 672 LINE",
"462 659 LINE",
"691 616 LINE",
"828 589 LINE",
"880 525 LINE",
"935 457 LINE",
"935 297 LINE",
"935 150 LINE",
"880 81 LINE",
"812 -5 LINE",
"635 -24 LINE",
"611 -107 LINE",
"620 -106 LINE",
"658 -106 LINE",
"690 -116 LINE",
"758 -138 LINE",
"778 -216 LINE",
"782 -235 LINE",
"782 -281 LINE",
"766 -361 LINE",
"725 -434 LINE",
"691 -457 LINE",
"627 -500 LINE",
"492 -500 LINE",
"399 -500 LINE",
"293 -461 LINE",
"328 -328 LINE",
"388 -343 LINE",
"527 -343 LINE",
"554 -331 LINE",
"589 -315 LINE",
"589 -271 LINE",
"589 -210 LINE",
"488 -210 LINE",
"460 -210 LINE",
"398 -218 LINE",
"379 -220 LINE",
"429 -28 LINE",
"258 -15 LINE",
"116 37 LINE",
"116 203 LINE",
"270 168 LINE",
"542 168 LINE",
"638 180 LINE",
"687 209 LINE",
"701 259 LINE",
"701 317 LINE",
"696 350 LINE",
"686 364 LINE",
"667 392 LINE",
"609 401 LINE",
"388 442 LINE",
"235 468 LINE",
"176 536 LINE",
"118 603 LINE",
"118 922 LINE",
"339 1085 LINE",
"719 1085 LINE",
"877 1030 LINE"
);
}
);
width = 1035;
}
);
unicode = 015F;
},
{
glyphname = germandbls;
lastChange = "2020-02-04 17:31:28 +0000";
layers = (
{
layerId = UUID0;
paths = (
{
closed = 1;
nodes = (
"828 -21 LINE",
"964 25 LINE",
"1015 72 LINE",
"1125 175 LINE",
"1125 358 LINE",
"1125 557 LINE",
"1026 666 LINE",
"963 734 LINE",
"886 758 LINE",
"881 760 LINE",
"881 772 LINE",
"886 774 LINE",
"937 788 LINE",
"994 856 LINE",
"1072 952 LINE",
"1072 1098 LINE",
"1072 1255 LINE",
"978 1346 LINE",
"865 1456 LINE",
"630 1456 LINE",
"383 1456 LINE",
"272 1340 LINE",
"175 1238 LINE",
"175 1040 LINE",
"175 0 LINE",
"415 0 LINE",
"415 1038 LINE",
"415 1150 LINE",
"463 1198 LINE",
"509 1243 LINE",
"628 1243 LINE",
"756 1243 LINE",
"796 1208 LINE",
"820 1187 LINE",
"839 1116 LINE",
"839 972 LINE",
"782 906 LINE",
"758 879 LINE",
"702 841 LINE",
"664 818 LINE",
"658 774 LINE",
"656 754 LINE",
"657 711 LINE",
"662 672 LINE",
"672 644 LINE",
"713 624 LINE",
"785 590 LINE",
"845 535 LINE",
"884 446 LINE",
"884 275 LINE",
"832 226 LINE",
"807 203 LINE",
"739 181 LINE",
"607 181 LINE",
"513 196 LINE",
"509 20 LINE",
"608 -21 LINE"
);
}
);
width = 1220;
}
);
unicode = 00DF;
},
{
glyphname = t;
lastChange = "2020-02-04 19:27:45 +0000";
layers = (
{
anchors = (
{
name = bottom;
position = "{432, 0}";
},
{
name = center;
position = "{432, 528}";
},
{
name = top;
position = "{432, 1055}";
},
{
name = topright;
position = "{844, 1055}";
}
);
layerId = UUID0;
paths = (
{
closed = 1;
nodes = (
"660 -31 LINE",
"782 18 LINE",
"782 176 LINE",
"715 166 LINE",
"528 166 LINE",
"497 197 LINE",
"477 217 LINE",
"477 291 LINE",
"477 858 LINE",
"743 858 LINE",
"743 1055 LINE",
"477 1055 LINE",
"477 1331 LINE",
"240 1278 LINE",
"240 1055 LINE",
"84 1055 LINE",
"84 858 LINE",
"240 858 LINE",
"240 215 LINE",
"240 87 LINE",
"304 30 LINE",
"337 -1 LINE",
"444 -31 LINE"
);
}
);
width = 864;
}
);
unicode = 0074;
},
{
glyphname = tbar;
lastChange = "2020-02-04 15:55:05 +0000";
layers = (
{
layerId = UUID0;
paths = (
{
closed = 1;
nodes = (
"801 18 LINE",
"678 -31 LINE",
"463 -31 LINE",
"356 -1 LINE",
"322 30 LINE",
"259 87 LINE",
"259 215 LINE",
"259 462 LINE",
"103 462 LINE",
"103 646 LINE",
"259 646 LINE",
"259 868 LINE",
"103 868 LINE",
"103 1055 LINE",
"259 1055 LINE",
"259 1278 LINE",
"496 1331 LINE",
"496 1055 LINE",
"762 1055 LINE",
"762 868 LINE",
"496 868 LINE",
"496 646 LINE",
"763 646 LINE",
"763 462 LINE",
"496 462 LINE",
"496 291 LINE",
"496 217 LINE",
"516 197 LINE",
"547 166 LINE",
"734 166 LINE",
"801 176 LINE"
);
}
);
width = 891;
}
);
unicode = 0167;
},
{
glyphname = tcaron;
lastChange = "2020-02-04 15:55:05 +0000";
layers = (
{
layerId = UUID0;
paths = (
{
closed = 1;
nodes = (
"661 1676 LINE",
"848 1657 LINE",
"866 1596 LINE",
"868 1587 LINE",
"868 1575 LINE",
"868 1537 LINE",
"807 1408 LINE",
"784 1359 LINE",
"771 1332 LINE",
"720 1227 LINE",
"684 1153 LINE",
"536 1202 LINE"
);
},
{
closed = 1;
nodes = (
"780 18 LINE",
"658 -31 LINE",
"442 -31 LINE",
"335 -1 LINE",
"302 30 LINE",
"238 87 LINE",
"238 215 LINE",
"238 858 LINE",
"82 858 LINE",
"82 1055 LINE",
"238 1055 LINE",
"238 1278 LINE",
"475 1331 LINE",
"475 1055 LINE",
"741 1055 LINE",
"741 858 LINE",
"475 858 LINE",
"475 291 LINE",
"475 217 LINE",
"495 197 LINE",
"526 166 LINE",
"713 166 LINE",
"780 176 LINE"
);
}
);
width = 860;
}
);
unicode = 0165;
},
{
glyphname = u;
lastChange = "2020-02-04 19:27:45 +0000";
layers = (
{
anchors = (
{
name = bottom;
position = "{623, 0}";
},
{
name = ogonek;
position = "{1121, 10}";
},
{
name = top;
position = "{623, 1055}";
},
{
name = topright;
position = "{1225, 1055}";
}
);
layerId = UUID0;
paths = (
{
closed = 1;
nodes = (
"471 -31 LINE",
"553 -31 LINE",
"771 19 LINE",
"877 78 LINE",
"905 0 LINE",
"1079 0 LINE",
"1079 1055 LINE",
"842 1055 LINE",
"842 225 LINE",
"724 182 LINE",
"467 182 LINE",
"426 223 LINE",
"403 247 LINE",
"403 336 LINE",
"403 1055 LINE",
"166 1055 LINE",
"166 309 LINE",
"166 134 LINE",
"316 -31 LINE"
);
}
);
width = 1245;
}
);
unicode = 0075;
},
{
glyphname = umacron;
lastChange = "2020-02-04 15:55:05 +0000";
layers = (
{
components = (
{
name = u;
}
);
layerId = UUID0;
paths = (
{
closed = 1;
nodes = (
"270 1415 LINE",
"975 1415 LINE",
"975 1219 LINE",
"270 1219 LINE"
);
}
);
width = 1245;
}
);
unicode = 016B;
},
{
glyphname = uogonek;
lastChange = "2020-02-04 15:55:05 +0000";
layers = (
{
layerId = UUID0;
paths = (
{
closed = 1;
nodes = (
"1078 -311 LINE",
"1078 -479 LINE",
"1018 -500 LINE",
"885 -500 LINE",
"793 -472 LINE",
"759 -444 LINE",
"686 -385 LINE",
"686 -279 LINE",
"686 -126 LINE",
"826 8 LINE",
"860 40 LINE",
"884 58 LINE",
"877 78 LINE",
"771 19 LINE",
"553 -31 LINE",
"471 -31 LINE",
"316 -31 LINE",
"166 134 LINE",
"166 309 LINE",
"166 1055 LINE",
"403 1055 LINE",
"403 336 LINE",
"403 247 LINE",
"426 223 LINE",
"467 182 LINE",
"724 182 LINE",
"842 225 LINE",
"842 1055 LINE",
"1079 1055 LINE",
"1079 0 LINE",
"1080 0 LINE",
"908 -110 LINE",
"908 -225 LINE",
"908 -267 LINE",
"957 -317 LINE",
"1048 -317 LINE"
);
}
);
width = 1246;
}
);
unicode = 0173;
},
{
glyphname = v;
lastChange = "2020-02-04 17:31:28 +0000";
layers = (
{
layerId = UUID0;
paths = (
{
closed = 1;
nodes = (
"682 0 LINE",
"1046 1055 LINE",
"788 1055 LINE",
"528 221 LINE",
"524 221 LINE",
"264 1055 LINE",
"6 1055 LINE",
"371 0 LINE"
);
}
);
width = 1052;
}
);
unicode = 0076;
},
{
glyphname = w;
lastChange = "2020-02-04 19:27:45 +0000";
layers = (
{
anchors = (
{
name = bottom;
position = "{777, 0}";
},
{
name = top;
position = "{777, 1055}";
}
);
layerId = UUID0;
paths = (
{
closed = 1;
nodes = (
"614 0 LINE",
"772 829 LINE",
"788 829 LINE",
"964 0 LINE",
"1276 0 LINE",
"1542 1055 LINE",
"1335 1055 LINE",
"1134 211 LINE",
"1120 211 LINE",
"954 1055 LINE",
"629 1055 LINE",
"463 211 LINE",
"446 211 LINE",
"250 1055 LINE",
"12 1055 LINE",
"287 0 LINE"
);
}
);
width = 1554;
}
);
unicode = 0077;
},
{
glyphname = x;
lastChange = "2020-02-04 17:31:28 +0000";
layers = (
{
layerId = UUID0;
paths = (
{
closed = 1;
nodes = (
"262 0 LINE",
"520 354 LINE",
"765 0 LINE",
"1048 0 LINE",
"673 542 LINE",
"1028 1055 LINE",
"770 1055 LINE",
"546 726 LINE",
"319 1055 LINE",
"36 1055 LINE",
"393 537 LINE",
"4 0 LINE"
);
}
);
width = 1052;
}
);
unicode = 0078;
},
{
glyphname = y;
lastChange = "2020-02-04 19:27:45 +0000";
layers = (
{
anchors = (
{
name = bottom;
position = "{545, 0}";
},
{
name = top;
position = "{545, 1055}";
}
);
layerId = UUID0;
paths = (
{
closed = 1;
nodes = (
"450 -500 LINE",
"581 -374 LINE",
"637 -219 LINE",
"1089 1055 LINE",
"827 1055 LINE",
"555 209 LINE",
"547 209 LINE",
"276 1055 LINE",
"12 1055 LINE",
"379 0 LINE",
"481 0 LINE",
"416 -178 LINE",
"390 -247 LINE",
"356 -277 LINE",
"337 -293 LINE",
"286 -307 LINE",
"169 -307 LINE",
"127 -301 LINE",
"127 -465 LINE",
"214 -500 LINE"
);
}
);
width = 1089;
}
);
unicode = 0079;
},
{
glyphname = z;
lastChange = "2020-02-04 19:27:45 +0000";
layers = (
{
anchors = (
{
name = bottom;
position = "{546, 0}";
},
{
name = center;
position = "{546, 528}";
},
{
name = top;
position = "{546, 1055}";
}
);
layerId = UUID0;
paths = (
{
closed = 1;
nodes = (
"991 0 LINE",
"991 209 LINE",
"442 209 LINE",
"442 211 LINE",
"979 905 LINE",
"979 1055 LINE",
"137 1055 LINE",
"137 852 LINE",
"651 852 LINE",
"651 850 LINE",
"117 158 LINE",
"117 0 LINE"
);
}
);
width = 1092;
}
);
unicode = 007A;
},
{
glyphname = f_f;
lastChange = "2020-02-04 19:18:31 +0000";
layers = (
{
layerId = UUID0;
paths = (
{
closed = 1;
nodes = (
"920 1480 LINE",
"996 1569 LINE",
"1370 1569 LINE",
"1511 1516 LINE",
"1511 1343 LINE",
"1344 1362 LINE",
"1216 1362 LINE",
"1142 1343 LINE",
"1124 1326 LINE",
"1097 1300 LINE",
"1097 1231 LINE",
"1097 1055 LINE",
"1362 1055 LINE",
"1362 860 LINE",
"1097 860 LINE",
"1097 0 LINE",
"858 0 LINE",
"858 860 LINE",
"475 860 LINE",
"475 0 LINE",
"237 0 LINE",
"237 860 LINE",
"90 860 LINE",
"90 1055 LINE",
"237 1055 LINE",
"237 1178 LINE",
"237 1507 LINE",
"653 1507 LINE",
"803 1507 LINE"
);
},
{
closed = 1;
nodes = (
"858 1286 LINE",
"756 1292 LINE",
"634 1292 LINE",
"546 1270 LINE",
"520 1250 LINE",
"475 1213 LINE",
"475 1141 LINE",
"475 1055 LINE",
"858 1055 LINE"
);
}
);
width = 1477;
}
);
},
{
glyphname = f_f_i;
lastChange = "2020-02-04 19:20:37 +0000";
layers = (
{
layerId = UUID0;
paths = (
{
closed = 1;
nodes = (
"237 860 LINE",
"237 0 LINE",
"475 0 LINE",
"475 860 LINE",
"858 860 LINE",
"858 0 LINE",
"1097 0 LINE",
"1097 860 LINE",
"1509 860 LINE",
"1509 0 LINE",
"1747 0 LINE",
"1747 1055 LINE",
"1097 1055 LINE",
"1097 1300 LINE",
"1118 1320 LINE",
"1150 1342 LINE",
"1177 1361 LINE",
"1265 1376 LINE",
"1450 1376 LINE",
"1634 1358 LINE",
"1634 1546 LINE",
"1450 1591 LINE",
"1192 1591 LINE",
"1112 1576 LINE",
"941 1450 LINE",
"803 1507 LINE",
"237 1507 LINE",
"237 1055 LINE",
"90 1055 LINE",
"90 860 LINE"
);
},
{
closed = 1;
nodes = (
"475 1213 LINE",
"520 1250 LINE",
"546 1270 LINE",
"634 1292 LINE",
"756 1292 LINE",
"858 1286 LINE",
"858 1055 LINE",
"475 1055 LINE"
);
}
);
width = 1910;
}
);
leftMetricsKey = f;
rightMetricsKey = i;
},
{
glyphname = f_f_l;
lastChange = "2020-02-04 19:22:07 +0000";
layers = (
{
layerId = UUID0;
paths = (
{
closed = 1;
nodes = (
"237 860 LINE",
"237 0 LINE",
"475 0 LINE",
"475 860 LINE",
"710 860 LINE",
"710 858 LINE",
"857 858 LINE",
"857 0 LINE",
"1097 0 LINE",
"1097 858 LINE",
"1519 858 LINE",
"1519 0 LINE",
"1756 0 LINE",
"1756 1516 LINE",
"1547 1587 LINE",
"1229 1587 LINE",
"1142 1573 LINE",
"999 1422 LINE",
"803 1507 LINE",
"379 1507 LINE",
"237 1178 LINE",
"237 1055 LINE",
"90 1055 LINE",
"90 860 LINE"
);
},
{
closed = 1;
nodes = (
"475 1213 LINE",
"520 1250 LINE",
"546 1270 LINE",
"634 1292 LINE",
"756 1292 LINE",
"858 1286 LINE",
"858 1273 LINE",
"857 1272 LINE",
"857 1055 LINE",
"475 1055 LINE"
);
},
{
closed = 1;
nodes = (
"1097 1300 LINE",
"1124 1326 LINE",
"1175 1361 LINE",
"1262 1376 LINE",
"1404 1376 LINE",
"1519 1365 LINE",
"1519 1055 LINE",
"1097 1055 LINE"
);
}
);
width = 1922;
}
);
leftMetricsKey = f;
rightMetricsKey = l;
},
{
glyphname = fi;
lastChange = "2020-02-04 17:31:28 +0000";
layers = (
{
layerId = UUID0;
paths = (
{
closed = 1;
nodes = (
"503 0 LINE",
"503 860 LINE",
"915 860 LINE",
"915 0 LINE",
"1153 0 LINE",
"1153 1055 LINE",
"503 1055 LINE",
"503 1215 LINE",
"503 1306 LINE",
"556 1342 LINE",
"583 1361 LINE",
"671 1376 LINE",
"856 1376 LINE",
"1040 1358 LINE",
"1040 1546 LINE",
"856 1591 LINE",
"598 1591 LINE",
"518 1576 LINE",
"264 1528 LINE",
"264 1235 LINE",
"264 1055 LINE",
"90 1055 LINE",
"90 860 LINE",
"264 860 LINE",
"264 0 LINE"
);
}
);
width = 1316;
}
);
unicode = FB01;
},
{
glyphname = fl;
lastChange = "2020-02-04 17:31:28 +0000";
layers = (
{
layerId = UUID0;
paths = (
{
closed = 1;
nodes = (
"475 0 LINE",
"475 858 LINE",
"899 858 LINE",
"899 0 LINE",
"1136 0 LINE",
"1136 1516 LINE",
"927 1587 LINE",
"712 1587 LINE",
"609 1587 LINE",
"522 1573 LINE",
"237 1527 LINE",
"237 1272 LINE",
"237 1055 LINE",
"90 1055 LINE",
"90 858 LINE",
"237 858 LINE",
"237 0 LINE"
);
},
{
closed = 1;
nodes = (
"475 1231 LINE",
"475 1312 LINE",
"528 1344 LINE",
"555 1361 LINE",
"642 1376 LINE",
"784 1376 LINE",
"899 1365 LINE",
"899 1055 LINE",
"475 1055 LINE"
);
}
);
width = 1302;
}
);
unicode = FB02;
},
{
glyphname = ordfeminine;
lastChange = "2020-02-04 17:31:28 +0000";
layers = (
{
layerId = UUID0;
paths = (
{
closed = 1;
nodes = (
"347 639 LINE",
"474 639 LINE",
"570 725 LINE",
"586 659 LINE",
"731 659 LINE",
"731 1036 LINE",
"731 1162 LINE",
"718 1224 LINE",
"690 1359 LINE",
"569 1387 LINE",
"501 1403 LINE",
"270 1403 LINE",
"131 1358 LINE",
"131 1237 LINE",
"271 1253 LINE",
"412 1253 LINE",
"452 1249 LINE",
"547 1239 LINE",
"547 1135 LINE",
"547 1049 LINE",
"433 1087 LINE",
"210 1087 LINE",
"95 980 LINE",
"95 860 LINE",
"95 639 LINE"
);
},
{
closed = 1;
nodes = (
"308 797 LINE",
"287 816 LINE",
"279 847 LINE",
"279 913 LINE",
"300 929 LINE",
"312 938 LINE",
"355 946 LINE",
"455 946 LINE",
"547 934 LINE",
"547 817 LINE",
"466 788 LINE",
"343 788 LINE"
);
}
);
width = 804;
}
);
unicode = 00AA;
},
{
glyphname = ordmasculine;
lastChange = "2020-02-04 17:31:28 +0000";
layers = (
{
layerId = UUID0;
paths = (
{
closed = 1;
nodes = (
"419 659 LINE",
"505 659 LINE",
"572 678 LINE",
"775 734 LINE",
"775 1040 LINE",
"775 1251 LINE",
"683 1342 LINE",
"601 1423 LINE",
"419 1423 LINE",
"333 1423 LINE",
"266 1404 LINE",
"60 1348 LINE",
"60 1040 LINE",
"60 829 LINE",
"153 740 LINE",
"238 659 LINE"
);
},
{
closed = 1;
nodes = (
"288 863 LINE",
"268 889 LINE",
"249 977 LINE",
"249 1169 LINE",
"288 1220 LINE",
"325 1270 LINE",
"419 1270 LINE",
"513 1270 LINE",
"550 1220 LINE",
"570 1194 LINE",
"589 1106 LINE",
"589 914 LINE",
"550 863 LINE",
"513 815 LINE",
"419 815 LINE",
"325 815 LINE"
);
}
);
width = 835;
}
);
unicode = 00BA;
},
{
glyphname = Delta;
lastChange = "2020-02-04 17:34:42 +0000";
layers = (
{
layerId = UUID0;
paths = (
{
closed = 1;
nodes = (
"182 0 LINE",
"182 151 LINE",
"676 1393 LINE",
"840 1393 LINE",
"1333 151 LINE",
"1333 0 LINE"
);
},
{
closed = 1;
nodes = (
"443 226 LINE",
"1072 226 LINE",
"766 984 LINE",
"758 1014 LINE",
"749 984 LINE"
);
}
);
width = 1537;
}
);
unicode = 0394;
},
{
glyphname = Omega;
lastChange = "2020-02-04 17:35:06 +0000";
layers = (
{
layerId = UUID0;
paths = (
{
closed = 1;
nodes = (
"1522 0 LINE",
"943 0 LINE",
"934 -3 LINE",
"934 138 LINE",
"1195 353 LINE",
"1248 574 LINE",
"1265 647 LINE",
"1265 823 LINE",
"1225 989 LINE",
"1176 1050 LINE",
"1071 1182 LINE",
"834 1182 LINE",
"495 1182 LINE",
"435 906 LINE",
"417 823 LINE",
"417 647 LINE",
"453 500 LINE",
"492 428 LINE",
"571 285 LINE",
"749 138 LINE",
"749 -3 LINE",
"739 0 LINE",
"160 0 LINE",
"160 224 LINE",
"400 224 LINE",
"255 379 LINE",
"210 582 LINE",
"194 651 LINE",
"194 888 LINE",
"276 1137 LINE",
"356 1222 LINE",
"521 1394 LINE",
"834 1394 LINE",
"1149 1394 LINE",
"1320 1222 LINE",
"1489 1050 LINE",
"1489 726 LINE",
"1489 444 LINE",
"1283 224 LINE",
"1522 224 LINE"
);
}
);
width = 1706;
}
);
unicode = 03A9;
},
{
glyphname = mu;
lastChange = "2020-02-04 17:35:14 +0000";
layers = (
{
layerId = UUID0;
paths = (
{
closed = 1;
nodes = (
"543 -20 LINE",
"458 -20 LINE",
"387 24 LINE",
"387 -485 LINE",
"166 -485 LINE",
"166 1055 LINE",
"387 1055 LINE",
"387 465 LINE",
"387 303 LINE",
"442 213 LINE",
"524 180 LINE",
"723 180 LINE",
"831 227 LINE",
"831 1055 LINE",
"1065 1055 LINE",
"1065 262 LINE",
"1065 171 LINE",
"1099 157 LINE",
"1111 152 LINE",
"1217 152 LINE",
"1247 158 LINE",
"1247 14 LINE",
"1136 -31 LINE",
"1032 -31 LINE",
"897 -31 LINE",
"861 95 LINE",
"730 -20 LINE"
);
}
);
width = 1298;
}
);
unicode = 03BC;
},
{
glyphname = pi;
lastChange = "2020-02-04 17:31:28 +0000";
layers = (
{
layerId = UUID0;
paths = (
{
closed = 1;
nodes = (
"1211 0 LINE",
"1211 156 LINE",
"1172 161 LINE",
"1101 175 LINE",
"1046 221 LINE",
"1014 310 LINE",
"1014 391 LINE",
"1014 396 LINE",
"1014 822 LINE",
"1211 822 LINE",
"1211 1033 LINE",
"37 1033 LINE",
"37 822 LINE",
"212 822 LINE",
"212 1 LINE",
"430 1 LINE",
"430 822 LINE",
"785 822 LINE",
"785 325 LINE",
"785 179 LINE",
"880 88 LINE",
"1001 -30 LINE"
);
}
);
width = 1365;
}
);
unicode = 03C0;
},
{
glyphname = zero;
lastChange = "2020-02-04 17:31:28 +0000";
layers = (
{
layerId = UUID0;
paths = (
{
closed = 1;
nodes = (
"688 -31 LINE",
"782 -31 LINE",
"858 -16 LINE",
"1011 16 LINE",
"1095 128 LINE",
"1220 295 LINE",
"1220 727 LINE",
"1220 1155 LINE",
"1094 1314 LINE",
"1030 1395 LINE",
"828 1458 LINE",
"547 1458 LINE",
"346 1395 LINE",
"216 1232 LINE",
"155 948 LINE",
"155 580 LINE",
"168 466 LINE",
"208 139 LINE",
"382 35 LINE",
"493 -31 LINE"
);
},
{
closed = 1;
nodes = (
"466 320 LINE",
"413 434 LINE",
"413 727 LINE",
"413 1016 LINE",
"466 1119 LINE",
"523 1233 LINE",
"688 1233 LINE",
"854 1233 LINE",
"912 1118 LINE",
"964 1014 LINE",
"964 727 LINE",
"964 435 LINE",
"912 321 LINE",
"851 190 LINE",
"688 190 LINE",
"526 190 LINE"
);
}
);
width = 1375;
}
);
unicode = 0030;
},
{
glyphname = one;
lastChange = "2020-02-04 17:31:28 +0000";
layers = (
{
layerId = UUID0;
paths = (
{
closed = 1;
nodes = (
"587 0 LINE",
"587 1427 LINE",
"153 1427 LINE",
"86 1204 LINE",
"348 1204 LINE",
"348 0 LINE"
);
}
);
width = 816;
}
);
unicode = 0031;
},
{
glyphname = two;
lastChange = "2020-02-04 17:31:28 +0000";
layers = (
{
layerId = UUID0;
paths = (
{
closed = 1;
nodes = (
"987 0 LINE",
"987 223 LINE",
"459 223 LINE",
"459 225 LINE",
"744 490 LINE",
"874 702 LINE",
"935 804 LINE",
"987 978 LINE",
"987 1155 LINE",
"964 1231 LINE",
"895 1458 LINE",
"545 1458 LINE",
"329 1458 LINE",
"148 1384 LINE",
"148 1200 LINE",
"328 1233 LINE",
"619 1233 LINE",
"682 1184 LINE",
"738 1139 LINE",
"738 1036 LINE",
"738 900 LINE",
"595 700 LINE",
"460 512 LINE",
"105 143 LINE",
"105 0 LINE"
);
}
);
width = 1151;
}
);
unicode = 0032;
},
{
glyphname = three;
lastChange = "2020-02-04 17:31:28 +0000";
layers = (
{
layerId = UUID0;
paths = (
{
closed = 1;
nodes = (
"749 -33 LINE",
"860 59 LINE",
"921 109 LINE",
"986 275 LINE",
"986 540 LINE",
"929 628 LINE",
"862 730 LINE",
"704 748 LINE",
"704 750 LINE",
"757 752 LINE",
"806 778 LINE",
"949 854 LINE",
"949 1069 LINE",
"949 1458 LINE",
"543 1458 LINE",
"338 1458 LINE",
"142 1384 LINE",
"142 1212 LINE",
"316 1241 LINE",
"575 1241 LINE",
"639 1200 LINE",
"672 1178 LINE",
"701 1108 LINE",
"702 1053 LINE",
"702 992 LINE",
"677 911 LINE",
"636 886 LINE",
"558 838 LINE",
"312 838 LINE",
"310 625 LINE",
"434 622 LINE",
"599 609 LINE",
"697 566 LINE",
"736 479 LINE",
"736 405 LINE",
"736 273 LINE",
"654 227 LINE",
"615 205 LINE",
"503 190 LINE",
"294 190 LINE",
"130 213 LINE",
"130 33 LINE",
"328 -33 LINE"
);
}
);
width = 1135;
}
);
unicode = 0033;
},
{
glyphname = four;
lastChange = "2020-02-04 17:31:28 +0000";
layers = (
{
layerId = UUID0;
paths = (
{
closed = 1;
nodes = (
"971 0 LINE",
"971 292 LINE",
"1124 292 LINE",
"1124 505 LINE",
"971 505 LINE",
"971 1427 LINE",
"612 1427 LINE",
"65 450 LINE",
"65 292 LINE",
"733 292 LINE",
"733 0 LINE"
);
},
{
closed = 1;
nodes = (
"729 1237 LINE",
"735 1237 LINE",
"733 505 LINE",
"330 505 LINE"
);
}
);
width = 1224;
}
);
unicode = 0034;
},
{
glyphname = five;
lastChange = "2020-02-04 17:31:28 +0000";
layers = (
{
layerId = UUID0;
paths = (
{
closed = 1;
nodes = (
"518 -31 LINE",
"620 -31 LINE",
"708 -11 LINE",
"995 55 LINE",
"995 424 LINE",
"995 696 LINE",
"894 801 LINE",
"844 854 LINE",
"693 895 LINE",
"521 895 LINE",
"425 883 LINE",
"425 1204 LINE",
"948 1204 LINE",
"948 1430 LINE",
"188 1430 LINE",
"188 649 LINE",
"358 678 LINE",
"590 678 LINE",
"678 654 LINE",
"704 626 LINE",
"749 576 LINE",
"749 308 LINE",
"678 250 LINE",
"641 219 LINE",
"524 190 LINE",
"286 190 LINE",
"145 211 LINE",
"145 35 LINE",
"305 -31 LINE"
);
}
);
width = 1129;
}
);
unicode = 0035;
},
{
glyphname = six;
lastChange = "2020-02-04 17:31:28 +0000";
layers = (
{
layerId = UUID0;
paths = (
{
closed = 1;
nodes = (
"610 -31 LINE",
"723 -31 LINE",
"811 -6 LINE",
"1083 73 LINE",
"1083 446 LINE",
"1083 699 LINE",
"988 814 LINE",
"905 915 LINE",
"739 915 LINE",
"555 915 LINE",
"393 836 LINE",
"393 969 LINE",
"393 1137 LINE",
"464 1188 LINE",
"501 1216 LINE",
"621 1233 LINE",
"844 1233 LINE",
"983 1208 LINE",
"983 1386 LINE",
"836 1456 LINE",
"370 1456 LINE",
"256 1318 LINE",
"155 1195 LINE",
"155 950 LINE",
"155 399 LINE",
"155 -31 LINE"
);
},
{
closed = 1;
nodes = (
"434 252 LINE",
"393 306 LINE",
"393 449 LINE",
"393 662 LINE",
"501 700 LINE",
"671 700 LINE",
"757 682 LINE",
"784 656 LINE",
"835 605 LINE",
"835 455 LINE",
"835 308 LINE",
"790 251 LINE",
"741 190 LINE",
"610 190 LINE",
"479 190 LINE"
);
}
);
width = 1187;
}
);
unicode = 0036;
},
{
glyphname = seven;
lastChange = "2020-02-04 17:31:28 +0000";
layers = (
{
layerId = UUID0;
paths = (
{
closed = 1;
nodes = (
"475 0 LINE",
"1003 1270 LINE",
"1003 1427 LINE",
"65 1427 LINE",
"65 1204 LINE",
"720 1204 LINE",
"720 1200 LINE",
"198 0 LINE"
);
}
);
width = 1073;
}
);
unicode = 0037;
},
{
glyphname = eight;
lastChange = "2020-02-04 17:31:28 +0000";
layers = (
{
layerId = UUID0;
paths = (
{
closed = 1;
nodes = (
"626 -29 LINE",
"859 -29 LINE",
"970 55 LINE",
"1034 103 LINE",
"1105 272 LINE",
"1105 575 LINE",
"1018 668 LINE",
"960 729 LINE",
"899 741 LINE",
"899 743 LINE",
"962 762 LINE",
"1006 814 LINE",
"1034 847 LINE",
"1073 956 LINE",
"1073 1129 LINE",
"1052 1206 LINE",
"986 1456 LINE",
"630 1456 LINE",
"384 1456 LINE",
"276 1338 LINE",
"225 1283 LINE",
"184 1129 LINE",
"184 956 LINE",
"204 901 LINE",
"253 765 LINE",
"358 743 LINE",
"358 741 LINE",
"322 734 LINE",
"286 709 LINE",
"149 616 LINE",
"149 406 LINE",
"149 156 LINE",
"282 55 LINE",
"394 -29 LINE"
);
},
{
closed = 1;
nodes = (
"452 225 LINE",
"393 271 LINE",
"393 406 LINE",
"393 542 LINE",
"452 594 LINE",
"503 641 LINE",
"628 641 LINE",
"754 641 LINE",
"806 594 LINE",
"835 568 LINE",
"864 477 LINE",
"864 334 LINE",
"835 248 LINE",
"758 188 LINE",
"628 188 LINE",
"499 188 LINE"
);
},
{
closed = 1;
nodes = (
"464 875 LINE",
"415 923 LINE",
"415 1038 LINE",
"415 1151 LINE",
"464 1198 LINE",
"511 1243 LINE",
"628 1243 LINE",
"746 1243 LINE",
"792 1198 LINE",
"839 1151 LINE",
"839 1038 LINE",
"839 922 LINE",
"792 875 LINE",
"744 827 LINE",
"628 827 LINE",
"512 827 LINE"
);
}
);
width = 1254;
}
);
unicode = 0038;
},
{
glyphname = nine;
lastChange = "2020-02-04 17:31:28 +0000";
layers = (
{
layerId = UUID0;
paths = (
{
closed = 1;
nodes = (
"530 -31 LINE",
"811 -31 LINE",
"928 58 LINE",
"1045 146 LINE",
"1045 350 LINE",
"1045 799 LINE",
"1045 929 LINE",
"1038 1028 LINE",
"1019 1321 LINE",
"880 1402 LINE",
"786 1456 LINE",
"588 1456 LINE",
"346 1456 LINE",
"238 1358 LINE",
"115 1246 LINE",
"115 973 LINE",
"115 719 LINE",
"210 602 LINE",
"294 498 LINE",
"459 498 LINE",
"656 498 LINE",
"805 567 LINE",
"805 389 LINE",
"805 278 LINE",
"730 235 LINE",
"692 213 LINE",
"570 195 LINE",
"328 195 LINE",
"205 217 LINE",
"205 27 LINE",
"379 -31 LINE"
);
},
{
closed = 1;
nodes = (
"440 733 LINE",
"412 761 LINE",
"359 814 LINE",
"359 973 LINE",
"359 1131 LINE",
"409 1184 LINE",
"456 1233 LINE",
"588 1233 LINE",
"715 1233 LINE",
"760 1183 LINE",
"805 1133 LINE",
"805 983 LINE",
"805 741 LINE",
"699 713 LINE",
"526 713 LINE"
);
}
);
width = 1200;
}
);
unicode = 0039;
},
{
glyphname = onesuperior;
lastChange = "2020-02-04 17:31:28 +0000";
layers = (
{
layerId = UUID0;
paths = (
{
closed = 1;
nodes = (
"446 672 LINE",
"446 1554 LINE",
"106 1554 LINE",
"65 1386 LINE",
"259 1386 LINE",
"259 672 LINE"
);
}
);
width = 574;
}
);
unicode = 00B9;
},
{
glyphname = twosuperior;
lastChange = "2020-02-04 17:31:28 +0000";
layers = (
{
layerId = UUID0;
paths = (
{
closed = 1;
nodes = (
"651 672 LINE",
"651 840 LINE",
"342 840 LINE",
"342 842 LINE",
"647 1085 LINE",
"647 1309 LINE",
"647 1373 LINE",
"626 1421 LINE",
"564 1567 LINE",
"362 1567 LINE",
"209 1567 LINE",
"92 1524 LINE",
"92 1393 LINE",
"227 1407 LINE",
"286 1407 LINE",
"456 1407 LINE",
"456 1274 LINE",
"456 1232 LINE",
"407 1136 LINE",
"277 979 LINE",
"65 791 LINE",
"65 672 LINE"
);
}
);
width = 711;
}
);
unicode = 00B2;
},
{
glyphname = threesuperior;
lastChange = "2020-02-04 17:31:28 +0000";
layers = (
{
layerId = UUID0;
paths = (
{
closed = 1;
nodes = (
"471 659 LINE",
"546 716 LINE",
"587 746 LINE",
"631 848 LINE",
"631 1022 LINE",
"582 1078 LINE",
"559 1106 LINE",
"500 1128 LINE",
"500 1133 LINE",
"518 1137 LINE",
"537 1150 LINE",
"607 1198 LINE",
"607 1317 LINE",
"607 1453 LINE",
"524 1514 LINE",
"485 1543 LINE",
"376 1567 LINE",
"197 1567 LINE",
"68 1524 LINE",
"68 1399 LINE",
"213 1413 LINE",
"351 1413 LINE",
"429 1363 LINE",
"429 1303 LINE",
"429 1274 LINE",
"408 1232 LINE",
"337 1192 LINE",
"212 1190 LINE",
"212 1049 LINE",
"351 1043 LINE",
"396 1021 LINE",
"422 1008 LINE",
"443 966 LINE",
"443 871 LINE",
"407 847 LINE",
"386 833 LINE",
"313 819 LINE",
"169 819 LINE",
"66 829 LINE",
"66 696 LINE",
"177 659 LINE"
);
}
);
width = 676;
}
);
unicode = 00B3;
},
{
glyphname = fraction;
lastChange = "2020-02-04 17:31:28 +0000";
layers = (
{
layerId = UUID0;
paths = (
{
closed = 1;
nodes = (
"251 0 LINE",
"894 1554 LINE",
"653 1554 LINE",
"10 0 LINE"
);
}
);
width = 924;
}
);
unicode = 2044;
},
{
glyphname = onehalf;
lastChange = "2020-02-04 17:31:28 +0000";
layers = (
{
layerId = UUID0;
paths = (
{
closed = 1;
nodes = (
"442 0 LINE",
"1147 1554 LINE",
"961 1554 LINE",
"256 0 LINE"
);
},
{
closed = 1;
nodes = (
"373 672 LINE",
"373 1554 LINE",
"33 1554 LINE",
"-8 1386 LINE",
"186 1386 LINE",
"186 672 LINE"
);
},
{
closed = 1;
nodes = (
"1548 0 LINE",
"1548 168 LINE",
"1239 168 LINE",
"1239 170 LINE",
"1375 281 LINE",
"1446 376 LINE",
"1489 434 LINE",
"1544 565 LINE",
"1544 701 LINE",
"1524 749 LINE",
"1461 895 LINE",
"1259 895 LINE",
"1106 895 LINE",
"989 852 LINE",
"989 721 LINE",
"1129 735 LINE",
"1184 735 LINE",
"1354 735 LINE",
"1354 602 LINE",
"1354 523 LINE",
"1238 384 LINE",
"1172 303 LINE",
"962 119 LINE",
"962 0 LINE"
);
}
);
width = 1559;
}
);
unicode = 00BD;
},
{
glyphname = onequarter;
lastChange = "2020-02-04 17:31:28 +0000";
layers = (
{
layerId = UUID0;
paths = (
{
closed = 1;
nodes = (
"428 0 LINE",
"1132 1554 LINE",
"946 1554 LINE",
"241 0 LINE"
);
},
{
closed = 1;
nodes = (
"381 672 LINE",
"381 1554 LINE",
"41 1554 LINE",
"0 1386 LINE",
"194 1386 LINE",
"194 672 LINE"
);
},
{
closed = 1;
nodes = (
"1375 0 LINE",
"1375 156 LINE",
"1489 156 LINE",
"1489 312 LINE",
"1375 312 LINE",
"1375 883 LINE",
"1082 883 LINE",
"787 279 LINE",
"787 156 LINE",
"1188 156 LINE",
"1188 0 LINE"
);
},
{
closed = 1;
nodes = (
"1182 741 LINE",
"1188 741 LINE",
"1188 312 LINE",
"988 312 LINE"
);
}
);
width = 1499;
}
);
unicode = 00BC;
},
{
glyphname = threequarters;
lastChange = "2020-02-04 17:31:28 +0000";
layers = (
{
layerId = UUID0;
paths = (
{
closed = 1;
nodes = (
"584 0 LINE",
"1289 1554 LINE",
"1102 1554 LINE",
"398 0 LINE"
);
},
{
closed = 1;
nodes = (
"445 659 LINE",
"520 716 LINE",
"561 746 LINE",
"605 848 LINE",
"605 1022 LINE",
"556 1078 LINE",
"533 1106 LINE",
"474 1128 LINE",
"474 1133 LINE",
"492 1137 LINE",
"511 1150 LINE",
"581 1198 LINE",
"581 1317 LINE",
"581 1453 LINE",
"498 1514 LINE",
"459 1543 LINE",
"350 1567 LINE",
"171 1567 LINE",
"42 1524 LINE",
"42 1399 LINE",
"187 1413 LINE",
"325 1413 LINE",
"403 1363 LINE",
"403 1303 LINE",
"403 1274 LINE",
"382 1232 LINE",
"311 1192 LINE",
"186 1190 LINE",
"186 1049 LINE",
"325 1043 LINE",
"370 1021 LINE",
"396 1008 LINE",
"417 966 LINE",
"417 871 LINE",
"381 847 LINE",
"360 833 LINE",
"287 819 LINE",
"143 819 LINE",
"40 829 LINE",
"40 696 LINE",
"151 659 LINE"
);
},
{
closed = 1;
nodes = (
"1508 0 LINE",
"1508 156 LINE",
"1622 156 LINE",
"1622 312 LINE",
"1508 312 LINE",
"1508 883 LINE",
"1215 883 LINE",
"920 279 LINE",
"920 156 LINE",
"1321 156 LINE",
"1321 0 LINE"
);
},
{
closed = 1;
nodes = (
"1315 741 LINE",
"1321 741 LINE",
"1321 312 LINE",
"1121 312 LINE"
);
}
);
width = 1632;
}
);
unicode = 00BE;
},
{
glyphname = period;
lastChange = "2020-02-04 17:31:28 +0000";
layers = (
{
layerId = UUID0;
paths = (
{
closed = 1;
nodes = (
"348 -14 LINE",
"378 16 LINE",
"395 34 LINE",
"409 93 LINE",
"409 231 LINE",
"378 262 LINE",
"361 279 LINE",
"301 291 LINE",
"163 291 LINE",
"134 262 LINE",
"116 245 LINE",
"103 186 LINE",
"103 93 LINE",
"116 34 LINE",
"151 -1 LINE",
"210 -14 LINE"
);
}
);
width = 512;
}
);
unicode = 002E;
},
{
glyphname = comma;
lastChange = "2020-02-04 17:31:28 +0000";
layers = (
{
layerId = UUID0;
paths = (
{
closed = 1;
nodes = (
"261 -357 LINE",
"332 -220 LINE",
"365 -156 LINE",
"411 -5 LINE",
"411 181 LINE",
"385 225 LINE",
"369 252 LINE",
"308 281 LINE",
"168 281 LINE",
"136 250 LINE",
"119 232 LINE",
"105 172 LINE",
"105 54 LINE",
"158 -11 LINE",
"218 -19 LINE",
"217 -58 LINE",
"207 -101 LINE",
"176 -235 LINE",
"103 -334 LINE",
"193 -399 LINE"
);
}
);
width = 512;
}
);
unicode = 002C;
},
{
glyphname = ellipsis;
lastChange = "2020-02-04 17:31:28 +0000";
layers = (
{
layerId = UUID0;
paths = (
{
closed = 1;
nodes = (
"1372 -14 LINE",
"1402 16 LINE",
"1419 34 LINE",
"1433 93 LINE",
"1433 231 LINE",
"1402 262 LINE",
"1385 279 LINE",
"1325 291 LINE",
"1187 291 LINE",
"1158 262 LINE",
"1140 245 LINE",
"1127 186 LINE",
"1127 93 LINE",
"1140 34 LINE",
"1175 -1 LINE",
"1234 -14 LINE"
);
},
{
closed = 1;
nodes = (
"348 -14 LINE",
"378 16 LINE",
"395 34 LINE",
"409 93 LINE",
"409 231 LINE",
"378 262 LINE",
"361 279 LINE",
"301 291 LINE",
"163 291 LINE",
"134 262 LINE",
"116 245 LINE",
"103 186 LINE",
"103 93 LINE",
"116 34 LINE",
"151 -1 LINE",
"210 -14 LINE"
);
},
{
closed = 1;
nodes = (
"860 -14 LINE",
"890 16 LINE",
"907 34 LINE",
"921 93 LINE",
"921 231 LINE",
"890 262 LINE",
"873 279 LINE",
"813 291 LINE",
"675 291 LINE",
"646 262 LINE",
"628 245 LINE",
"615 186 LINE",
"615 93 LINE",
"628 34 LINE",
"663 -1 LINE",
"722 -14 LINE"
);
}
);
width = 1536;
}
);
unicode = 2026;
},
{
glyphname = exclam;
lastChange = "2020-02-04 17:31:28 +0000";
layers = (
{
layerId = UUID0;
paths = (
{
closed = 1;
nodes = (
"412 436 LINE",
"412 1427 LINE",
"172 1427 LINE",
"172 436 LINE"
);
},
{
closed = 1;
nodes = (
"384 -14 LINE",
"414 16 LINE",
"431 34 LINE",
"445 93 LINE",
"445 231 LINE",
"414 262 LINE",
"397 279 LINE",
"337 291 LINE",
"199 291 LINE",
"170 262 LINE",
"152 245 LINE",
"139 186 LINE",
"139 93 LINE",
"152 34 LINE",
"187 -1 LINE",
"246 -14 LINE"
);
}
);
width = 513;
}
);
unicode = 0021;
},
{
glyphname = question;
lastChange = "2020-02-04 17:31:28 +0000";
layers = (
{
layerId = UUID0;
paths = (
{
closed = 1;
nodes = (
"583 422 LINE",
"583 600 LINE",
"736 631 LINE",
"820 712 LINE",
"869 760 LINE",
"929 909 LINE",
"929 1149 LINE",
"893 1232 LINE",
"799 1450 LINE",
"501 1450 LINE",
"295 1450 LINE",
"143 1398 LINE",
"116 1389 LINE",
"116 1208 LINE",
"286 1237 LINE",
"376 1237 LINE",
"547 1237 LINE",
"611 1194 LINE",
"685 1146 LINE",
"685 1016 LINE",
"685 884 LINE",
"601 828 LINE",
"532 783 LINE",
"345 768 LINE",
"345 422 LINE"
);
},
{
closed = 1;
nodes = (
"557 -14 LINE",
"587 16 LINE",
"604 34 LINE",
"618 93 LINE",
"618 231 LINE",
"587 262 LINE",
"570 279 LINE",
"510 291 LINE",
"372 291 LINE",
"342 262 LINE",
"325 245 LINE",
"312 186 LINE",
"312 93 LINE",
"325 34 LINE",
"360 -1 LINE",
"419 -14 LINE"
);
}
);
width = 1026;
}
);
unicode = 003F;
},
{
glyphname = bullet;
lastChange = "2020-02-04 17:31:28 +0000";
layers = (
{
layerId = UUID0;
paths = (
{
closed = 1;
nodes = (
"326 344 LINE",
"461 344 LINE",
"507 390 LINE",
"553 435 LINE",
"553 569 LINE",
"553 704 LINE",
"507 750 LINE",
"461 795 LINE",
"326 795 LINE",
"194 795 LINE",
"148 750 LINE",
"123 724 LINE",
"102 637 LINE",
"102 570 LINE",
"102 436 LINE",
"148 390 LINE",
"194 344 LINE"
);
}
);
width = 689;
}
);
unicode = 2022;
},
{
glyphname = asterisk;
lastChange = "2020-02-04 17:31:28 +0000";
layers = (
{
layerId = UUID0;
paths = (
{
closed = 1;
nodes = (
"758 860 LINE",
"577 1085 LINE",
"860 1165 LINE",
"797 1362 LINE",
"526 1260 LINE",
"537 1554 LINE",
"334 1554 LINE",
"342 1268 LINE",
"68 1366 LINE",
"6 1174 LINE",
"283 1094 LINE",
"102 862 LINE",
"268 741 LINE",
"428 979 LINE",
"592 739 LINE"
);
}
);
width = 866;
}
);
unicode = 002A;
},
{
glyphname = numbersign;
lastChange = "2020-02-04 17:31:28 +0000";
layers = (
{
layerId = UUID0;
paths = (
{
closed = 1;
nodes = (
"381 0 LINE",
"467 376 LINE",
"741 376 LINE",
"655 0 LINE",
"865 0 LINE",
"951 376 LINE",
"1203 376 LINE",
"1203 560 LINE",
"993 560 LINE",
"1064 869 LINE",
"1307 869 LINE",
"1307 1053 LINE",
"1107 1053 LINE",
"1193 1428 LINE",
"983 1428 LINE",
"897 1053 LINE",
"623 1053 LINE",
"709 1428 LINE",
"499 1428 LINE",
"413 1053 LINE",
"164 1053 LINE",
"164 869 LINE",
"370 869 LINE",
"299 560 LINE",
"60 560 LINE",
"60 376 LINE",
"257 376 LINE",
"171 0 LINE"
);
},
{
closed = 1;
nodes = (
"580 869 LINE",
"854 869 LINE",
"783 560 LINE",
"509 560 LINE"
);
}
);
width = 1319;
}
);
unicode = 0023;
},
{
glyphname = slash;
lastChange = "2020-02-04 17:31:28 +0000";
layers = (
{
layerId = UUID0;
paths = (
{
closed = 1;
nodes = (
"251 0 LINE",
"894 1554 LINE",
"653 1554 LINE",
"10 0 LINE"
);
}
);
width = 924;
}
);
unicode = 002F;
},
{
glyphname = parenleft;
lastChange = "2020-02-04 17:31:28 +0000";
layers = (
{
layerId = UUID0;
paths = (
{
closed = 1;
nodes = (
"608 -266 LINE",
"544 -151 LINE",
"494 0 LINE",
"381 344 LINE",
"381 727 LINE",
"381 842 LINE",
"390 946 LINE",
"432 1404 LINE",
"608 1722 LINE",
"422 1722 LINE",
"256 1548 LINE",
"180 1189 LINE",
"159 1093 LINE",
"135 862 LINE",
"135 470 LINE",
"180 264 LINE",
"256 -90 LINE",
"422 -266 LINE"
);
}
);
width = 648;
}
);
unicode = 0028;
},
{
glyphname = braceleft;
lastChange = "2020-02-04 17:31:28 +0000";
layers = (
{
layerId = UUID0;
paths = (
{
closed = 1;
nodes = (
"662 -297 LINE",
"756 -270 LINE",
"756 -100 LINE",
"664 -100 LINE",
"556 -90 LINE",
"500 -52 LINE",
"485 21 LINE",
"485 84 LINE",
"485 582 LINE",
"485 644 LINE",
"462 686 LINE",
"408 784 LINE",
"315 805 LINE",
"367 821 LINE",
"410 859 LINE",
"485 926 LINE",
"485 1030 LINE",
"485 1528 LINE",
"485 1590 LINE",
"500 1663 LINE",
"572 1712 LINE",
"756 1712 LINE",
"756 1882 LINE",
"656 1907 LINE",
"369 1907 LINE",
"311 1830 LINE",
"256 1756 LINE",
"256 1599 LINE",
"256 1165 LINE",
"256 1024 LINE",
"207 965 LINE",
"178 931 LINE",
"82 911 LINE",
"82 700 LINE",
"179 680 LINE",
"213 638 LINE",
"256 585 LINE",
"256 444 LINE",
"256 12 LINE",
"256 -146 LINE",
"311 -220 LINE",
"340 -258 LINE",
"436 -297 LINE"
);
}
);
width = 772;
}
);
unicode = 007B;
},
{
glyphname = bracketleft;
lastChange = "2020-02-04 17:31:28 +0000";
layers = (
{
layerId = UUID0;
paths = (
{
closed = 1;
nodes = (
"680 -330 LINE",
"680 -104 LINE",
"416 -104 LINE",
"416 1718 LINE",
"680 1718 LINE",
"680 1944 LINE",
"182 1944 LINE",
"182 -330 LINE"
);
}
);
width = 680;
}
);
unicode = 005B;
},
{
glyphname = hyphen;
lastChange = "2020-02-04 17:31:28 +0000";
layers = (
{
layerId = UUID0;
paths = (
{
closed = 1;
nodes = (
"734 475 LINE",
"734 702 LINE",
"60 702 LINE",
"60 475 LINE"
);
}
);
width = 794;
}
);
unicode = 002D;
},
{
glyphname = endash;
lastChange = "2020-02-04 17:31:28 +0000";
layers = (
{
layerId = UUID0;
paths = (
{
closed = 1;
nodes = (
"1080 475 LINE",
"1080 702 LINE",
"60 702 LINE",
"60 475 LINE"
);
}
);
width = 1140;
}
);
unicode = 2013;
},
{
glyphname = emdash;
lastChange = "2020-02-04 17:31:28 +0000";
layers = (
{
layerId = UUID0;
paths = (
{
closed = 1;
nodes = (
"2106 475 LINE",
"2106 702 LINE",
"60 702 LINE",
"60 475 LINE"
);
}
);
width = 2166;
}
);
unicode = 2014;
},
{
glyphname = underscore;
lastChange = "2020-02-04 17:31:28 +0000";
layers = (
{
layerId = UUID0;
paths = (
{
closed = 1;
nodes = (
"985 -248 LINE",
"985 -78 LINE",
"-10 -78 LINE",
"-10 -248 LINE"
);
}
);
width = 975;
}
);
unicode = 005F;
},
{
glyphname = guilsinglleft;
lastChange = "2020-02-04 17:31:28 +0000";
layers = (
{
layerId = UUID0;
paths = (
{
closed = 1;
nodes = (
"570 358 LINE",
"297 532 LINE",
"297 557 LINE",
"570 731 LINE",
"570 1004 LINE",
"113 688 LINE",
"113 401 LINE",
"570 86 LINE"
);
}
);
width = 684;
}
);
unicode = 2039;
},
{
glyphname = guilsinglright;
lastChange = "2020-02-04 17:31:28 +0000";
layers = (
{
layerId = UUID0;
paths = (
{
closed = 1;
nodes = (
"570 401 LINE",
"570 688 LINE",
"113 1004 LINE",
"113 731 LINE",
"386 557 LINE",
"386 532 LINE",
"113 358 LINE",
"113 86 LINE"
);
}
);
width = 684;
}
);
unicode = 203A;
},
{
color = (31,255,0,255);
glyphname = quotedbl;
lastChange = "2020-02-04 17:31:28 +0000";
layers = (
{
layerId = UUID0;
paths = (
{
closed = 1;
nodes = (
"722 1054 LINE",
"745 1630 LINE",
"507 1630 LINE",
"530 1054 LINE"
);
},
{
closed = 1;
nodes = (
"329 1054 LINE",
"352 1630 LINE",
"114 1630 LINE",
"137 1054 LINE"
);
}
);
width = 860;
}
);
unicode = 0022;
},
{
color = (31,255,0,255);
glyphname = quotesingle;
lastChange = "2020-02-04 17:31:28 +0000";
layers = (
{
layerId = UUID0;
paths = (
{
closed = 1;
nodes = (
"352 1055 LINE",
"375 1630 LINE",
"137 1630 LINE",
"160 1055 LINE"
);
}
);
width = 513;
}
);
unicode = 0027;
},
{
glyphname = .notdef;
lastChange = "2020-02-04 19:18:31 +0000";
layers = (
{
layerId = UUID0;
paths = (
{
closed = 1;
nodes = (
"436 1554 LINE",
"678 1432 LINE",
"981 664 LINE",
"1004 601 LINE",
"1004 576 LINE",
"1004 542 LINE",
"1001 512 LINE",
"940 135 LINE",
"921 5 LINE",
"872 5 LINE",
"840 5 LINE",
"760 68 LINE",
"459 299 LINE",
"400 349 LINE",
"373 422 LINE",
"74 1188 LINE",
"166 1448 LINE"
);
},
{
closed = 1;
nodes = (
"387 1075 LINE",
"643 438 LINE",
"660 438 LINE",
"723 466 LINE",
"736 471 LINE",
"762 482 LINE",
"776 492 LINE",
"524 1130 LINE",
"453 1104 LINE"
);
},
{
closed = 1;
nodes = (
"522 1227 LINE",
"584 1374 LINE",
"430 1456 LINE",
"231 1378 LINE",
"174 1217 LINE",
"326 1149 LINE"
);
},
{
closed = 1;
nodes = (
"203 1104 LINE",
"269 936 LINE",
"394 609 LINE",
"459 440 LINE",
"479 432 LINE",
"543 432 LINE",
"295 1063 LINE"
);
},
{
closed = 1;
nodes = (
"852 551 LINE",
"881 583 LINE",
"899 610 LINE",
"641 1276 LINE",
"598 1182 LINE"
);
},
{
closed = 1;
nodes = (
"811 186 LINE",
"836 196 LINE",
"854 222 LINE",
"860 244 LINE",
"860 242 LINE",
"865 258 LINE",
"872 304 LINE",
"882 368 LINE",
"889 412 LINE",
"897 463 LINE",
"842 403 LINE",
"745 367 LINE",
"661 334 LINE",
"573 334 LINE",
"567 334 LINE",
"745 199 LINE",
"771 182 LINE",
"800 182 LINE",
"813 186 LINE"
);
},
{
closed = 1;
nodes = (
"268 1268 LINE",
"265 1275 LINE",
"265 1290 LINE",
"271 1313 LINE",
"283 1328 LINE",
"311 1363 LINE",
"376 1387 LINE",
"408 1392 LINE",
"428 1392 LINE",
"443 1389 LINE",
"493 1381 LINE",
"493 1338 LINE",
"493 1299 LINE",
"448 1266 LINE",
"400 1229 LINE",
"283 1229 LINE"
);
}
);
width = 1092;
}
);
},
{
glyphname = cent;
lastChange = "2020-02-04 17:31:28 +0000";
layers = (
{
layerId = UUID0;
paths = (
{
closed = 1;
nodes = (
"686 -205 LINE",
"686 -19 LINE",
"798 -3 LINE",
"877 37 LINE",
"877 203 LINE",
"785 184 LINE",
"482 184 LINE",
"419 246 LINE",
"344 321 LINE",
"344 530 LINE",
"344 737 LINE",
"410 808 LINE",
"444 844 LINE",
"552 870 LINE",
"709 870 LINE",
"868 856 LINE",
"868 1020 LINE",
"803 1051 LINE",
"686 1070 LINE",
"686 1270 LINE",
"450 1270 LINE",
"450 1069 LINE",
"286 1039 LINE",
"196 913 LINE",
"94 772 LINE",
"94 528 LINE",
"94 42 LINE",
"450 -18 LINE",
"450 -205 LINE"
);
}
);
width = 965;
}
);
unicode = 00A2;
},
{
glyphname = currency;
lastChange = "2020-02-04 15:55:05 +0000";
layers = (
{
layerId = UUID0;
paths = (
{
closed = 1;
nodes = (
"408 942 LINE",
"512 993 LINE",
"818 993 LINE",
"922 941 LINE",
"1110 1128 LINE",
"1286 952 LINE",
"1091 758 LINE",
"1134 656 LINE",
"1134 361 LINE",
"1091 257 LINE",
"1286 63 LINE",
"1110 -113 LINE",
"923 73 LINE",
"819 20 LINE",
"509 20 LINE",
"406 73 LINE",
"221 -113 LINE",
"45 63 LINE",
"239 257 LINE",
"196 361 LINE",
"196 657 LINE",
"239 759 LINE",
"45 952 LINE",
"221 1128 LINE"
);
},
{
closed = 1;
nodes = (
"450 630 LINE",
"442 577 LINE",
"442 441 LINE",
"459 334 LINE",
"484 298 LINE",
"534 223 LINE",
"663 223 LINE",
"794 223 LINE",
"843 298 LINE",
"884 360 LINE",
"884 510 LINE",
"884 658 LINE",
"843 719 LINE",
"794 793 LINE",
"663 793 LINE",
"477 793 LINE"
);
}
);
width = 1331;
}
);
unicode = 00A4;
},
{
glyphname = dollar;
lastChange = "2020-02-04 17:31:28 +0000";
layers = (
{
layerId = UUID0;
paths = (
{
closed = 1;
nodes = (
"686 -205 LINE",
"686 -22 LINE",
"874 1 LINE",
"946 104 LINE",
"982 155 LINE",
"1010 301 LINE",
"1010 545 LINE",
"985 624 LINE",
"972 666 LINE",
"929 726 LINE",
"848 787 LINE",
"736 819 LINE",
"465 897 LINE",
"389 920 LINE",
"362 961 LINE",
"346 986 LINE",
"346 1057 LINE",
"346 1170 LINE",
"405 1204 LINE",
"438 1223 LINE",
"552 1235 LINE",
"770 1235 LINE",
"943 1212 LINE",
"943 1397 LINE",
"832 1434 LINE",
"686 1449 LINE",
"686 1632 LINE",
"451 1632 LINE",
"451 1449 LINE",
"372 1438 LINE",
"308 1408 LINE",
"108 1313 LINE",
"108 1047 LINE",
"108 867 LINE",
"221 687 LINE",
"359 651 LINE",
"650 575 LINE",
"726 555 LINE",
"756 499 LINE",
"773 468 LINE",
"773 383 LINE",
"773 278 LINE",
"726 240 LINE",
"696 215 LINE",
"582 190 LINE",
"288 190 LINE",
"120 213 LINE",
"120 37 LINE",
"146 20 LINE",
"300 -24 LINE",
"451 -29 LINE",
"451 -205 LINE"
);
}
);
width = 1110;
}
);
unicode = 0024;
},
{
glyphname = euro;
lastChange = "2020-02-04 17:32:48 +0000";
layers = (
{
layerId = UUID0;
paths = (
{
closed = 1;
nodes = (
"215 641 LINE",
"213 681 LINE",
"213 777 LINE",
"216 825 LINE",
"72 825 LINE",
"72 999 LINE",
"240 999 LINE",
"311 1322 LINE",
"571 1418 LINE",
"672 1456 LINE",
"795 1456 LINE",
"1043 1456 LINE",
"1172 1386 LINE",
"1172 1206 LINE",
"1014 1233 LINE",
"815 1233 LINE",
"692 1220 LINE",
"642 1196 LINE",
"536 1146 LINE",
"496 999 LINE",
"1032 999 LINE",
"1032 825 LINE",
"470 825 LINE",
"467 778 LINE",
"467 741 LINE",
"467 682 LINE",
"467 661 LINE",
"469 641 LINE",
"1032 641 LINE",
"1032 466 LINE",
"490 466 LINE",
"528 294 LINE",
"638 236 LINE",
"718 193 LINE",
"1065 193 LINE",
"1182 219 LINE",
"1182 37 LINE",
"1028 -31 LINE",
"774 -31 LINE",
"320 -31 LINE",
"233 466 LINE",
"72 466 LINE",
"72 641 LINE"
);
}
);
width = 1237;
}
);
unicode = 20AC;
},
{
glyphname = florin;
lastChange = "2020-02-04 17:31:28 +0000";
layers = (
{
layerId = UUID0;
paths = (
{
closed = 1;
nodes = (
"466 856 LINE",
"736 854 LINE",
"750 1051 LINE",
"480 1053 LINE",
"494 1239 LINE",
"500 1307 LINE",
"530 1332 LINE",
"548 1347 LINE",
"605 1359 LINE",
"780 1355 LINE",
"837 1349 LINE",
"850 1525 LINE",
"728 1567 LINE",
"419 1567 LINE",
"342 1481 LINE",
"270 1401 LINE",
"257 1231 LINE",
"243 1055 LINE",
"95 1057 LINE",
"81 860 LINE",
"229 858 LINE",
"132 -339 LINE",
"369 -340 LINE"
);
}
);
width = 775;
}
);
unicode = 0192;
},
{
glyphname = sterling;
lastChange = "2020-02-04 17:31:28 +0000";
layers = (
{
layerId = UUID0;
paths = (
{
closed = 1;
nodes = (
"1116 0 LINE",
"1116 219 LINE",
"414 219 LINE",
"414 229 LINE",
"508 285 LINE",
"508 547 LINE",
"508 623 LINE",
"946 623 LINE",
"946 823 LINE",
"508 823 LINE",
"508 1024 LINE",
"508 1091 LINE",
"524 1172 LINE",
"579 1216 LINE",
"683 1229 LINE",
"960 1229 LINE",
"1116 1210 LINE",
"1116 1386 LINE",
"949 1444 LINE",
"541 1444 LINE",
"434 1392 LINE",
"382 1367 LINE",
"318 1293 LINE",
"270 1166 LINE",
"270 1018 LINE",
"270 823 LINE",
"100 823 LINE",
"100 623 LINE",
"270 623 LINE",
"270 467 LINE",
"270 411 LINE",
"262 368 LINE",
"237 246 LINE",
"129 193 LINE",
"129 0 LINE"
);
}
);
width = 1189;
}
);
unicode = 00A3;
},
{
glyphname = yen;
lastChange = "2020-02-04 17:31:28 +0000";
layers = (
{
layerId = UUID0;
paths = (
{
closed = 1;
nodes = (
"721 0 LINE",
"721 182 LINE",
"1020 182 LINE",
"1020 350 LINE",
"721 350 LINE",
"721 489 LINE",
"1020 489 LINE",
"1020 657 LINE",
"754 657 LINE",
"1184 1427 LINE",
"918 1427 LINE",
"600 829 LINE",
"596 829 LINE",
"276 1427 LINE",
"10 1427 LINE",
"446 657 LINE",
"174 657 LINE",
"174 489 LINE",
"481 489 LINE",
"481 350 LINE",
"174 350 LINE",
"174 182 LINE",
"481 182 LINE",
"481 0 LINE"
);
}
);
width = 1194;
}
);
unicode = 00A5;
},
{
glyphname = plus;
lastChange = "2020-02-04 17:31:28 +0000";
layers = (
{
layerId = UUID0;
paths = (
{
closed = 1;
nodes = (
"623 188 LINE",
"623 565 LINE",
"967 565 LINE",
"967 764 LINE",
"621 764 LINE",
"621 1141 LINE",
"399 1141 LINE",
"399 764 LINE",
"51 764 LINE",
"51 561 LINE",
"401 561 LINE",
"401 188 LINE"
);
}
);
width = 1018;
}
);
unicode = 002B;
},
{
glyphname = minus;
lastChange = "2020-02-04 17:31:28 +0000";
layers = (
{
layerId = UUID0;
paths = (
{
closed = 1;
nodes = (
"752 537 LINE",
"752 764 LINE",
"60 764 LINE",
"60 537 LINE"
);
}
);
width = 812;
}
);
unicode = 2212;
},
{
glyphname = multiply;
lastChange = "2020-02-04 17:31:28 +0000";
layers = (
{
layerId = UUID0;
paths = (
{
closed = 1;
nodes = (
"959 336 LINE",
"639 666 LINE",
"953 989 LINE",
"815 1128 LINE",
"504 807 LINE",
"191 1130 LINE",
"45 987 LINE",
"361 659 LINE",
"47 334 LINE",
"185 197 LINE",
"496 518 LINE",
"813 193 LINE"
);
}
);
width = 1004;
}
);
unicode = 00D7;
},
{
glyphname = divide;
lastChange = "2020-02-04 17:31:28 +0000";
layers = (
{
layerId = UUID0;
paths = (
{
closed = 1;
nodes = (
"1064 539 LINE",
"1064 733 LINE",
"60 733 LINE",
"60 539 LINE"
);
},
{
closed = 1;
nodes = (
"650 125 LINE",
"680 155 LINE",
"697 172 LINE",
"710 228 LINE",
"710 362 LINE",
"680 392 LINE",
"663 409 LINE",
"606 422 LINE",
"473 422 LINE",
"443 392 LINE",
"426 375 LINE",
"413 317 LINE",
"413 228 LINE",
"426 172 LINE",
"460 138 LINE",
"517 125 LINE"
);
},
{
closed = 1;
nodes = (
"606 850 LINE",
"663 863 LINE",
"710 910 LINE",
"710 999 LINE",
"710 1087 LINE",
"680 1117 LINE",
"663 1134 LINE",
"606 1147 LINE",
"517 1147 LINE",
"460 1134 LINE",
"413 1087 LINE",
"413 999 LINE",
"413 910 LINE",
"443 880 LINE",
"460 863 LINE",
"517 850 LINE"
);
}
);
width = 1124;
}
);
unicode = 00F7;
},
{
glyphname = equal;
lastChange = "2020-02-04 17:31:28 +0000";
layers = (
{
layerId = UUID0;
paths = (
{
closed = 1;
nodes = (
"971 307 LINE",
"971 514 LINE",
"60 514 LINE",
"60 307 LINE"
);
},
{
closed = 1;
nodes = (
"971 729 LINE",
"971 934 LINE",
"60 934 LINE",
"60 729 LINE"
);
}
);
width = 1031;
}
);
unicode = 003D;
},
{
glyphname = notequal;
lastChange = "2020-02-04 17:31:28 +0000";
layers = (
{
layerId = UUID0;
paths = (
{
closed = 1;
nodes = (
"369 0 LINE",
"498 307 LINE",
"992 307 LINE",
"992 506 LINE",
"581 506 LINE",
"678 737 LINE",
"992 737 LINE",
"992 934 LINE",
"761 934 LINE",
"890 1241 LINE",
"691 1241 LINE",
"562 934 LINE",
"70 934 LINE",
"70 737 LINE",
"480 737 LINE",
"383 506 LINE",
"70 506 LINE",
"70 307 LINE",
"299 307 LINE",
"171 0 LINE"
);
}
);
width = 1062;
}
);
unicode = 2260;
},
{
glyphname = less;
lastChange = "2020-02-04 17:31:28 +0000";
layers = (
{
layerId = UUID0;
paths = (
{
closed = 1;
nodes = (
"887 330 LINE",
"266 582 LINE",
"266 598 LINE",
"887 850 LINE",
"887 1118 LINE",
"72 754 LINE",
"72 418 LINE",
"887 59 LINE"
);
}
);
width = 969;
}
);
unicode = 003C;
},
{
glyphname = lessequal;
lastChange = "2020-02-04 17:31:28 +0000";
layers = (
{
layerId = UUID0;
paths = (
{
closed = 1;
nodes = (
"905 479 LINE",
"289 750 LINE",
"289 758 LINE",
"905 1014 LINE",
"905 1282 LINE",
"90 903 LINE",
"90 596 LINE",
"905 225 LINE"
);
},
{
closed = 1;
nodes = (
"905 0 LINE",
"905 221 LINE",
"102 221 LINE",
"102 0 LINE"
);
}
);
width = 1005;
}
);
unicode = 2264;
},
{
glyphname = plusminus;
lastChange = "2020-02-04 17:31:28 +0000";
layers = (
{
layerId = UUID0;
paths = (
{
closed = 1;
nodes = (
"626 270 LINE",
"626 616 LINE",
"970 616 LINE",
"970 817 LINE",
"624 817 LINE",
"624 1194 LINE",
"403 1194 LINE",
"403 817 LINE",
"55 817 LINE",
"55 614 LINE",
"405 614 LINE",
"405 270 LINE"
);
},
{
closed = 1;
nodes = (
"970 0 LINE",
"970 193 LINE",
"55 193 LINE",
"55 0 LINE"
);
}
);
width = 1025;
}
);
unicode = 00B1;
},
{
glyphname = asciitilde;
lastChange = "2020-02-04 17:31:28 +0000";
layers = (
{
layerId = UUID0;
paths = (
{
closed = 1;
nodes = (
"1062 321 LINE",
"1132 352 LINE",
"1313 434 LINE",
"1322 666 LINE",
"1181 707 LINE",
"1161 667 LINE",
"1142 638 LINE",
"1084 549 LINE",
"988 549 LINE",
"923 549 LINE",
"711 653 LINE",
"504 755 LINE",
"400 755 LINE",
"243 755 LINE",
"150 648 LINE",
"66 553 LINE",
"60 403 LINE",
"202 362 LINE",
"256 514 LINE",
"386 520 LINE",
"393 521 LINE",
"437 521 LINE",
"544 486 LINE",
"666 419 LINE",
"716 391 LINE",
"823 345 LINE",
"924 321 LINE"
);
}
);
width = 1382;
}
);
unicode = 007E;
},
{
glyphname = logicalnot;
lastChange = "2020-02-04 17:31:28 +0000";
layers = (
{
layerId = UUID0;
paths = (
{
closed = 1;
nodes = (
"1081 315 LINE",
"1081 866 LINE",
"40 866 LINE",
"40 653 LINE",
"843 653 LINE",
"843 315 LINE"
);
}
);
width = 1146;
}
);
unicode = 00AC;
},
{
glyphname = asciicircum;
lastChange = "2020-02-04 17:31:28 +0000";
layers = (
{
layerId = UUID0;
paths = (
{
closed = 1;
nodes = (
"281 647 LINE",
"477 1237 LINE",
"489 1237 LINE",
"690 647 LINE",
"950 647 LINE",
"655 1427 LINE",
"315 1427 LINE",
"20 647 LINE"
);
}
);
width = 970;
}
);
unicode = 005E;
},
{
glyphname = infinity;
lastChange = "2020-02-04 17:31:28 +0000";
layers = (
{
layerId = UUID0;
paths = (
{
closed = 1;
nodes = (
"749 284 LINE",
"840 368 LINE",
"907 430 LINE",
"918 483 LINE",
"922 483 LINE",
"925 456 LINE",
"957 414 LINE",
"1055 287 LINE",
"1267 287 LINE",
"1518 287 LINE",
"1623 416 LINE",
"1712 526 LINE",
"1712 756 LINE",
"1712 978 LINE",
"1612 1094 LINE",
"1559 1156 LINE",
"1390 1223 LINE",
"1131 1223 LINE",
"1040 1139 LINE",
"967 1072 LINE",
"962 1024 LINE",
"958 1024 LINE",
"952 1056 LINE",
"923 1093 LINE",
"825 1220 LINE",
"613 1220 LINE",
"362 1220 LINE",
"257 1090 LINE",
"168 981 LINE",
"168 751 LINE",
"168 529 LINE",
"268 412 LINE",
"321 351 LINE",
"490 284 LINE"
);
},
{
closed = 1;
nodes = (
"395 753 LINE",
"395 889 LINE",
"432 945 LINE",
"455 980 LINE",
"541 1019 LINE",
"698 1019 LINE",
"753 960 LINE",
"777 935 LINE",
"828 824 LINE",
"828 753 LINE",
"828 621 LINE",
"792 567 LINE",
"744 498 LINE",
"613 498 LINE",
"395 498 LINE"
);
},
{
closed = 1;
nodes = (
"1127 554 LINE",
"1103 578 LINE",
"1074 638 LINE",
"1057 695 LINE",
"1052 742 LINE",
"1052 813 LINE",
"1059 862 LINE",
"1082 1019 LINE",
"1267 1019 LINE",
"1485 1019 LINE",
"1485 754 LINE",
"1485 620 LINE",
"1448 567 LINE",
"1425 534 LINE",
"1339 498 LINE",
"1181 498 LINE"
);
}
);
width = 1881;
}
);
unicode = 221E;
},
{
glyphname = integral;
lastChange = "2020-02-04 17:31:28 +0000";
layers = (
{
layerId = UUID0;
paths = (
{
closed = 1;
nodes = (
"261 -500 LINE",
"373 -470 LINE",
"447 -418 LINE",
"490 -347 LINE",
"517 -246 LINE",
"517 -132 LINE",
"517 1141 LINE",
"514 1159 LINE",
"514 1228 LINE",
"544 1261 LINE",
"562 1281 LINE",
"651 1321 LINE",
"766 1321 LINE",
"766 1472 LINE",
"713 1483 LINE",
"656 1483 LINE",
"434 1483 LINE",
"361 1366 LINE",
"311 1285 LINE",
"311 1115 LINE",
"311 -158 LINE",
"311 -272 LINE",
"236 -308 LINE",
"199 -327 LINE",
"65 -327 LINE",
"65 -482 LINE",
"132 -500 LINE"
);
}
);
width = 852;
}
);
unicode = 222B;
},
{
glyphname = Ohm;
lastChange = "2020-02-04 17:35:02 +0000";
layers = (
{
layerId = UUID0;
paths = (
{
closed = 1;
nodes = (
"749 138 LINE",
"571 285 LINE",
"492 428 LINE",
"453 500 LINE",
"417 647 LINE",
"417 823 LINE",
"435 906 LINE",
"495 1182 LINE",
"834 1182 LINE",
"1071 1182 LINE",
"1176 1050 LINE",
"1225 989 LINE",
"1265 823 LINE",
"1265 647 LINE",
"1248 574 LINE",
"1195 353 LINE",
"934 138 LINE",
"934 -3 LINE",
"943 0 LINE",
"1522 0 LINE",
"1522 224 LINE",
"1283 224 LINE",
"1489 444 LINE",
"1489 726 LINE",
"1489 1050 LINE",
"1320 1222 LINE",
"1149 1394 LINE",
"834 1394 LINE",
"521 1394 LINE",
"356 1222 LINE",
"276 1137 LINE",
"194 888 LINE",
"194 651 LINE",
"210 582 LINE",
"255 379 LINE",
"400 224 LINE",
"160 224 LINE",
"160 0 LINE",
"739 0 LINE",
"749 -3 LINE"
);
}
);
width = 1706;
}
);
unicode = 2126;
},
{
glyphname = increment;
lastChange = "2020-02-04 19:18:31 +0000";
layers = (
{
layerId = UUID0;
paths = (
{
closed = 1;
nodes = (
"182 0 LINE",
"182 151 LINE",
"676 1393 LINE",
"840 1393 LINE",
"1333 151 LINE",
"1333 0 LINE"
);
},
{
closed = 1;
nodes = (
"443 226 LINE",
"1072 226 LINE",
"766 984 LINE",
"758 1014 LINE",
"749 984 LINE"
);
}
);
width = 1537;
}
);
unicode = 2206;
},
{
glyphname = product;
lastChange = "2020-02-04 17:31:28 +0000";
layers = (
{
layerId = UUID0;
paths = (
{
closed = 1;
nodes = (
"565 -328 LINE",
"565 1169 LINE",
"1109 1169 LINE",
"1109 -328 LINE",
"1347 -328 LINE",
"1347 1169 LINE",
"1482 1169 LINE",
"1482 1380 LINE",
"192 1380 LINE",
"192 1169 LINE",
"327 1169 LINE",
"327 -328 LINE"
);
}
);
width = 1706;
}
);
unicode = 220F;
},
{
glyphname = summation;
lastChange = "2020-02-04 17:31:28 +0000";
layers = (
{
layerId = UUID0;
paths = (
{
closed = 1;
nodes = (
"1094 -328 LINE",
"1094 -140 LINE",
"373 -140 LINE",
"835 511 LINE",
"373 1161 LINE",
"1094 1161 LINE",
"1094 1349 LINE",
"63 1349 LINE",
"63 1214 LINE",
"569 511 LINE",
"63 -193 LINE",
"63 -328 LINE"
);
}
);
width = 1196;
}
);
unicode = 2211;
},
{
glyphname = radical;
lastChange = "2020-02-04 17:31:28 +0000";
layers = (
{
layerId = UUID0;
paths = (
{
closed = 1;
nodes = (
"828 -196 LINE",
"1418 1633 LINE",
"1180 1633 LINE",
"729 116 LINE",
"455 857 LINE",
"81 857 LINE",
"81 647 LINE",
"283 647 LINE",
"638 -196 LINE"
);
}
);
width = 1361;
}
);
unicode = 221A;
},
{
glyphname = micro;
lastChange = "2020-02-04 17:34:09 +0000";
layers = (
{
layerId = UUID0;
paths = (
{
closed = 1;
nodes = (
"543 -20 LINE",
"458 -20 LINE",
"387 24 LINE",
"387 -485 LINE",
"166 -485 LINE",
"166 1055 LINE",
"387 1055 LINE",
"387 465 LINE",
"387 303 LINE",
"442 213 LINE",
"524 180 LINE",
"723 180 LINE",
"831 227 LINE",
"831 1055 LINE",
"1065 1055 LINE",
"1065 262 LINE",
"1065 171 LINE",
"1099 157 LINE",
"1111 152 LINE",
"1217 152 LINE",
"1247 158 LINE",
"1247 14 LINE",
"1136 -31 LINE",
"1032 -31 LINE",
"897 -31 LINE",
"861 95 LINE",
"730 -20 LINE"
);
}
);
width = 1298;
}
);
unicode = 00B5;
},
{
glyphname = partialdiff;
lastChange = "2020-02-04 17:31:28 +0000";
layers = (
{
layerId = UUID0;
paths = (
{
closed = 1;
nodes = (
"584 -15 LINE",
"754 -15 LINE",
"852 52 LINE",
"935 108 LINE",
"1001 237 LINE",
"1084 399 LINE",
"1084 686 LINE",
"1084 827 LINE",
"1048 949 LINE",
"1025 1024 LINE",
"943 1168 LINE",
"805 1280 LINE",
"604 1349 LINE",
"372 1349 LINE",
"230 1328 LINE",
"230 1108 LINE",
"248 1114 LINE",
"410 1147 LINE",
"464 1147 LINE",
"567 1147 LINE",
"642 1117 LINE",
"851 1033 LINE",
"880 801 LINE",
"841 852 LINE",
"777 884 LINE",
"684 930 LINE",
"563 930 LINE",
"97 930 LINE",
"97 461 LINE",
"97 -15 LINE"
);
},
{
closed = 1;
nodes = (
"376 262 LINE",
"328 329 LINE",
"328 461 LINE",
"328 516 LINE",
"334 566 LINE",
"355 735 LINE",
"562 735 LINE",
"720 735 LINE",
"790 659 LINE",
"824 623 LINE",
"853 522 LINE",
"853 401 LINE",
"842 356 LINE",
"800 171 LINE",
"595 171 LINE",
"441 171 LINE"
);
}
);
width = 1194;
}
);
unicode = 2202;
},
{
glyphname = percent;
lastChange = "2020-02-04 17:31:28 +0000";
layers = (
{
layerId = UUID0;
paths = (
{
closed = 1;
nodes = (
"405 0 LINE",
"1357 1554 LINE",
"1134 1554 LINE",
"184 0 LINE"
);
},
{
closed = 1;
nodes = (
"1218 -31 LINE",
"1278 -14 LINE",
"1468 40 LINE",
"1468 328 LINE",
"1468 523 LINE",
"1380 610 LINE",
"1338 651 LINE",
"1218 686 LINE",
"1071 686 LINE",
"1012 668 LINE",
"822 613 LINE",
"822 328 LINE",
"822 131 LINE",
"910 44 LINE",
"952 3 LINE",
"1071 -31 LINE"
);
},
{
closed = 1;
nodes = (
"1062 168 LINE",
"1017 225 LINE",
"1017 328 LINE",
"1017 430 LINE",
"1052 475 LINE",
"1074 502 LINE",
"1144 502 LINE",
"1178 502 LINE",
"1226 487 LINE",
"1271 430 LINE",
"1271 328 LINE",
"1271 225 LINE",
"1236 180 LINE",
"1215 154 LINE",
"1144 154 LINE",
"1110 154 LINE"
);
},
{
closed = 1;
nodes = (
"459 838 LINE",
"518 856 LINE",
"708 911 LINE",
"708 1196 LINE",
"708 1393 LINE",
"620 1479 LINE",
"578 1520 LINE",
"459 1554 LINE",
"312 1554 LINE",
"253 1537 LINE",
"65 1483 LINE",
"65 1196 LINE",
"65 1000 LINE",
"152 914 LINE",
"194 873 LINE",
"312 838 LINE"
);
},
{
closed = 1;
nodes = (
"330 1030 LINE",
"259 1052 LINE",
"259 1196 LINE",
"259 1298 LINE",
"290 1336 LINE",
"306 1355 LINE",
"354 1370 LINE",
"420 1370 LINE",
"468 1355 LINE",
"513 1298 LINE",
"513 1196 LINE",
"513 1094 LINE",
"484 1056 LINE",
"468 1037 LINE",
"420 1022 LINE",
"354 1022 LINE"
);
}
);
width = 1526;
}
);
unicode = 0025;
},
{
glyphname = perthousand;
lastChange = "2020-02-04 17:31:28 +0000";
layers = (
{
layerId = UUID0;
paths = (
{
closed = 1;
nodes = (
"406 0 LINE",
"1358 1554 LINE",
"1135 1554 LINE",
"185 0 LINE"
);
},
{
closed = 1;
nodes = (
"1145 -31 LINE",
"1218 -31 LINE",
"1278 -14 LINE",
"1468 40 LINE",
"1468 328 LINE",
"1468 523 LINE",
"1380 610 LINE",
"1303 686 LINE",
"1145 686 LINE",
"1072 686 LINE",
"1012 668 LINE",
"823 613 LINE",
"823 328 LINE",
"823 131 LINE",
"911 44 LINE",
"987 -31 LINE"
);
},
{
closed = 1;
nodes = (
"1063 168 LINE",
"1018 225 LINE",
"1018 328 LINE",
"1018 430 LINE",
"1053 475 LINE",
"1075 502 LINE",
"1145 502 LINE",
"1179 502 LINE",
"1227 487 LINE",
"1272 430 LINE",
"1272 328 LINE",
"1272 225 LINE",
"1237 180 LINE",
"1216 154 LINE",
"1145 154 LINE",
"1111 154 LINE"
);
},
{
closed = 1;
nodes = (
"460 838 LINE",
"520 856 LINE",
"709 911 LINE",
"709 1196 LINE",
"709 1393 LINE",
"621 1479 LINE",
"579 1520 LINE",
"460 1554 LINE",
"313 1554 LINE",
"254 1537 LINE",
"65 1483 LINE",
"65 1196 LINE",
"65 1000 LINE",
"152 914 LINE",
"194 873 LINE",
"313 838 LINE"
);
},
{
closed = 1;
nodes = (
"331 1030 LINE",
"260 1052 LINE",
"260 1196 LINE",
"260 1298 LINE",
"291 1336 LINE",
"307 1355 LINE",
"355 1370 LINE",
"421 1370 LINE",
"469 1355 LINE",
"514 1298 LINE",
"514 1196 LINE",
"514 1094 LINE",
"484 1056 LINE",
"469 1037 LINE",
"421 1022 LINE",
"355 1022 LINE"
);
},
{
closed = 1;
nodes = (
"1966 -31 LINE",
"2026 -14 LINE",
"2216 40 LINE",
"2216 328 LINE",
"2216 523 LINE",
"2128 610 LINE",
"2086 651 LINE",
"1966 686 LINE",
"1819 686 LINE",
"1760 668 LINE",
"1571 612 LINE",
"1571 328 LINE",
"1571 131 LINE",
"1659 44 LINE",
"1701 3 LINE",
"1819 -31 LINE"
);
},
{
closed = 1;
nodes = (
"1810 168 LINE",
"1765 225 LINE",
"1765 328 LINE",
"1765 430 LINE",
"1800 475 LINE",
"1822 502 LINE",
"1892 502 LINE",
"1926 502 LINE",
"1974 487 LINE",
"2019 430 LINE",
"2019 328 LINE",
"2019 225 LINE",
"1984 180 LINE",
"1963 154 LINE",
"1892 154 LINE",
"1858 154 LINE"
);
}
);
width = 2257;
}
);
unicode = 2030;
},
{
glyphname = lozenge;
lastChange = "2020-02-04 17:31:28 +0000";
layers = (
{
layerId = UUID0;
paths = (
{
closed = 1;
nodes = (
"658 0 LINE",
"1108 681 LINE",
"658 1360 LINE",
"538 1360 LINE",
"88 680 LINE",
"538 0 LINE"
);
},
{
closed = 1;
nodes = (
"298 680 LINE",
"598 1145 LINE",
"898 681 LINE",
"598 215 LINE"
);
}
);
width = 1196;
}
);
unicode = 25CA;
},
{
glyphname = at;
lastChange = "2020-02-04 17:31:28 +0000";
layers = (
{
layerId = UUID0;
paths = (
{
closed = 1;
nodes = (
"882 -31 LINE",
"1248 -31 LINE",
"1447 53 LINE",
"1447 221 LINE",
"1281 160 LINE",
"882 160 LINE",
"568 160 LINE",
"441 306 LINE",
"321 443 LINE",
"321 772 LINE",
"321 1086 LINE",
"445 1222 LINE",
"511 1295 LINE",
"725 1364 LINE",
"1117 1364 LINE",
"1232 1302 LINE",
"1289 1270 LINE",
"1356 1173 LINE",
"1391 1042 LINE",
"1400 875 LINE",
"1400 605 LINE",
"1360 549 LINE",
"1321 494 LINE",
"1210 494 LINE",
"1210 1174 LINE",
"1044 1174 LINE",
"1019 1112 LINE",
"889 1188 LINE",
"759 1188 LINE",
"472 1188 LINE",
"472 756 LINE",
"472 324 LINE",
"759 324 LINE",
"797 324 LINE",
"902 352 LINE",
"1015 420 LINE",
"1042 344 LINE",
"1114 323 LINE",
"1198 323 LINE",
"1218 323 LINE",
"1238 324 LINE",
"1397 326 LINE",
"1490 430 LINE",
"1595 546 LINE",
"1595 776 LINE",
"1595 1076 LINE",
"1536 1236 LINE",
"1504 1322 LINE",
"1397 1443 LINE",
"1239 1519 LINE",
"1023 1554 LINE",
"702 1554 LINE",
"561 1513 LINE",
"126 1387 LINE",
"126 776 LINE",
"126 339 LINE",
"314 150 LINE",
"492 -31 LINE"
);
},
{
closed = 1;
nodes = (
"775 512 LINE",
"683 547 LINE",
"683 756 LINE",
"683 1006 LINE",
"835 1006 LINE",
"902 1006 LINE",
"999 971 LINE",
"999 528 LINE",
"921 502 LINE",
"803 502 LINE"
);
}
);
width = 1660;
}
);
unicode = 0040;
},
{
glyphname = ampersand;
lastChange = "2020-02-04 17:31:28 +0000";
layers = (
{
layerId = UUID0;
paths = (
{
closed = 1;
nodes = (
"569 -29 LINE",
"798 -29 LINE",
"955 111 LINE",
"1059 0 LINE",
"1343 0 LINE",
"1076 291 LINE",
"1130 458 LINE",
"1141 629 LINE",
"950 629 LINE",
"938 537 LINE",
"918 464 LINE",
"680 727 LINE",
"767 784 LINE",
"874 866 LINE",
"933 947 LINE",
"952 1042 LINE",
"952 1180 LINE",
"936 1242 LINE",
"879 1456 LINE",
"557 1456 LINE",
"333 1456 LINE",
"244 1354 LINE",
"204 1308 LINE",
"178 1189 LINE",
"178 1024 LINE",
"224 930 LINE",
"253 869 LINE",
"353 758 LINE",
"203 654 LINE",
"148 566 LINE",
"98 486 LINE",
"98 371 LINE",
"98 152 LINE",
"208 60 LINE",
"313 -29 LINE"
);
},
{
closed = 1;
nodes = (
"384 226 LINE",
"357 249 LINE",
"336 318 LINE",
"336 395 LINE",
"340 421 LINE",
"354 497 LINE",
"497 604 LINE",
"814 263 LINE",
"723 182 LINE",
"575 182 LINE",
"437 182 LINE"
);
},
{
closed = 1;
nodes = (
"399 1037 LINE",
"399 1110 LINE",
"399 1196 LINE",
"432 1230 LINE",
"450 1250 LINE",
"514 1268 LINE",
"662 1268 LINE",
"697 1233 LINE",
"716 1214 LINE",
"731 1154 LINE",
"731 1078 LINE",
"718 1028 LINE",
"663 959 LINE",
"542 880 LINE"
);
}
);
width = 1263;
}
);
unicode = 0026;
},
{
glyphname = paragraph;
lastChange = "2020-02-04 17:31:28 +0000";
layers = (
{
layerId = UUID0;
paths = (
{
closed = 1;
nodes = (
"770 0 LINE",
"770 1253 LINE",
"947 1253 LINE",
"947 0 LINE",
"1157 0 LINE",
"1157 1427 LINE",
"870 1458 LINE",
"727 1458 LINE",
"442 1458 LINE",
"314 1336 LINE",
"210 1236 LINE",
"210 1026 LINE",
"210 801 LINE",
"300 704 LINE",
"381 616 LINE",
"560 616 LINE",
"560 0 LINE"
);
}
);
width = 1368;
}
);
unicode = 00B6;
},
{
glyphname = section;
lastChange = "2020-02-04 17:31:28 +0000";
layers = (
{
layerId = UUID0;
paths = (
{
closed = 1;
nodes = (
"616 -387 LINE",
"803 -339 LINE",
"914 -252 LINE",
"960 -131 LINE",
"960 47 LINE",
"912 176 LINE",
"852 211 LINE",
"889 261 LINE",
"918 321 LINE",
"985 458 LINE",
"985 580 LINE",
"985 648 LINE",
"974 692 LINE",
"939 826 LINE",
"756 860 LINE",
"465 913 LINE",
"396 925 LINE",
"363 958 LINE",
"346 975 LINE",
"346 1016 LINE",
"346 1082 LINE",
"387 1108 LINE",
"410 1122 LINE",
"486 1135 LINE",
"685 1135 LINE",
"881 1110 LINE",
"881 1282 LINE",
"708 1335 LINE",
"330 1335 LINE",
"228 1254 LINE",
"176 1214 LINE",
"121 1091 LINE",
"121 907 LINE",
"167 782 LINE",
"223 743 LINE",
"187 694 LINE",
"159 635 LINE",
"96 501 LINE",
"96 371 LINE",
"96 140 LINE",
"332 98 LINE",
"637 45 LINE",
"694 36 LINE",
"716 4 LINE",
"727 -12 LINE",
"727 -59 LINE",
"727 -121 LINE",
"664 -151 LINE",
"631 -167 LINE",
"520 -184 LINE",
"245 -184 LINE",
"127 -147 LINE",
"127 -317 LINE",
"274 -387 LINE"
);
},
{
closed = 1;
nodes = (
"440 305 LINE",
"324 323 LINE",
"324 440 LINE",
"324 537 LINE",
"395 690 LINE",
"631 653 LINE",
"714 640 LINE",
"739 603 LINE",
"752 584 LINE",
"752 528 LINE",
"752 417 LINE",
"672 268 LINE"
);
}
);
width = 1055;
}
);
unicode = 00A7;
},
{
glyphname = copyright;
lastChange = "2020-02-04 17:31:28 +0000";
layers = (
{
layerId = UUID0;
paths = (
{
closed = 1;
nodes = (
"725 211 LINE",
"868 211 LINE",
"1119 319 LINE",
"1307 507 LINE",
"1415 758 LINE",
"1415 1045 LINE",
"1307 1296 LINE",
"1119 1483 LINE",
"868 1591 LINE",
"725 1591 LINE",
"582 1591 LINE",
"331 1483 LINE",
"143 1296 LINE",
"35 1045 LINE",
"35 758 LINE",
"143 507 LINE",
"331 319 LINE",
"582 211 LINE"
);
},
{
closed = 1;
nodes = (
"735 530 LINE",
"873 530 LINE",
"956 575 LINE",
"956 707 LINE",
"896 688 LINE",
"677 688 LINE",
"638 734 LINE",
"617 759 LINE",
"598 843 LINE",
"598 1025 LINE",
"638 1072 LINE",
"659 1096 LINE",
"726 1116 LINE",
"890 1116 LINE",
"948 1098 LINE",
"948 1229 LINE",
"866 1274 LINE",
"667 1274 LINE",
"609 1256 LINE",
"418 1199 LINE",
"418 901 LINE",
"418 530 LINE"
);
},
{
closed = 1;
nodes = (
"366 543 LINE",
"217 692 LINE",
"217 901 LINE",
"217 1111 LINE",
"366 1262 LINE",
"514 1411 LINE",
"725 1411 LINE",
"936 1411 LINE",
"1235 1112 LINE",
"1235 901 LINE",
"1235 691 LINE",
"1086 543 LINE",
"934 393 LINE",
"725 393 LINE",
"516 393 LINE"
);
}
);
width = 1450;
}
);
unicode = 00A9;
},
{
glyphname = registered;
lastChange = "2020-02-04 17:31:28 +0000";
layers = (
{
layerId = UUID0;
paths = (
{
closed = 1;
nodes = (
"725 207 LINE",
"868 207 LINE",
"1119 315 LINE",
"1307 503 LINE",
"1415 754 LINE",
"1415 897 LINE",
"1415 1040 LINE",
"1307 1291 LINE",
"1119 1479 LINE",
"868 1587 LINE",
"725 1587 LINE",
"582 1587 LINE",
"331 1479 LINE",
"143 1291 LINE",
"35 1040 LINE",
"35 897 LINE",
"35 754 LINE",
"143 503 LINE",
"331 315 LINE",
"582 207 LINE"
);
},
{
closed = 1;
nodes = (
"217 687 LINE",
"217 897 LINE",
"217 1107 LINE",
"366 1258 LINE",
"514 1407 LINE",
"725 1407 LINE",
"936 1407 LINE",
"1235 1108 LINE",
"1235 897 LINE",
"1235 686 LINE",
"1086 538 LINE",
"935 389 LINE",
"725 389 LINE",
"515 389 LINE"
);
},
{
closed = 1;
nodes = (
"635 545 LINE",
"635 784 LINE",
"725 784 LINE",
"860 545 LINE",
"1053 545 LINE",
"901 815 LINE",
"934 823 LINE",
"960 848 LINE",
"1020 903 LINE",
"1020 1020 LINE",
"1020 1165 LINE",
"936 1228 LINE",
"894 1260 LINE",
"799 1260 LINE",
"465 1260 LINE",
"465 545 LINE"
);
},
{
closed = 1;
nodes = (
"635 1124 LINE",
"758 1124 LINE",
"810 1124 LINE",
"852 1079 LINE",
"852 954 LINE",
"827 924 LINE",
"813 907 LINE",
"764 907 LINE",
"635 907 LINE"
);
}
);
width = 1450;
}
);
unicode = 00AE;
},
{
glyphname = trademark;
lastChange = "2020-02-04 17:31:28 +0000";
layers = (
{
layerId = UUID0;
paths = (
{
closed = 1;
nodes = (
"1109 776 LINE",
"1109 1274 LINE",
"1121 1274 LINE",
"1123 1262 LINE",
"1127 1241 LINE",
"1131 1216 LINE",
"1135 1204 LINE",
"1203 952 LINE",
"1414 952 LINE",
"1481 1214 LINE",
"1492 1257 LINE",
"1496 1286 LINE",
"1508 1286 LINE",
"1508 776 LINE",
"1680 776 LINE",
"1680 1427 LINE",
"1385 1427 LINE",
"1336 1221 LINE",
"1323 1174 LINE",
"1314 1090 LINE",
"1302 1090 LINE",
"1229 1427 LINE",
"937 1427 LINE",
"937 776 LINE"
);
},
{
closed = 1;
nodes = (
"596 776 LINE",
"596 1260 LINE",
"825 1260 LINE",
"825 1427 LINE",
"192 1427 LINE",
"192 1260 LINE",
"420 1260 LINE",
"420 776 LINE"
);
}
);
width = 1872;
}
);
unicode = 2122;
},
{
glyphname = degree;
lastChange = "2020-02-04 17:31:28 +0000";
layers = (
{
layerId = UUID0;
paths = (
{
closed = 1;
nodes = (
"518 852 LINE",
"584 852 LINE",
"638 869 LINE",
"813 924 LINE",
"813 1185 LINE",
"813 1374 LINE",
"731 1458 LINE",
"692 1497 LINE",
"584 1529 LINE",
"451 1529 LINE",
"394 1513 LINE",
"212 1461 LINE",
"212 1185 LINE",
"212 852 LINE"
);
},
{
closed = 1;
nodes = (
"440 1034 LINE",
"406 1072 LINE",
"387 1135 LINE",
"387 1283 LINE",
"423 1326 LINE",
"440 1347 LINE",
"489 1363 LINE",
"578 1363 LINE",
"606 1326 LINE",
"621 1306 LINE",
"639 1237 LINE",
"639 1094 LINE",
"606 1053 LINE",
"590 1034 LINE",
"545 1020 LINE",
"489 1020 LINE"
);
}
);
width = 1026;
}
);
unicode = 00B0;
},
{
color = (0,243,255,255);
glyphname = minute;
lastChange = "2020-02-04 15:55:05 +0000";
layers = (
{
layerId = UUID0;
paths = (
{
closed = 1;
nodes = (
"187 1630 LINE",
"425 1630 LINE",
"280 1055 LINE",
"88 1055 LINE"
);
}
);
width = 513;
}
);
unicode = 2032;
},
{
color = (0,243,255,255);
glyphname = second;
lastChange = "2020-02-04 15:55:05 +0000";
layers = (
{
layerId = UUID0;
paths = (
{
closed = 1;
nodes = (
"164 1630 LINE",
"402 1630 LINE",
"257 1054 LINE",
"65 1054 LINE"
);
},
{
closed = 1;
nodes = (
"557 1630 LINE",
"795 1630 LINE",
"650 1054 LINE",
"458 1054 LINE"
);
}
);
width = 860;
}
);
unicode = 2033;
},
{
glyphname = bar;
lastChange = "2020-02-04 17:31:28 +0000";
layers = (
{
layerId = UUID0;
paths = (
{
closed = 1;
nodes = (
"456 -487 LINE",
"456 1589 LINE",
"227 1589 LINE",
"227 -487 LINE"
);
}
);
width = 684;
}
);
unicode = 007C;
},
{
glyphname = brokenbar;
lastChange = "2020-02-04 17:31:28 +0000";
layers = (
{
layerId = UUID0;
paths = (
{
closed = 1;
nodes = (
"456 -487 LINE",
"456 348 LINE",
"227 348 LINE",
"227 -487 LINE"
);
},
{
closed = 1;
nodes = (
"456 594 LINE",
"456 1427 LINE",
"227 1427 LINE",
"227 594 LINE"
);
}
);
width = 684;
}
);
unicode = 00A6;
},
{
glyphname = dagger;
lastChange = "2020-02-04 17:31:28 +0000";
layers = (
{
layerId = UUID0;
paths = (
{
closed = 1;
nodes = (
"628 817 LINE",
"968 817 LINE",
"968 1014 LINE",
"628 1014 LINE",
"628 1430 LINE",
"390 1427 LINE",
"390 1014 LINE",
"50 1014 LINE",
"50 817 LINE",
"390 817 LINE",
"390 -160 LINE",
"628 -162 LINE"
);
}
);
width = 1018;
}
);
unicode = 2020;
},
{
glyphname = daggerdbl;
lastChange = "2020-02-04 17:31:28 +0000";
layers = (
{
layerId = UUID0;
paths = (
{
closed = 1;
nodes = (
"639 256 LINE",
"979 256 LINE",
"979 453 LINE",
"639 453 LINE",
"639 815 LINE",
"979 815 LINE",
"979 1012 LINE",
"639 1012 LINE",
"639 1430 LINE",
"401 1427 LINE",
"401 1012 LINE",
"61 1012 LINE",
"61 815 LINE",
"401 815 LINE",
"401 453 LINE",
"61 453 LINE",
"61 256 LINE",
"401 256 LINE",
"401 -160 LINE",
"639 -162 LINE"
);
}
);
width = 1040;
}
);
unicode = 2021;
},
{
glyphname = firsttonechinese;
lastChange = "2020-02-04 19:18:31 +0000";
layers = (
{
layerId = UUID0;
paths = (
{
closed = 1;
nodes = (
"61 1415 LINE",
"766 1415 LINE",
"766 1219 LINE",
"61 1219 LINE"
);
}
);
width = 827;
}
);
unicode = 02C9;
},
{
glyphname = commaaccentcomb;
lastChange = "2020-02-04 19:28:04 +0000";
layers = (
{
anchors = (
{
name = _bottom;
position = "{231.5, 0}";
},
{
name = bottom;
position = "{231.5, -500}";
}
);
layerId = UUID0;
paths = (
{
closed = 1;
nodes = (
"190 -91 LINE",
"238 -91 LINE",
"328 -120 LINE",
"346 -132 LINE",
"370 -149 LINE",
"370 -171 LINE",
"370 -246 LINE",
"215 -500 LINE",
"93 -445 LINE"
);
}
);
width = 438;
}
);
unicode = 0326;
},
{
glyphname = dotaccent;
lastChange = "2020-02-04 17:31:28 +0000";
layers = (
{
layerId = UUID0;
paths = (
{
closed = 1;
nodes = (
"279 1204 LINE",
"312 1237 LINE",
"334 1258 LINE",
"334 1339 LINE",
"334 1421 LINE",
"306 1449 LINE",
"291 1465 LINE",
"239 1477 LINE",
"117 1477 LINE",
"83 1443 LINE",
"61 1421 LINE",
"61 1339 LINE",
"61 1257 LINE",
"89 1231 LINE",
"105 1216 LINE",
"158 1204 LINE"
);
}
);
width = 395;
}
);
unicode = 02D9;
},
{
glyphname = grave;
lastChange = "2020-02-04 17:31:28 +0000";
layers = (
{
layerId = UUID0;
paths = (
{
closed = 1;
nodes = (
"592 1274 LINE",
"199 1642 LINE",
"145 1609 LINE",
"89 1543 LINE",
"62 1509 LINE",
"62 1481 LINE",
"62 1470 LINE",
"64 1462 LINE",
"80 1407 LINE",
"238 1308 LINE",
"264 1292 LINE",
"322 1256 LINE",
"416 1197 LINE",
"492 1151 LINE"
);
}
);
width = 653;
}
);
unicode = 0060;
},
{
glyphname = acute;
lastChange = "2020-02-04 17:31:28 +0000";
layers = (
{
layerId = UUID0;
paths = (
{
closed = 1;
nodes = (
"242 1201 LINE",
"340 1265 LINE",
"426 1321 LINE",
"476 1355 LINE",
"608 1445 LINE",
"608 1493 LINE",
"608 1522 LINE",
"552 1590 LINE",
"513 1637 LINE",
"469 1661 LINE",
"61 1278 LINE",
"164 1151 LINE"
);
}
);
width = 672;
}
);
unicode = 00B4;
},
{
glyphname = hungarumlaut;
lastChange = "2020-02-04 17:31:28 +0000";
layers = (
{
layerId = UUID0;
paths = (
{
closed = 1;
nodes = (
"264 1213 LINE",
"335 1300 LINE",
"410 1391 LINE",
"459 1454 LINE",
"524 1531 LINE",
"522 1573 LINE",
"520 1595 LINE",
"487 1631 LINE",
"381 1698 LINE",
"326 1708 LINE",
"61 1237 LINE",
"207 1145 LINE"
);
},
{
closed = 1;
nodes = (
"802 1272 LINE",
"858 1339 LINE",
"890 1378 LINE",
"979 1484 LINE",
"979 1527 LINE",
"979 1549 LINE",
"943 1586 LINE",
"837 1653 LINE",
"782 1663 LINE",
"543 1239 LINE",
"688 1147 LINE"
);
}
);
width = 1040;
}
);
unicode = 02DD;
},
{
glyphname = circumflex;
lastChange = "2020-02-04 17:31:28 +0000";
layers = (
{
layerId = UUID0;
paths = (
{
closed = 1;
nodes = (
"434 1437 LINE",
"704 1110 LINE",
"817 1184 LINE",
"664 1460 LINE",
"621 1538 LINE",
"560 1574 LINE",
"523 1595 LINE",
"434 1595 LINE",
"390 1595 LINE",
"357 1589 LINE",
"267 1573 LINE",
"205 1460 LINE",
"51 1184 LINE",
"164 1110 LINE"
);
}
);
width = 868;
}
);
unicode = 02C6;
},
{
glyphname = caron;
lastChange = "2020-02-04 17:31:28 +0000";
layers = (
{
layerId = UUID0;
paths = (
{
closed = 1;
nodes = (
"434 1174 LINE",
"478 1174 LINE",
"511 1180 LINE",
"602 1197 LINE",
"664 1309 LINE",
"817 1585 LINE",
"704 1659 LINE",
"434 1331 LINE",
"164 1659 LINE",
"51 1585 LINE",
"205 1309 LINE",
"248 1230 LINE",
"308 1196 LINE",
"345 1174 LINE"
);
}
);
width = 868;
}
);
unicode = 02C7;
},
{
glyphname = breve;
lastChange = "2020-02-04 17:31:28 +0000";
layers = (
{
layerId = UUID0;
paths = (
{
closed = 1;
nodes = (
"406 1176 LINE",
"589 1176 LINE",
"677 1274 LINE",
"719 1320 LINE",
"748 1430 LINE",
"748 1505 LINE",
"745 1530 LINE",
"627 1530 LINE",
"612 1475 LINE",
"574 1407 LINE",
"503 1356 LINE",
"406 1356 LINE",
"309 1356 LINE",
"262 1389 LINE",
"211 1426 LINE",
"184 1530 LINE",
"63 1530 LINE",
"61 1507 LINE",
"61 1486 LINE",
"61 1353 LINE",
"134 1274 LINE",
"223 1176 LINE"
);
}
);
width = 811;
}
);
unicode = 02D8;
},
{
glyphname = ring;
lastChange = "2020-02-04 17:31:28 +0000";
layers = (
{
layerId = UUID0;
paths = (
{
closed = 1;
nodes = (
"368 1165 LINE",
"414 1175 LINE",
"565 1207 LINE",
"565 1407 LINE",
"565 1546 LINE",
"492 1604 LINE",
"433 1651 LINE",
"313 1651 LINE",
"193 1651 LINE",
"134 1604 LINE",
"100 1577 LINE",
"61 1482 LINE",
"61 1333 LINE",
"99 1239 LINE",
"166 1185 LINE",
"259 1165 LINE"
);
},
{
closed = 1;
nodes = (
"242 1319 LINE",
"232 1332 LINE",
"223 1375 LINE",
"223 1472 LINE",
"242 1496 LINE",
"253 1508 LINE",
"288 1518 LINE",
"366 1518 LINE",
"386 1496 LINE",
"397 1483 LINE",
"406 1440 LINE",
"406 1375 LINE",
"397 1332 LINE",
"375 1306 LINE",
"339 1296 LINE",
"261 1296 LINE"
);
}
);
width = 627;
}
);
unicode = 02DA;
},
{
glyphname = tilde;
lastChange = "2020-02-04 17:31:28 +0000";
layers = (
{
layerId = UUID0;
paths = (
{
closed = 1;
nodes = (
"624 1174 LINE",
"731 1174 LINE",
"806 1250 LINE",
"868 1315 LINE",
"877 1389 LINE",
"768 1458 LINE",
"721 1370 LINE",
"631 1366 LINE",
"589 1364 LINE",
"488 1422 LINE",
"392 1479 LINE",
"311 1479 LINE",
"206 1479 LINE",
"131 1402 LINE",
"70 1341 LINE",
"61 1264 LINE",
"170 1194 LINE",
"182 1218 LINE",
"242 1283 LINE",
"281 1285 LINE",
"299 1286 LINE",
"332 1286 LINE",
"404 1251 LINE",
"446 1229 LINE",
"550 1174 LINE"
);
}
);
width = 938;
}
);
unicode = 02DC;
},
{
glyphname = macron;
lastChange = "2020-02-04 17:31:28 +0000";
layers = (
{
layerId = UUID0;
paths = (
{
closed = 1;
nodes = (
"766 1219 LINE",
"766 1415 LINE",
"61 1415 LINE",
"61 1219 LINE"
);
}
);
width = 827;
}
);
unicode = 00AF;
},
{
glyphname = cedilla;
lastChange = "2020-02-04 17:31:28 +0000";
layers = (
{
layerId = UUID0;
paths = (
{
closed = 1;
nodes = (
"260 -485 LINE",
"395 -485 LINE",
"459 -442 LINE",
"493 -419 LINE",
"534 -346 LINE",
"550 -266 LINE",
"550 -220 LINE",
"546 -201 LINE",
"526 -123 LINE",
"458 -101 LINE",
"426 -91 LINE",
"388 -91 LINE",
"379 -92 LINE",
"406 0 LINE",
"201 0 LINE",
"147 -205 LINE",
"166 -203 LINE",
"228 -195 LINE",
"256 -195 LINE",
"357 -195 LINE",
"357 -256 LINE",
"357 -300 LINE",
"322 -316 LINE",
"295 -328 LINE",
"156 -328 LINE",
"96 -313 LINE",
"61 -446 LINE",
"167 -485 LINE"
);
}
);
width = 612;
}
);
unicode = 00B8;
},
{
glyphname = ogonek;
lastChange = "2020-02-04 17:31:28 +0000";
layers = (
{
layerId = UUID0;
paths = (
{
closed = 1;
nodes = (
"393 -500 LINE",
"453 -479 LINE",
"453 -311 LINE",
"423 -317 LINE",
"332 -317 LINE",
"283 -267 LINE",
"283 -225 LINE",
"283 -110 LINE",
"455 0 LINE",
"291 82 LINE",
"226 37 LINE",
"176 -19 LINE",
"61 -144 LINE",
"61 -279 LINE",
"61 -385 LINE",
"134 -444 LINE",
"168 -472 LINE",
"260 -500 LINE"
);
}
);
width = 516;
}
);
unicode = 02DB;
},
{
glyphname = grave.cap;
lastChange = "2020-02-04 19:18:31 +0000";
layers = (
{
layerId = UUID0;
paths = (
{
closed = 1;
nodes = (
"618 1632 LINE",
"530 1516 LINE",
"226 1664 LINE",
"147 1717 LINE",
"62 1773 LINE",
"62 1852 LINE",
"92 1889 LINE",
"149 1958 LINE",
"195 1985 LINE"
);
}
);
width = 680;
}
);
},
{
glyphname = acute.cap;
lastChange = "2020-02-04 19:18:31 +0000";
layers = (
{
layerId = UUID0;
paths = (
{
closed = 1;
nodes = (
"485 2005 LINE",
"528 1984 LINE",
"564 1939 LINE",
"618 1872 LINE",
"618 1838 LINE",
"618 1794 LINE",
"551 1749 LINE",
"454 1684 LINE",
"150 1536 LINE",
"61 1653 LINE"
);
}
);
width = 680;
}
);
},
{
glyphname = hungarumlaut.cap;
lastChange = "2020-02-04 19:18:31 +0000";
layers = (
{
layerId = UUID0;
paths = (
{
closed = 1;
nodes = (
"379 2054 LINE",
"420 2044 LINE",
"483 2001 LINE",
"553 1952 LINE",
"553 1874 LINE",
"493 1806 LINE",
"445 1759 LINE",
"418 1734 LINE",
"339 1659 LINE",
"174 1513 LINE",
"61 1606 LINE"
);
},
{
closed = 1;
nodes = (
"795 2011 LINE",
"836 2001 LINE",
"933 1934 LINE",
"964 1896 LINE",
"964 1877 LINE",
"964 1841 LINE",
"900 1769 LINE",
"856 1726 LINE",
"832 1703 LINE",
"740 1615 LINE",
"621 1516 LINE",
"516 1602 LINE"
);
}
);
width = 1026;
}
);
},
{
glyphname = circumflex.cap;
lastChange = "2020-02-04 19:18:31 +0000";
layers = (
{
layerId = UUID0;
paths = (
{
closed = 1;
nodes = (
"61 1575 LINE",
"162 1827 LINE",
"208 1940 LINE",
"312 1956 LINE",
"347 1962 LINE",
"391 1962 LINE",
"484 1962 LINE",
"522 1942 LINE",
"589 1907 LINE",
"621 1827 LINE",
"721 1575 LINE",
"604 1518 LINE",
"391 1827 LINE",
"178 1518 LINE"
);
}
);
width = 782;
}
);
},
{
glyphname = caron.cap;
lastChange = "2020-02-04 19:18:31 +0000";
layers = (
{
layerId = UUID0;
paths = (
{
closed = 1;
nodes = (
"178 1962 LINE",
"391 1653 LINE",
"604 1962 LINE",
"721 1905 LINE",
"621 1653 LINE",
"574 1538 LINE",
"470 1523 LINE",
"435 1518 LINE",
"391 1518 LINE",
"295 1518 LINE",
"259 1538 LINE",
"194 1573 LINE",
"162 1653 LINE",
"61 1905 LINE"
);
}
);
width = 782;
}
);
},
{
glyphname = breve.cap;
lastChange = "2020-02-04 19:18:31 +0000";
layers = (
{
layerId = UUID0;
paths = (
{
closed = 1;
nodes = (
"303 1729 LINE",
"400 1729 LINE",
"471 1780 LINE",
"509 1848 LINE",
"524 1903 LINE",
"642 1903 LINE",
"645 1878 LINE",
"645 1803 LINE",
"616 1693 LINE",
"574 1646 LINE",
"486 1549 LINE",
"303 1549 LINE",
"120 1549 LINE",
"30 1646 LINE",
"-42 1726 LINE",
"-42 1859 LINE",
"-42 1880 LINE",
"-40 1903 LINE",
"81 1903 LINE",
"108 1799 LINE",
"160 1762 LINE",
"206 1729 LINE"
);
}
);
width = 512;
}
);
},
{
glyphname = ring.cap;
lastChange = "2020-02-04 19:18:31 +0000";
layers = (
{
layerId = UUID0;
paths = (
{
closed = 1;
nodes = (
"386 1496 LINE",
"366 1518 LINE",
"288 1518 LINE",
"253 1508 LINE",
"242 1496 LINE",
"223 1472 LINE",
"223 1375 LINE",
"232 1332 LINE",
"242 1319 LINE",
"261 1296 LINE",
"339 1296 LINE",
"375 1306 LINE",
"397 1332 LINE",
"406 1375 LINE",
"406 1440 LINE",
"397 1483 LINE"
);
},
{
closed = 1;
nodes = (
"134 1604 LINE",
"193 1651 LINE",
"313 1651 LINE",
"433 1651 LINE",
"492 1604 LINE",
"565 1546 LINE",
"565 1407 LINE",
"565 1207 LINE",
"414 1175 LINE",
"368 1165 LINE",
"259 1165 LINE",
"166 1185 LINE",
"99 1239 LINE",
"61 1333 LINE",
"61 1482 LINE",
"100 1577 LINE"
);
}
);
width = 627;
}
);
},
{
glyphname = tilde.cap;
lastChange = "2020-02-04 19:18:31 +0000";
layers = (
{
layerId = UUID0;
paths = (
{
closed = 1;
nodes = (
"624 1520 LINE",
"553 1520 LINE",
"446 1576 LINE",
"404 1597 LINE",
"332 1632 LINE",
"299 1632 LINE",
"281 1631 LINE",
"242 1629 LINE",
"182 1564 LINE",
"170 1540 LINE",
"61 1610 LINE",
"70 1687 LINE",
"131 1748 LINE",
"206 1825 LINE",
"311 1825 LINE",
"392 1825 LINE",
"488 1768 LINE",
"589 1710 LINE",
"631 1712 LINE",
"721 1716 LINE",
"768 1804 LINE",
"877 1735 LINE",
"868 1661 LINE",
"731 1520 LINE"
);
}
);
width = 938;
}
);
},
{
glyphname = macron.cap;
lastChange = "2020-02-04 19:18:31 +0000";
layers = (
{
layerId = UUID0;
paths = (
{
closed = 1;
nodes = (
"-45 1767 LINE",
"660 1767 LINE",
"660 1571 LINE",
"-45 1571 LINE"
);
}
